M48
; DRILL file {KiCad 9.0.7-9.0.7~ubuntu22.04.1} date 2026-02-24T16:27:38+0530
; FORMAT={-:-/ absolute / metric / decimal}
; #@! TF.CreationDate,2026-02-24T16:27:38+05:30
; #@! TF.GenerationSoftware,Kicad,Pcbnew,9.0.7-9.0.7~ubuntu22.04.1
; #@! TF.FileFunction,Plated,1,2,PTH
FMAT,2
METRIC
; #@! TA.AperFunction,Plated,PTH,ViaDrill
T1C0.300
; #@! TA.AperFunction,Plated,PTH,ComponentDrill
T2C0.700
; #@! TA.AperFunction,Plated,PTH,ComponentDrill
T3C0.800
; #@! TA.AperFunction,Plated,PTH,ComponentDrill
T4C0.950
; #@! TA.AperFunction,Plated,PTH,ComponentDrill
T5C1.000
; #@! TA.AperFunction,Plated,PTH,ComponentDrill
T6C1.100
%
G90
G05
T1
X135.198Y-67.168
X163.644Y-60.275
X190.568Y-94.311
T2
X170.305Y-81.4
X170.325Y-79.0
X170.345Y-76.72
X172.845Y-81.4
X172.865Y-79.0
X172.885Y-76.72
X197.53Y-77.09
X197.53Y-82.17
X201.53Y-77.09
X201.53Y-82.17
X203.78Y-71.26
X203.78Y-76.34
T3
X156.11Y-67.31
X158.562Y-79.55
X158.562Y-81.55
X158.65Y-67.31
X160.562Y-79.55
X160.562Y-81.55
X162.562Y-79.55
X162.562Y-81.55
T4
X118.63Y-143.82
X118.7Y-123.18
X118.7Y-130.11
X118.7Y-136.96
X121.13Y-143.82
X121.2Y-123.18
X121.2Y-130.11
X121.2Y-136.96
X123.63Y-143.82
X123.7Y-123.18
X123.7Y-130.11
X123.7Y-136.96
X126.13Y-143.82
X126.2Y-123.18
X126.2Y-130.11
X126.2Y-136.96
X128.63Y-143.82
X128.7Y-123.18
X128.7Y-130.11
X128.7Y-136.96
X129.58Y-81.94
X129.58Y-84.44
X129.58Y-86.94
X129.58Y-89.44
X129.63Y-105.795
X129.63Y-108.295
X129.63Y-110.795
X129.63Y-113.295
X131.13Y-143.82
X131.2Y-123.18
X131.2Y-130.11
X131.2Y-136.96
X179.86Y-115.01
X179.86Y-117.51
X179.86Y-120.01
X179.86Y-122.51
X179.868Y-101.499
X179.868Y-103.999
X179.868Y-106.499
X179.868Y-108.999
X189.73Y-115.02
X189.73Y-117.52
X189.73Y-120.02
X189.73Y-122.52
X189.774Y-101.499
X189.774Y-103.999
X189.774Y-106.499
X189.774Y-108.999
T5
X109.94Y-81.35
X109.94Y-83.85
X109.94Y-89.85
X109.94Y-92.35
X109.94Y-98.35
X109.94Y-100.85
X109.94Y-106.85
X109.94Y-109.35
X118.438Y-65.527
X120.59Y-77.95
X120.59Y-80.45
X120.59Y-86.94
X120.59Y-89.44
X120.64Y-101.805
X120.64Y-104.305
X120.64Y-110.795
X120.64Y-113.295
X120.938Y-65.527
X127.01Y-65.525
X127.12Y-75.235
X127.17Y-99.09
X129.51Y-65.525
X129.62Y-75.235
X129.67Y-99.09
X135.498Y-65.467
X137.998Y-65.467
X139.26Y-92.025
X139.26Y-94.565
X139.26Y-97.105
X149.42Y-139.48
X149.42Y-144.48
X165.67Y-139.48
X165.67Y-144.48
X176.37Y-76.72
X176.385Y-80.72
X176.405Y-84.45
X178.91Y-76.72
X178.925Y-80.72
X178.945Y-84.45
X187.47Y-71.49
X187.47Y-74.03
X187.47Y-76.57
X187.47Y-79.11
X187.47Y-81.65
X187.47Y-84.19
X187.47Y-86.73
X187.47Y-89.27
X187.47Y-91.81
X187.47Y-94.35
X198.24Y-85.59
X198.24Y-89.34
X200.78Y-85.59
X200.78Y-89.34
T6
X149.76Y-66.58
X149.76Y-69.12
X149.76Y-71.66
X149.76Y-74.2
X149.76Y-76.74
X149.76Y-79.28
X149.76Y-81.82
X149.76Y-84.36
X149.76Y-86.9
X149.76Y-89.44
X149.76Y-91.98
X149.76Y-94.52
X149.76Y-97.06
X149.76Y-99.6
X149.76Y-102.14
X149.76Y-104.68
X149.76Y-107.22
X149.76Y-109.76
X149.76Y-112.3
X149.76Y-114.84
X149.76Y-117.38
X149.76Y-119.92
X149.76Y-122.46
X149.76Y-125.0
X152.3Y-112.3
X152.811Y-72.879
X152.811Y-75.419
X152.811Y-77.959
X152.811Y-80.499
X152.811Y-83.039
X154.84Y-112.3
X157.38Y-112.3
X159.92Y-112.3
X162.46Y-69.12
X162.46Y-112.3
X165.0Y-66.58
X165.0Y-69.12
X165.0Y-71.66
X165.0Y-74.2
X165.0Y-76.74
X165.0Y-79.28
X165.0Y-81.82
X165.0Y-84.36
X165.0Y-86.9
X165.0Y-89.44
X165.0Y-91.98
X165.0Y-94.52
X165.0Y-97.06
X165.0Y-99.6
X165.0Y-102.14
X165.0Y-104.68
X165.0Y-107.22
X165.0Y-109.76
X165.0Y-112.3
X165.0Y-114.84
X165.0Y-117.38
X165.0Y-119.92
X165.0Y-122.46
X165.0Y-125.0
X194.7Y-73.84
X197.24Y-73.84
X199.78Y-73.84
M30
