%TF.GenerationSoftware,KiCad,Pcbnew,9.0.7-9.0.7~ubuntu22.04.1*%
%TF.CreationDate,2026-02-24T23:57:19+05:30*%
%TF.ProjectId,diff_drive_pcb,64696666-5f64-4726-9976-655f7063622e,V2.2*%
%TF.SameCoordinates,Original*%
%TF.FileFunction,Legend,Top*%
%TF.FilePolarity,Positive*%
%FSLAX46Y46*%
G04 Gerber Fmt 4.6, Leading zero omitted, Abs format (unit mm)*
G04 Created by KiCad (PCBNEW 9.0.7-9.0.7~ubuntu22.04.1) date 2026-02-24 23:57:19*
%MOMM*%
%LPD*%
G01*
G04 APERTURE LIST*
%ADD10C,0.100000*%
%ADD11C,0.400000*%
%ADD12C,0.200000*%
%ADD13C,0.250000*%
%ADD14C,0.500000*%
%ADD15C,0.225000*%
%ADD16C,0.150000*%
%ADD17C,0.120000*%
G04 APERTURE END LIST*
D10*
X136103884Y-61515752D02*
X136103884Y-62515752D01*
X136580074Y-62039561D02*
X136627693Y-62134800D01*
X136627693Y-62134800D02*
X136722931Y-62182419D01*
X136103884Y-62039561D02*
X136151503Y-62134800D01*
X136151503Y-62134800D02*
X136246741Y-62182419D01*
X136246741Y-62182419D02*
X136437217Y-62182419D01*
X136437217Y-62182419D02*
X136532455Y-62134800D01*
X136532455Y-62134800D02*
X136580074Y-62039561D01*
X136580074Y-62039561D02*
X136580074Y-61515752D01*
X137722931Y-62087180D02*
X137675312Y-62134800D01*
X137675312Y-62134800D02*
X137532455Y-62182419D01*
X137532455Y-62182419D02*
X137437217Y-62182419D01*
X137437217Y-62182419D02*
X137294360Y-62134800D01*
X137294360Y-62134800D02*
X137199122Y-62039561D01*
X137199122Y-62039561D02*
X137151503Y-61944323D01*
X137151503Y-61944323D02*
X137103884Y-61753847D01*
X137103884Y-61753847D02*
X137103884Y-61610990D01*
X137103884Y-61610990D02*
X137151503Y-61420514D01*
X137151503Y-61420514D02*
X137199122Y-61325276D01*
X137199122Y-61325276D02*
X137294360Y-61230038D01*
X137294360Y-61230038D02*
X137437217Y-61182419D01*
X137437217Y-61182419D02*
X137532455Y-61182419D01*
X137532455Y-61182419D02*
X137675312Y-61230038D01*
X137675312Y-61230038D02*
X137722931Y-61277657D01*
X138913408Y-62182419D02*
X138913408Y-61182419D01*
X138913408Y-61182419D02*
X139294360Y-61182419D01*
X139294360Y-61182419D02*
X139389598Y-61230038D01*
X139389598Y-61230038D02*
X139437217Y-61277657D01*
X139437217Y-61277657D02*
X139484836Y-61372895D01*
X139484836Y-61372895D02*
X139484836Y-61515752D01*
X139484836Y-61515752D02*
X139437217Y-61610990D01*
X139437217Y-61610990D02*
X139389598Y-61658609D01*
X139389598Y-61658609D02*
X139294360Y-61706228D01*
X139294360Y-61706228D02*
X138913408Y-61706228D01*
X140056265Y-62182419D02*
X139961027Y-62134800D01*
X139961027Y-62134800D02*
X139913408Y-62087180D01*
X139913408Y-62087180D02*
X139865789Y-61991942D01*
X139865789Y-61991942D02*
X139865789Y-61706228D01*
X139865789Y-61706228D02*
X139913408Y-61610990D01*
X139913408Y-61610990D02*
X139961027Y-61563371D01*
X139961027Y-61563371D02*
X140056265Y-61515752D01*
X140056265Y-61515752D02*
X140199122Y-61515752D01*
X140199122Y-61515752D02*
X140294360Y-61563371D01*
X140294360Y-61563371D02*
X140341979Y-61610990D01*
X140341979Y-61610990D02*
X140389598Y-61706228D01*
X140389598Y-61706228D02*
X140389598Y-61991942D01*
X140389598Y-61991942D02*
X140341979Y-62087180D01*
X140341979Y-62087180D02*
X140294360Y-62134800D01*
X140294360Y-62134800D02*
X140199122Y-62182419D01*
X140199122Y-62182419D02*
X140056265Y-62182419D01*
X140722932Y-61515752D02*
X140913408Y-62182419D01*
X140913408Y-62182419D02*
X141103884Y-61706228D01*
X141103884Y-61706228D02*
X141294360Y-62182419D01*
X141294360Y-62182419D02*
X141484836Y-61515752D01*
X142246741Y-62134800D02*
X142151503Y-62182419D01*
X142151503Y-62182419D02*
X141961027Y-62182419D01*
X141961027Y-62182419D02*
X141865789Y-62134800D01*
X141865789Y-62134800D02*
X141818170Y-62039561D01*
X141818170Y-62039561D02*
X141818170Y-61658609D01*
X141818170Y-61658609D02*
X141865789Y-61563371D01*
X141865789Y-61563371D02*
X141961027Y-61515752D01*
X141961027Y-61515752D02*
X142151503Y-61515752D01*
X142151503Y-61515752D02*
X142246741Y-61563371D01*
X142246741Y-61563371D02*
X142294360Y-61658609D01*
X142294360Y-61658609D02*
X142294360Y-61753847D01*
X142294360Y-61753847D02*
X141818170Y-61849085D01*
X142722932Y-62182419D02*
X142722932Y-61515752D01*
X142722932Y-61706228D02*
X142770551Y-61610990D01*
X142770551Y-61610990D02*
X142818170Y-61563371D01*
X142818170Y-61563371D02*
X142913408Y-61515752D01*
X142913408Y-61515752D02*
X143008646Y-61515752D01*
D11*
X161739347Y-137673247D02*
X161739347Y-135173247D01*
X161739347Y-135173247D02*
X162215537Y-135173247D01*
X162215537Y-135173247D02*
X162501252Y-135292295D01*
X162501252Y-135292295D02*
X162691728Y-135530390D01*
X162691728Y-135530390D02*
X162786966Y-135768485D01*
X162786966Y-135768485D02*
X162882204Y-136244676D01*
X162882204Y-136244676D02*
X162882204Y-136601819D01*
X162882204Y-136601819D02*
X162786966Y-137078009D01*
X162786966Y-137078009D02*
X162691728Y-137316104D01*
X162691728Y-137316104D02*
X162501252Y-137554200D01*
X162501252Y-137554200D02*
X162215537Y-137673247D01*
X162215537Y-137673247D02*
X161739347Y-137673247D01*
X163739347Y-137673247D02*
X163739347Y-135173247D01*
X165358395Y-136363723D02*
X164691728Y-136363723D01*
X164691728Y-137673247D02*
X164691728Y-135173247D01*
X164691728Y-135173247D02*
X165644109Y-135173247D01*
X167072681Y-136363723D02*
X166406014Y-136363723D01*
X166406014Y-137673247D02*
X166406014Y-135173247D01*
X166406014Y-135173247D02*
X167358395Y-135173247D01*
X169644110Y-137673247D02*
X169644110Y-135173247D01*
X169644110Y-135173247D02*
X170120300Y-135173247D01*
X170120300Y-135173247D02*
X170406015Y-135292295D01*
X170406015Y-135292295D02*
X170596491Y-135530390D01*
X170596491Y-135530390D02*
X170691729Y-135768485D01*
X170691729Y-135768485D02*
X170786967Y-136244676D01*
X170786967Y-136244676D02*
X170786967Y-136601819D01*
X170786967Y-136601819D02*
X170691729Y-137078009D01*
X170691729Y-137078009D02*
X170596491Y-137316104D01*
X170596491Y-137316104D02*
X170406015Y-137554200D01*
X170406015Y-137554200D02*
X170120300Y-137673247D01*
X170120300Y-137673247D02*
X169644110Y-137673247D01*
X172786967Y-137673247D02*
X172120300Y-136482771D01*
X171644110Y-137673247D02*
X171644110Y-135173247D01*
X171644110Y-135173247D02*
X172406015Y-135173247D01*
X172406015Y-135173247D02*
X172596491Y-135292295D01*
X172596491Y-135292295D02*
X172691729Y-135411342D01*
X172691729Y-135411342D02*
X172786967Y-135649438D01*
X172786967Y-135649438D02*
X172786967Y-136006580D01*
X172786967Y-136006580D02*
X172691729Y-136244676D01*
X172691729Y-136244676D02*
X172596491Y-136363723D01*
X172596491Y-136363723D02*
X172406015Y-136482771D01*
X172406015Y-136482771D02*
X171644110Y-136482771D01*
X173644110Y-137673247D02*
X173644110Y-135173247D01*
X174310777Y-135173247D02*
X174977443Y-137673247D01*
X174977443Y-137673247D02*
X175644110Y-135173247D01*
X176310777Y-136363723D02*
X176977444Y-136363723D01*
X177263158Y-137673247D02*
X176310777Y-137673247D01*
X176310777Y-137673247D02*
X176310777Y-135173247D01*
X176310777Y-135173247D02*
X177263158Y-135173247D01*
X180786968Y-137435152D02*
X180691730Y-137554200D01*
X180691730Y-137554200D02*
X180406016Y-137673247D01*
X180406016Y-137673247D02*
X180215540Y-137673247D01*
X180215540Y-137673247D02*
X179929825Y-137554200D01*
X179929825Y-137554200D02*
X179739349Y-137316104D01*
X179739349Y-137316104D02*
X179644111Y-137078009D01*
X179644111Y-137078009D02*
X179548873Y-136601819D01*
X179548873Y-136601819D02*
X179548873Y-136244676D01*
X179548873Y-136244676D02*
X179644111Y-135768485D01*
X179644111Y-135768485D02*
X179739349Y-135530390D01*
X179739349Y-135530390D02*
X179929825Y-135292295D01*
X179929825Y-135292295D02*
X180215540Y-135173247D01*
X180215540Y-135173247D02*
X180406016Y-135173247D01*
X180406016Y-135173247D02*
X180691730Y-135292295D01*
X180691730Y-135292295D02*
X180786968Y-135411342D01*
X182025063Y-135173247D02*
X182406016Y-135173247D01*
X182406016Y-135173247D02*
X182596492Y-135292295D01*
X182596492Y-135292295D02*
X182786968Y-135530390D01*
X182786968Y-135530390D02*
X182882206Y-136006580D01*
X182882206Y-136006580D02*
X182882206Y-136839914D01*
X182882206Y-136839914D02*
X182786968Y-137316104D01*
X182786968Y-137316104D02*
X182596492Y-137554200D01*
X182596492Y-137554200D02*
X182406016Y-137673247D01*
X182406016Y-137673247D02*
X182025063Y-137673247D01*
X182025063Y-137673247D02*
X181834587Y-137554200D01*
X181834587Y-137554200D02*
X181644111Y-137316104D01*
X181644111Y-137316104D02*
X181548873Y-136839914D01*
X181548873Y-136839914D02*
X181548873Y-136006580D01*
X181548873Y-136006580D02*
X181644111Y-135530390D01*
X181644111Y-135530390D02*
X181834587Y-135292295D01*
X181834587Y-135292295D02*
X182025063Y-135173247D01*
X183739349Y-137673247D02*
X183739349Y-135173247D01*
X183739349Y-135173247D02*
X184882206Y-137673247D01*
X184882206Y-137673247D02*
X184882206Y-135173247D01*
X185548873Y-135173247D02*
X186691730Y-135173247D01*
X186120301Y-137673247D02*
X186120301Y-135173247D01*
X188501254Y-137673247D02*
X187834587Y-136482771D01*
X187358397Y-137673247D02*
X187358397Y-135173247D01*
X187358397Y-135173247D02*
X188120302Y-135173247D01*
X188120302Y-135173247D02*
X188310778Y-135292295D01*
X188310778Y-135292295D02*
X188406016Y-135411342D01*
X188406016Y-135411342D02*
X188501254Y-135649438D01*
X188501254Y-135649438D02*
X188501254Y-136006580D01*
X188501254Y-136006580D02*
X188406016Y-136244676D01*
X188406016Y-136244676D02*
X188310778Y-136363723D01*
X188310778Y-136363723D02*
X188120302Y-136482771D01*
X188120302Y-136482771D02*
X187358397Y-136482771D01*
X189739349Y-135173247D02*
X190120302Y-135173247D01*
X190120302Y-135173247D02*
X190310778Y-135292295D01*
X190310778Y-135292295D02*
X190501254Y-135530390D01*
X190501254Y-135530390D02*
X190596492Y-136006580D01*
X190596492Y-136006580D02*
X190596492Y-136839914D01*
X190596492Y-136839914D02*
X190501254Y-137316104D01*
X190501254Y-137316104D02*
X190310778Y-137554200D01*
X190310778Y-137554200D02*
X190120302Y-137673247D01*
X190120302Y-137673247D02*
X189739349Y-137673247D01*
X189739349Y-137673247D02*
X189548873Y-137554200D01*
X189548873Y-137554200D02*
X189358397Y-137316104D01*
X189358397Y-137316104D02*
X189263159Y-136839914D01*
X189263159Y-136839914D02*
X189263159Y-136006580D01*
X189263159Y-136006580D02*
X189358397Y-135530390D01*
X189358397Y-135530390D02*
X189548873Y-135292295D01*
X189548873Y-135292295D02*
X189739349Y-135173247D01*
X192406016Y-137673247D02*
X191453635Y-137673247D01*
X191453635Y-137673247D02*
X191453635Y-135173247D01*
X194025064Y-137673247D02*
X193072683Y-137673247D01*
X193072683Y-137673247D02*
X193072683Y-135173247D01*
X194691731Y-136363723D02*
X195358398Y-136363723D01*
X195644112Y-137673247D02*
X194691731Y-137673247D01*
X194691731Y-137673247D02*
X194691731Y-135173247D01*
X194691731Y-135173247D02*
X195644112Y-135173247D01*
X197644112Y-137673247D02*
X196977445Y-136482771D01*
X196501255Y-137673247D02*
X196501255Y-135173247D01*
X196501255Y-135173247D02*
X197263160Y-135173247D01*
X197263160Y-135173247D02*
X197453636Y-135292295D01*
X197453636Y-135292295D02*
X197548874Y-135411342D01*
X197548874Y-135411342D02*
X197644112Y-135649438D01*
X197644112Y-135649438D02*
X197644112Y-136006580D01*
X197644112Y-136006580D02*
X197548874Y-136244676D01*
X197548874Y-136244676D02*
X197453636Y-136363723D01*
X197453636Y-136363723D02*
X197263160Y-136482771D01*
X197263160Y-136482771D02*
X196501255Y-136482771D01*
D10*
X137500000Y-139780000D02*
X169010000Y-139780000D01*
X169010000Y-157310000D01*
X137500000Y-157310000D01*
X137500000Y-139780000D01*
D12*
X170488720Y-141391112D02*
X170488720Y-139891112D01*
X170488720Y-139891112D02*
X170845863Y-139891112D01*
X170845863Y-139891112D02*
X171060149Y-139962541D01*
X171060149Y-139962541D02*
X171203006Y-140105398D01*
X171203006Y-140105398D02*
X171274435Y-140248255D01*
X171274435Y-140248255D02*
X171345863Y-140533969D01*
X171345863Y-140533969D02*
X171345863Y-140748255D01*
X171345863Y-140748255D02*
X171274435Y-141033969D01*
X171274435Y-141033969D02*
X171203006Y-141176826D01*
X171203006Y-141176826D02*
X171060149Y-141319684D01*
X171060149Y-141319684D02*
X170845863Y-141391112D01*
X170845863Y-141391112D02*
X170488720Y-141391112D01*
X172560149Y-141319684D02*
X172417292Y-141391112D01*
X172417292Y-141391112D02*
X172131578Y-141391112D01*
X172131578Y-141391112D02*
X171988720Y-141319684D01*
X171988720Y-141319684D02*
X171917292Y-141176826D01*
X171917292Y-141176826D02*
X171917292Y-140605398D01*
X171917292Y-140605398D02*
X171988720Y-140462541D01*
X171988720Y-140462541D02*
X172131578Y-140391112D01*
X172131578Y-140391112D02*
X172417292Y-140391112D01*
X172417292Y-140391112D02*
X172560149Y-140462541D01*
X172560149Y-140462541D02*
X172631578Y-140605398D01*
X172631578Y-140605398D02*
X172631578Y-140748255D01*
X172631578Y-140748255D02*
X171917292Y-140891112D01*
X173203006Y-141319684D02*
X173345863Y-141391112D01*
X173345863Y-141391112D02*
X173631577Y-141391112D01*
X173631577Y-141391112D02*
X173774434Y-141319684D01*
X173774434Y-141319684D02*
X173845863Y-141176826D01*
X173845863Y-141176826D02*
X173845863Y-141105398D01*
X173845863Y-141105398D02*
X173774434Y-140962541D01*
X173774434Y-140962541D02*
X173631577Y-140891112D01*
X173631577Y-140891112D02*
X173417292Y-140891112D01*
X173417292Y-140891112D02*
X173274434Y-140819684D01*
X173274434Y-140819684D02*
X173203006Y-140676826D01*
X173203006Y-140676826D02*
X173203006Y-140605398D01*
X173203006Y-140605398D02*
X173274434Y-140462541D01*
X173274434Y-140462541D02*
X173417292Y-140391112D01*
X173417292Y-140391112D02*
X173631577Y-140391112D01*
X173631577Y-140391112D02*
X173774434Y-140462541D01*
X174488720Y-141391112D02*
X174488720Y-140391112D01*
X174488720Y-139891112D02*
X174417292Y-139962541D01*
X174417292Y-139962541D02*
X174488720Y-140033969D01*
X174488720Y-140033969D02*
X174560149Y-139962541D01*
X174560149Y-139962541D02*
X174488720Y-139891112D01*
X174488720Y-139891112D02*
X174488720Y-140033969D01*
X175845864Y-140391112D02*
X175845864Y-141605398D01*
X175845864Y-141605398D02*
X175774435Y-141748255D01*
X175774435Y-141748255D02*
X175703006Y-141819684D01*
X175703006Y-141819684D02*
X175560149Y-141891112D01*
X175560149Y-141891112D02*
X175345864Y-141891112D01*
X175345864Y-141891112D02*
X175203006Y-141819684D01*
X175845864Y-141319684D02*
X175703006Y-141391112D01*
X175703006Y-141391112D02*
X175417292Y-141391112D01*
X175417292Y-141391112D02*
X175274435Y-141319684D01*
X175274435Y-141319684D02*
X175203006Y-141248255D01*
X175203006Y-141248255D02*
X175131578Y-141105398D01*
X175131578Y-141105398D02*
X175131578Y-140676826D01*
X175131578Y-140676826D02*
X175203006Y-140533969D01*
X175203006Y-140533969D02*
X175274435Y-140462541D01*
X175274435Y-140462541D02*
X175417292Y-140391112D01*
X175417292Y-140391112D02*
X175703006Y-140391112D01*
X175703006Y-140391112D02*
X175845864Y-140462541D01*
X176560149Y-140391112D02*
X176560149Y-141391112D01*
X176560149Y-140533969D02*
X176631578Y-140462541D01*
X176631578Y-140462541D02*
X176774435Y-140391112D01*
X176774435Y-140391112D02*
X176988721Y-140391112D01*
X176988721Y-140391112D02*
X177131578Y-140462541D01*
X177131578Y-140462541D02*
X177203007Y-140605398D01*
X177203007Y-140605398D02*
X177203007Y-141391112D01*
X178488721Y-141319684D02*
X178345864Y-141391112D01*
X178345864Y-141391112D02*
X178060150Y-141391112D01*
X178060150Y-141391112D02*
X177917292Y-141319684D01*
X177917292Y-141319684D02*
X177845864Y-141176826D01*
X177845864Y-141176826D02*
X177845864Y-140605398D01*
X177845864Y-140605398D02*
X177917292Y-140462541D01*
X177917292Y-140462541D02*
X178060150Y-140391112D01*
X178060150Y-140391112D02*
X178345864Y-140391112D01*
X178345864Y-140391112D02*
X178488721Y-140462541D01*
X178488721Y-140462541D02*
X178560150Y-140605398D01*
X178560150Y-140605398D02*
X178560150Y-140748255D01*
X178560150Y-140748255D02*
X177845864Y-140891112D01*
X179845864Y-141391112D02*
X179845864Y-139891112D01*
X179845864Y-141319684D02*
X179703006Y-141391112D01*
X179703006Y-141391112D02*
X179417292Y-141391112D01*
X179417292Y-141391112D02*
X179274435Y-141319684D01*
X179274435Y-141319684D02*
X179203006Y-141248255D01*
X179203006Y-141248255D02*
X179131578Y-141105398D01*
X179131578Y-141105398D02*
X179131578Y-140676826D01*
X179131578Y-140676826D02*
X179203006Y-140533969D01*
X179203006Y-140533969D02*
X179274435Y-140462541D01*
X179274435Y-140462541D02*
X179417292Y-140391112D01*
X179417292Y-140391112D02*
X179703006Y-140391112D01*
X179703006Y-140391112D02*
X179845864Y-140462541D01*
X182203006Y-140605398D02*
X182417292Y-140676826D01*
X182417292Y-140676826D02*
X182488721Y-140748255D01*
X182488721Y-140748255D02*
X182560149Y-140891112D01*
X182560149Y-140891112D02*
X182560149Y-141105398D01*
X182560149Y-141105398D02*
X182488721Y-141248255D01*
X182488721Y-141248255D02*
X182417292Y-141319684D01*
X182417292Y-141319684D02*
X182274435Y-141391112D01*
X182274435Y-141391112D02*
X181703006Y-141391112D01*
X181703006Y-141391112D02*
X181703006Y-139891112D01*
X181703006Y-139891112D02*
X182203006Y-139891112D01*
X182203006Y-139891112D02*
X182345864Y-139962541D01*
X182345864Y-139962541D02*
X182417292Y-140033969D01*
X182417292Y-140033969D02*
X182488721Y-140176826D01*
X182488721Y-140176826D02*
X182488721Y-140319684D01*
X182488721Y-140319684D02*
X182417292Y-140462541D01*
X182417292Y-140462541D02*
X182345864Y-140533969D01*
X182345864Y-140533969D02*
X182203006Y-140605398D01*
X182203006Y-140605398D02*
X181703006Y-140605398D01*
X183060149Y-140391112D02*
X183417292Y-141391112D01*
X183774435Y-140391112D02*
X183417292Y-141391112D01*
X183417292Y-141391112D02*
X183274435Y-141748255D01*
X183274435Y-141748255D02*
X183203006Y-141819684D01*
X183203006Y-141819684D02*
X183060149Y-141891112D01*
X170417292Y-143377457D02*
X171131578Y-143377457D01*
X170274435Y-143806028D02*
X170774435Y-142306028D01*
X170774435Y-142306028D02*
X171274435Y-143806028D01*
X171774434Y-143806028D02*
X171774434Y-142806028D01*
X171774434Y-143091742D02*
X171845863Y-142948885D01*
X171845863Y-142948885D02*
X171917292Y-142877457D01*
X171917292Y-142877457D02*
X172060149Y-142806028D01*
X172060149Y-142806028D02*
X172203006Y-142806028D01*
X172560148Y-142806028D02*
X172917291Y-143806028D01*
X173274434Y-142806028D02*
X172917291Y-143806028D01*
X172917291Y-143806028D02*
X172774434Y-144163171D01*
X172774434Y-144163171D02*
X172703005Y-144234600D01*
X172703005Y-144234600D02*
X172560148Y-144306028D01*
X174488720Y-143806028D02*
X174488720Y-143020314D01*
X174488720Y-143020314D02*
X174417291Y-142877457D01*
X174417291Y-142877457D02*
X174274434Y-142806028D01*
X174274434Y-142806028D02*
X173988720Y-142806028D01*
X173988720Y-142806028D02*
X173845862Y-142877457D01*
X174488720Y-143734600D02*
X174345862Y-143806028D01*
X174345862Y-143806028D02*
X173988720Y-143806028D01*
X173988720Y-143806028D02*
X173845862Y-143734600D01*
X173845862Y-143734600D02*
X173774434Y-143591742D01*
X173774434Y-143591742D02*
X173774434Y-143448885D01*
X173774434Y-143448885D02*
X173845862Y-143306028D01*
X173845862Y-143306028D02*
X173988720Y-143234600D01*
X173988720Y-143234600D02*
X174345862Y-143234600D01*
X174345862Y-143234600D02*
X174488720Y-143163171D01*
X175203005Y-142806028D02*
X175203005Y-143806028D01*
X175203005Y-142948885D02*
X175274434Y-142877457D01*
X175274434Y-142877457D02*
X175417291Y-142806028D01*
X175417291Y-142806028D02*
X175631577Y-142806028D01*
X175631577Y-142806028D02*
X175774434Y-142877457D01*
X175774434Y-142877457D02*
X175845863Y-143020314D01*
X175845863Y-143020314D02*
X175845863Y-143806028D01*
D10*
X106760000Y-83090000D02*
X116510000Y-83090000D01*
X116510000Y-119090000D01*
X106760000Y-119090000D01*
X106760000Y-83090000D01*
X163395000Y-80310000D02*
X180895000Y-80310000D01*
X180895000Y-92560000D01*
X163395000Y-92560000D01*
X163395000Y-80310000D01*
D12*
X182799673Y-75367219D02*
X182799673Y-74367219D01*
X183275863Y-75367219D02*
X183275863Y-74367219D01*
X183275863Y-74367219D02*
X183609196Y-75081504D01*
X183609196Y-75081504D02*
X183942529Y-74367219D01*
X183942529Y-74367219D02*
X183942529Y-75367219D01*
X184418720Y-74367219D02*
X184418720Y-75176742D01*
X184418720Y-75176742D02*
X184466339Y-75271980D01*
X184466339Y-75271980D02*
X184513958Y-75319600D01*
X184513958Y-75319600D02*
X184609196Y-75367219D01*
X184609196Y-75367219D02*
X184799672Y-75367219D01*
X184799672Y-75367219D02*
X184894910Y-75319600D01*
X184894910Y-75319600D02*
X184942529Y-75271980D01*
X184942529Y-75271980D02*
X184990148Y-75176742D01*
X184990148Y-75176742D02*
X184990148Y-74367219D01*
D10*
X130825217Y-125925609D02*
X130491884Y-125925609D01*
X130491884Y-126449419D02*
X130491884Y-125449419D01*
X130491884Y-125449419D02*
X130968074Y-125449419D01*
X131825217Y-126449419D02*
X131349027Y-126449419D01*
X131349027Y-126449419D02*
X131349027Y-125449419D01*
D13*
X188864619Y-74217431D02*
X187864619Y-74217431D01*
X188340809Y-74217431D02*
X188340809Y-73646003D01*
X188864619Y-73646003D02*
X187864619Y-73646003D01*
X188340809Y-73169812D02*
X188340809Y-72836479D01*
X188864619Y-72693622D02*
X188864619Y-73169812D01*
X188864619Y-73169812D02*
X187864619Y-73169812D01*
X187864619Y-73169812D02*
X187864619Y-72693622D01*
X188578904Y-72312669D02*
X188578904Y-71836479D01*
X188864619Y-72407907D02*
X187864619Y-72074574D01*
X187864619Y-72074574D02*
X188864619Y-71741241D01*
X188864619Y-71407907D02*
X187864619Y-71407907D01*
X187864619Y-71407907D02*
X187864619Y-71169812D01*
X187864619Y-71169812D02*
X187912238Y-71026955D01*
X187912238Y-71026955D02*
X188007476Y-70931717D01*
X188007476Y-70931717D02*
X188102714Y-70884098D01*
X188102714Y-70884098D02*
X188293190Y-70836479D01*
X188293190Y-70836479D02*
X188436047Y-70836479D01*
X188436047Y-70836479D02*
X188626523Y-70884098D01*
X188626523Y-70884098D02*
X188721761Y-70931717D01*
X188721761Y-70931717D02*
X188817000Y-71026955D01*
X188817000Y-71026955D02*
X188864619Y-71169812D01*
X188864619Y-71169812D02*
X188864619Y-71407907D01*
X188864619Y-69931717D02*
X188864619Y-70407907D01*
X188864619Y-70407907D02*
X187864619Y-70407907D01*
X188864619Y-69598383D02*
X187864619Y-69598383D01*
X187912238Y-68598384D02*
X187864619Y-68693622D01*
X187864619Y-68693622D02*
X187864619Y-68836479D01*
X187864619Y-68836479D02*
X187912238Y-68979336D01*
X187912238Y-68979336D02*
X188007476Y-69074574D01*
X188007476Y-69074574D02*
X188102714Y-69122193D01*
X188102714Y-69122193D02*
X188293190Y-69169812D01*
X188293190Y-69169812D02*
X188436047Y-69169812D01*
X188436047Y-69169812D02*
X188626523Y-69122193D01*
X188626523Y-69122193D02*
X188721761Y-69074574D01*
X188721761Y-69074574D02*
X188817000Y-68979336D01*
X188817000Y-68979336D02*
X188864619Y-68836479D01*
X188864619Y-68836479D02*
X188864619Y-68741241D01*
X188864619Y-68741241D02*
X188817000Y-68598384D01*
X188817000Y-68598384D02*
X188769380Y-68550765D01*
X188769380Y-68550765D02*
X188436047Y-68550765D01*
X188436047Y-68550765D02*
X188436047Y-68741241D01*
X188864619Y-68122193D02*
X187864619Y-68122193D01*
X188340809Y-68122193D02*
X188340809Y-67550765D01*
X188864619Y-67550765D02*
X187864619Y-67550765D01*
X187864619Y-67217431D02*
X187864619Y-66646003D01*
X188864619Y-66931717D02*
X187864619Y-66931717D01*
D10*
X130657217Y-139688609D02*
X130800074Y-139736228D01*
X130800074Y-139736228D02*
X130847693Y-139783847D01*
X130847693Y-139783847D02*
X130895312Y-139879085D01*
X130895312Y-139879085D02*
X130895312Y-140021942D01*
X130895312Y-140021942D02*
X130847693Y-140117180D01*
X130847693Y-140117180D02*
X130800074Y-140164800D01*
X130800074Y-140164800D02*
X130704836Y-140212419D01*
X130704836Y-140212419D02*
X130323884Y-140212419D01*
X130323884Y-140212419D02*
X130323884Y-139212419D01*
X130323884Y-139212419D02*
X130657217Y-139212419D01*
X130657217Y-139212419D02*
X130752455Y-139260038D01*
X130752455Y-139260038D02*
X130800074Y-139307657D01*
X130800074Y-139307657D02*
X130847693Y-139402895D01*
X130847693Y-139402895D02*
X130847693Y-139498133D01*
X130847693Y-139498133D02*
X130800074Y-139593371D01*
X130800074Y-139593371D02*
X130752455Y-139640990D01*
X130752455Y-139640990D02*
X130657217Y-139688609D01*
X130657217Y-139688609D02*
X130323884Y-139688609D01*
X131800074Y-140212419D02*
X131323884Y-140212419D01*
X131323884Y-140212419D02*
X131323884Y-139212419D01*
X130587217Y-146548609D02*
X130730074Y-146596228D01*
X130730074Y-146596228D02*
X130777693Y-146643847D01*
X130777693Y-146643847D02*
X130825312Y-146739085D01*
X130825312Y-146739085D02*
X130825312Y-146881942D01*
X130825312Y-146881942D02*
X130777693Y-146977180D01*
X130777693Y-146977180D02*
X130730074Y-147024800D01*
X130730074Y-147024800D02*
X130634836Y-147072419D01*
X130634836Y-147072419D02*
X130253884Y-147072419D01*
X130253884Y-147072419D02*
X130253884Y-146072419D01*
X130253884Y-146072419D02*
X130587217Y-146072419D01*
X130587217Y-146072419D02*
X130682455Y-146120038D01*
X130682455Y-146120038D02*
X130730074Y-146167657D01*
X130730074Y-146167657D02*
X130777693Y-146262895D01*
X130777693Y-146262895D02*
X130777693Y-146358133D01*
X130777693Y-146358133D02*
X130730074Y-146453371D01*
X130730074Y-146453371D02*
X130682455Y-146500990D01*
X130682455Y-146500990D02*
X130587217Y-146548609D01*
X130587217Y-146548609D02*
X130253884Y-146548609D01*
X131825312Y-147072419D02*
X131491979Y-146596228D01*
X131253884Y-147072419D02*
X131253884Y-146072419D01*
X131253884Y-146072419D02*
X131634836Y-146072419D01*
X131634836Y-146072419D02*
X131730074Y-146120038D01*
X131730074Y-146120038D02*
X131777693Y-146167657D01*
X131777693Y-146167657D02*
X131825312Y-146262895D01*
X131825312Y-146262895D02*
X131825312Y-146405752D01*
X131825312Y-146405752D02*
X131777693Y-146500990D01*
X131777693Y-146500990D02*
X131730074Y-146548609D01*
X131730074Y-146548609D02*
X131634836Y-146596228D01*
X131634836Y-146596228D02*
X131253884Y-146596228D01*
X130657217Y-132838609D02*
X130323884Y-132838609D01*
X130323884Y-133362419D02*
X130323884Y-132362419D01*
X130323884Y-132362419D02*
X130800074Y-132362419D01*
X131752455Y-133362419D02*
X131419122Y-132886228D01*
X131181027Y-133362419D02*
X131181027Y-132362419D01*
X131181027Y-132362419D02*
X131561979Y-132362419D01*
X131561979Y-132362419D02*
X131657217Y-132410038D01*
X131657217Y-132410038D02*
X131704836Y-132457657D01*
X131704836Y-132457657D02*
X131752455Y-132552895D01*
X131752455Y-132552895D02*
X131752455Y-132695752D01*
X131752455Y-132695752D02*
X131704836Y-132790990D01*
X131704836Y-132790990D02*
X131657217Y-132838609D01*
X131657217Y-132838609D02*
X131561979Y-132886228D01*
X131561979Y-132886228D02*
X131181027Y-132886228D01*
D13*
X179962000Y-90455050D02*
X180009619Y-90312193D01*
X180009619Y-90312193D02*
X180009619Y-90074098D01*
X180009619Y-90074098D02*
X179962000Y-89978860D01*
X179962000Y-89978860D02*
X179914380Y-89931241D01*
X179914380Y-89931241D02*
X179819142Y-89883622D01*
X179819142Y-89883622D02*
X179723904Y-89883622D01*
X179723904Y-89883622D02*
X179628666Y-89931241D01*
X179628666Y-89931241D02*
X179581047Y-89978860D01*
X179581047Y-89978860D02*
X179533428Y-90074098D01*
X179533428Y-90074098D02*
X179485809Y-90264574D01*
X179485809Y-90264574D02*
X179438190Y-90359812D01*
X179438190Y-90359812D02*
X179390571Y-90407431D01*
X179390571Y-90407431D02*
X179295333Y-90455050D01*
X179295333Y-90455050D02*
X179200095Y-90455050D01*
X179200095Y-90455050D02*
X179104857Y-90407431D01*
X179104857Y-90407431D02*
X179057238Y-90359812D01*
X179057238Y-90359812D02*
X179009619Y-90264574D01*
X179009619Y-90264574D02*
X179009619Y-90026479D01*
X179009619Y-90026479D02*
X179057238Y-89883622D01*
X179009619Y-89597907D02*
X179009619Y-89026479D01*
X180009619Y-89312193D02*
X179009619Y-89312193D01*
X179723904Y-88740764D02*
X179723904Y-88264574D01*
X180009619Y-88836002D02*
X179009619Y-88502669D01*
X179009619Y-88502669D02*
X180009619Y-88169336D01*
X179009619Y-87978859D02*
X179009619Y-87407431D01*
X180009619Y-87693145D02*
X179009619Y-87693145D01*
X179009619Y-87074097D02*
X179819142Y-87074097D01*
X179819142Y-87074097D02*
X179914380Y-87026478D01*
X179914380Y-87026478D02*
X179962000Y-86978859D01*
X179962000Y-86978859D02*
X180009619Y-86883621D01*
X180009619Y-86883621D02*
X180009619Y-86693145D01*
X180009619Y-86693145D02*
X179962000Y-86597907D01*
X179962000Y-86597907D02*
X179914380Y-86550288D01*
X179914380Y-86550288D02*
X179819142Y-86502669D01*
X179819142Y-86502669D02*
X179009619Y-86502669D01*
X179962000Y-86074097D02*
X180009619Y-85931240D01*
X180009619Y-85931240D02*
X180009619Y-85693145D01*
X180009619Y-85693145D02*
X179962000Y-85597907D01*
X179962000Y-85597907D02*
X179914380Y-85550288D01*
X179914380Y-85550288D02*
X179819142Y-85502669D01*
X179819142Y-85502669D02*
X179723904Y-85502669D01*
X179723904Y-85502669D02*
X179628666Y-85550288D01*
X179628666Y-85550288D02*
X179581047Y-85597907D01*
X179581047Y-85597907D02*
X179533428Y-85693145D01*
X179533428Y-85693145D02*
X179485809Y-85883621D01*
X179485809Y-85883621D02*
X179438190Y-85978859D01*
X179438190Y-85978859D02*
X179390571Y-86026478D01*
X179390571Y-86026478D02*
X179295333Y-86074097D01*
X179295333Y-86074097D02*
X179200095Y-86074097D01*
X179200095Y-86074097D02*
X179104857Y-86026478D01*
X179104857Y-86026478D02*
X179057238Y-85978859D01*
X179057238Y-85978859D02*
X179009619Y-85883621D01*
X179009619Y-85883621D02*
X179009619Y-85645526D01*
X179009619Y-85645526D02*
X179057238Y-85502669D01*
X180009619Y-83836002D02*
X180009619Y-84312192D01*
X180009619Y-84312192D02*
X179009619Y-84312192D01*
X179485809Y-83502668D02*
X179485809Y-83169335D01*
X180009619Y-83026478D02*
X180009619Y-83502668D01*
X180009619Y-83502668D02*
X179009619Y-83502668D01*
X179009619Y-83502668D02*
X179009619Y-83026478D01*
X180009619Y-82597906D02*
X179009619Y-82597906D01*
X179009619Y-82597906D02*
X179009619Y-82359811D01*
X179009619Y-82359811D02*
X179057238Y-82216954D01*
X179057238Y-82216954D02*
X179152476Y-82121716D01*
X179152476Y-82121716D02*
X179247714Y-82074097D01*
X179247714Y-82074097D02*
X179438190Y-82026478D01*
X179438190Y-82026478D02*
X179581047Y-82026478D01*
X179581047Y-82026478D02*
X179771523Y-82074097D01*
X179771523Y-82074097D02*
X179866761Y-82121716D01*
X179866761Y-82121716D02*
X179962000Y-82216954D01*
X179962000Y-82216954D02*
X180009619Y-82359811D01*
X180009619Y-82359811D02*
X180009619Y-82597906D01*
D10*
X109622419Y-88136115D02*
X108622419Y-88136115D01*
X108622419Y-88136115D02*
X109336704Y-87802782D01*
X109336704Y-87802782D02*
X108622419Y-87469449D01*
X108622419Y-87469449D02*
X109622419Y-87469449D01*
X109622419Y-86469449D02*
X109622419Y-87040877D01*
X109622419Y-86755163D02*
X108622419Y-86755163D01*
X108622419Y-86755163D02*
X108765276Y-86850401D01*
X108765276Y-86850401D02*
X108860514Y-86945639D01*
X108860514Y-86945639D02*
X108908133Y-87040877D01*
D14*
X186757518Y-141606857D02*
X187471804Y-143606857D01*
X187471804Y-143606857D02*
X188186089Y-141606857D01*
X189186089Y-140892571D02*
X189328946Y-140749714D01*
X189328946Y-140749714D02*
X189614661Y-140606857D01*
X189614661Y-140606857D02*
X190328946Y-140606857D01*
X190328946Y-140606857D02*
X190614661Y-140749714D01*
X190614661Y-140749714D02*
X190757518Y-140892571D01*
X190757518Y-140892571D02*
X190900375Y-141178285D01*
X190900375Y-141178285D02*
X190900375Y-141464000D01*
X190900375Y-141464000D02*
X190757518Y-141892571D01*
X190757518Y-141892571D02*
X189043232Y-143606857D01*
X189043232Y-143606857D02*
X190900375Y-143606857D01*
X192186089Y-143321142D02*
X192328946Y-143464000D01*
X192328946Y-143464000D02*
X192186089Y-143606857D01*
X192186089Y-143606857D02*
X192043232Y-143464000D01*
X192043232Y-143464000D02*
X192186089Y-143321142D01*
X192186089Y-143321142D02*
X192186089Y-143606857D01*
X193471803Y-140892571D02*
X193614660Y-140749714D01*
X193614660Y-140749714D02*
X193900375Y-140606857D01*
X193900375Y-140606857D02*
X194614660Y-140606857D01*
X194614660Y-140606857D02*
X194900375Y-140749714D01*
X194900375Y-140749714D02*
X195043232Y-140892571D01*
X195043232Y-140892571D02*
X195186089Y-141178285D01*
X195186089Y-141178285D02*
X195186089Y-141464000D01*
X195186089Y-141464000D02*
X195043232Y-141892571D01*
X195043232Y-141892571D02*
X193328946Y-143606857D01*
X193328946Y-143606857D02*
X195186089Y-143606857D01*
D10*
X120040074Y-66232419D02*
X119563884Y-66232419D01*
X119563884Y-66232419D02*
X119516265Y-66708609D01*
X119516265Y-66708609D02*
X119563884Y-66660990D01*
X119563884Y-66660990D02*
X119659122Y-66613371D01*
X119659122Y-66613371D02*
X119897217Y-66613371D01*
X119897217Y-66613371D02*
X119992455Y-66660990D01*
X119992455Y-66660990D02*
X120040074Y-66708609D01*
X120040074Y-66708609D02*
X120087693Y-66803847D01*
X120087693Y-66803847D02*
X120087693Y-67041942D01*
X120087693Y-67041942D02*
X120040074Y-67137180D01*
X120040074Y-67137180D02*
X119992455Y-67184800D01*
X119992455Y-67184800D02*
X119897217Y-67232419D01*
X119897217Y-67232419D02*
X119659122Y-67232419D01*
X119659122Y-67232419D02*
X119563884Y-67184800D01*
X119563884Y-67184800D02*
X119516265Y-67137180D01*
X120373408Y-66232419D02*
X120706741Y-67232419D01*
X120706741Y-67232419D02*
X121040074Y-66232419D01*
X121135313Y-67327657D02*
X121897217Y-67327657D01*
X122135313Y-67232419D02*
X122135313Y-66232419D01*
X122611503Y-67232419D02*
X122611503Y-66232419D01*
X122611503Y-66232419D02*
X123182931Y-67232419D01*
X123182931Y-67232419D02*
X123182931Y-66232419D01*
D13*
X115969711Y-123774619D02*
X116541139Y-123774619D01*
X116255425Y-124774619D02*
X116255425Y-123774619D01*
X117064949Y-123774619D02*
X117255425Y-123774619D01*
X117255425Y-123774619D02*
X117350663Y-123822238D01*
X117350663Y-123822238D02*
X117445901Y-123917476D01*
X117445901Y-123917476D02*
X117493520Y-124107952D01*
X117493520Y-124107952D02*
X117493520Y-124441285D01*
X117493520Y-124441285D02*
X117445901Y-124631761D01*
X117445901Y-124631761D02*
X117350663Y-124727000D01*
X117350663Y-124727000D02*
X117255425Y-124774619D01*
X117255425Y-124774619D02*
X117064949Y-124774619D01*
X117064949Y-124774619D02*
X116969711Y-124727000D01*
X116969711Y-124727000D02*
X116874473Y-124631761D01*
X116874473Y-124631761D02*
X116826854Y-124441285D01*
X116826854Y-124441285D02*
X116826854Y-124107952D01*
X116826854Y-124107952D02*
X116874473Y-123917476D01*
X116874473Y-123917476D02*
X116969711Y-123822238D01*
X116969711Y-123822238D02*
X117064949Y-123774619D01*
X118255425Y-124250809D02*
X117922092Y-124250809D01*
X117922092Y-124774619D02*
X117922092Y-123774619D01*
X117922092Y-123774619D02*
X118398282Y-123774619D01*
X119493521Y-124727000D02*
X119636378Y-124774619D01*
X119636378Y-124774619D02*
X119874473Y-124774619D01*
X119874473Y-124774619D02*
X119969711Y-124727000D01*
X119969711Y-124727000D02*
X120017330Y-124679380D01*
X120017330Y-124679380D02*
X120064949Y-124584142D01*
X120064949Y-124584142D02*
X120064949Y-124488904D01*
X120064949Y-124488904D02*
X120017330Y-124393666D01*
X120017330Y-124393666D02*
X119969711Y-124346047D01*
X119969711Y-124346047D02*
X119874473Y-124298428D01*
X119874473Y-124298428D02*
X119683997Y-124250809D01*
X119683997Y-124250809D02*
X119588759Y-124203190D01*
X119588759Y-124203190D02*
X119541140Y-124155571D01*
X119541140Y-124155571D02*
X119493521Y-124060333D01*
X119493521Y-124060333D02*
X119493521Y-123965095D01*
X119493521Y-123965095D02*
X119541140Y-123869857D01*
X119541140Y-123869857D02*
X119588759Y-123822238D01*
X119588759Y-123822238D02*
X119683997Y-123774619D01*
X119683997Y-123774619D02*
X119922092Y-123774619D01*
X119922092Y-123774619D02*
X120064949Y-123822238D01*
X120874473Y-124727000D02*
X120779235Y-124774619D01*
X120779235Y-124774619D02*
X120588759Y-124774619D01*
X120588759Y-124774619D02*
X120493521Y-124727000D01*
X120493521Y-124727000D02*
X120445902Y-124631761D01*
X120445902Y-124631761D02*
X120445902Y-124250809D01*
X120445902Y-124250809D02*
X120493521Y-124155571D01*
X120493521Y-124155571D02*
X120588759Y-124107952D01*
X120588759Y-124107952D02*
X120779235Y-124107952D01*
X120779235Y-124107952D02*
X120874473Y-124155571D01*
X120874473Y-124155571D02*
X120922092Y-124250809D01*
X120922092Y-124250809D02*
X120922092Y-124346047D01*
X120922092Y-124346047D02*
X120445902Y-124441285D01*
X121350664Y-124107952D02*
X121350664Y-124774619D01*
X121350664Y-124203190D02*
X121398283Y-124155571D01*
X121398283Y-124155571D02*
X121493521Y-124107952D01*
X121493521Y-124107952D02*
X121636378Y-124107952D01*
X121636378Y-124107952D02*
X121731616Y-124155571D01*
X121731616Y-124155571D02*
X121779235Y-124250809D01*
X121779235Y-124250809D02*
X121779235Y-124774619D01*
X122207807Y-124727000D02*
X122303045Y-124774619D01*
X122303045Y-124774619D02*
X122493521Y-124774619D01*
X122493521Y-124774619D02*
X122588759Y-124727000D01*
X122588759Y-124727000D02*
X122636378Y-124631761D01*
X122636378Y-124631761D02*
X122636378Y-124584142D01*
X122636378Y-124584142D02*
X122588759Y-124488904D01*
X122588759Y-124488904D02*
X122493521Y-124441285D01*
X122493521Y-124441285D02*
X122350664Y-124441285D01*
X122350664Y-124441285D02*
X122255426Y-124393666D01*
X122255426Y-124393666D02*
X122207807Y-124298428D01*
X122207807Y-124298428D02*
X122207807Y-124250809D01*
X122207807Y-124250809D02*
X122255426Y-124155571D01*
X122255426Y-124155571D02*
X122350664Y-124107952D01*
X122350664Y-124107952D02*
X122493521Y-124107952D01*
X122493521Y-124107952D02*
X122588759Y-124155571D01*
X123207807Y-124774619D02*
X123112569Y-124727000D01*
X123112569Y-124727000D02*
X123064950Y-124679380D01*
X123064950Y-124679380D02*
X123017331Y-124584142D01*
X123017331Y-124584142D02*
X123017331Y-124298428D01*
X123017331Y-124298428D02*
X123064950Y-124203190D01*
X123064950Y-124203190D02*
X123112569Y-124155571D01*
X123112569Y-124155571D02*
X123207807Y-124107952D01*
X123207807Y-124107952D02*
X123350664Y-124107952D01*
X123350664Y-124107952D02*
X123445902Y-124155571D01*
X123445902Y-124155571D02*
X123493521Y-124203190D01*
X123493521Y-124203190D02*
X123541140Y-124298428D01*
X123541140Y-124298428D02*
X123541140Y-124584142D01*
X123541140Y-124584142D02*
X123493521Y-124679380D01*
X123493521Y-124679380D02*
X123445902Y-124727000D01*
X123445902Y-124727000D02*
X123350664Y-124774619D01*
X123350664Y-124774619D02*
X123207807Y-124774619D01*
X123969712Y-124774619D02*
X123969712Y-124107952D01*
X123969712Y-124298428D02*
X124017331Y-124203190D01*
X124017331Y-124203190D02*
X124064950Y-124155571D01*
X124064950Y-124155571D02*
X124160188Y-124107952D01*
X124160188Y-124107952D02*
X124255426Y-124107952D01*
X124541141Y-124727000D02*
X124636379Y-124774619D01*
X124636379Y-124774619D02*
X124826855Y-124774619D01*
X124826855Y-124774619D02*
X124922093Y-124727000D01*
X124922093Y-124727000D02*
X124969712Y-124631761D01*
X124969712Y-124631761D02*
X124969712Y-124584142D01*
X124969712Y-124584142D02*
X124922093Y-124488904D01*
X124922093Y-124488904D02*
X124826855Y-124441285D01*
X124826855Y-124441285D02*
X124683998Y-124441285D01*
X124683998Y-124441285D02*
X124588760Y-124393666D01*
X124588760Y-124393666D02*
X124541141Y-124298428D01*
X124541141Y-124298428D02*
X124541141Y-124250809D01*
X124541141Y-124250809D02*
X124588760Y-124155571D01*
X124588760Y-124155571D02*
X124683998Y-124107952D01*
X124683998Y-124107952D02*
X124826855Y-124107952D01*
X124826855Y-124107952D02*
X124922093Y-124155571D01*
D10*
X110160000Y-123200000D02*
X132420000Y-123200000D01*
X132420000Y-154930000D01*
X110160000Y-154930000D01*
X110160000Y-123200000D01*
D13*
X107954619Y-107037431D02*
X107287952Y-107037431D01*
X107383190Y-107037431D02*
X107335571Y-106989812D01*
X107335571Y-106989812D02*
X107287952Y-106894574D01*
X107287952Y-106894574D02*
X107287952Y-106751717D01*
X107287952Y-106751717D02*
X107335571Y-106656479D01*
X107335571Y-106656479D02*
X107430809Y-106608860D01*
X107430809Y-106608860D02*
X107954619Y-106608860D01*
X107430809Y-106608860D02*
X107335571Y-106561241D01*
X107335571Y-106561241D02*
X107287952Y-106466003D01*
X107287952Y-106466003D02*
X107287952Y-106323146D01*
X107287952Y-106323146D02*
X107335571Y-106227907D01*
X107335571Y-106227907D02*
X107430809Y-106180288D01*
X107430809Y-106180288D02*
X107954619Y-106180288D01*
X107954619Y-105561241D02*
X107907000Y-105656479D01*
X107907000Y-105656479D02*
X107859380Y-105704098D01*
X107859380Y-105704098D02*
X107764142Y-105751717D01*
X107764142Y-105751717D02*
X107478428Y-105751717D01*
X107478428Y-105751717D02*
X107383190Y-105704098D01*
X107383190Y-105704098D02*
X107335571Y-105656479D01*
X107335571Y-105656479D02*
X107287952Y-105561241D01*
X107287952Y-105561241D02*
X107287952Y-105418384D01*
X107287952Y-105418384D02*
X107335571Y-105323146D01*
X107335571Y-105323146D02*
X107383190Y-105275527D01*
X107383190Y-105275527D02*
X107478428Y-105227908D01*
X107478428Y-105227908D02*
X107764142Y-105227908D01*
X107764142Y-105227908D02*
X107859380Y-105275527D01*
X107859380Y-105275527D02*
X107907000Y-105323146D01*
X107907000Y-105323146D02*
X107954619Y-105418384D01*
X107954619Y-105418384D02*
X107954619Y-105561241D01*
X107287952Y-104942193D02*
X107287952Y-104561241D01*
X106954619Y-104799336D02*
X107811761Y-104799336D01*
X107811761Y-104799336D02*
X107907000Y-104751717D01*
X107907000Y-104751717D02*
X107954619Y-104656479D01*
X107954619Y-104656479D02*
X107954619Y-104561241D01*
X107954619Y-104085050D02*
X107907000Y-104180288D01*
X107907000Y-104180288D02*
X107859380Y-104227907D01*
X107859380Y-104227907D02*
X107764142Y-104275526D01*
X107764142Y-104275526D02*
X107478428Y-104275526D01*
X107478428Y-104275526D02*
X107383190Y-104227907D01*
X107383190Y-104227907D02*
X107335571Y-104180288D01*
X107335571Y-104180288D02*
X107287952Y-104085050D01*
X107287952Y-104085050D02*
X107287952Y-103942193D01*
X107287952Y-103942193D02*
X107335571Y-103846955D01*
X107335571Y-103846955D02*
X107383190Y-103799336D01*
X107383190Y-103799336D02*
X107478428Y-103751717D01*
X107478428Y-103751717D02*
X107764142Y-103751717D01*
X107764142Y-103751717D02*
X107859380Y-103799336D01*
X107859380Y-103799336D02*
X107907000Y-103846955D01*
X107907000Y-103846955D02*
X107954619Y-103942193D01*
X107954619Y-103942193D02*
X107954619Y-104085050D01*
X107954619Y-103323145D02*
X107287952Y-103323145D01*
X107478428Y-103323145D02*
X107383190Y-103275526D01*
X107383190Y-103275526D02*
X107335571Y-103227907D01*
X107335571Y-103227907D02*
X107287952Y-103132669D01*
X107287952Y-103132669D02*
X107287952Y-103037431D01*
X107287952Y-102085049D02*
X107287952Y-101704097D01*
X106954619Y-101942192D02*
X107811761Y-101942192D01*
X107811761Y-101942192D02*
X107907000Y-101894573D01*
X107907000Y-101894573D02*
X107954619Y-101799335D01*
X107954619Y-101799335D02*
X107954619Y-101704097D01*
X107907000Y-100989811D02*
X107954619Y-101085049D01*
X107954619Y-101085049D02*
X107954619Y-101275525D01*
X107954619Y-101275525D02*
X107907000Y-101370763D01*
X107907000Y-101370763D02*
X107811761Y-101418382D01*
X107811761Y-101418382D02*
X107430809Y-101418382D01*
X107430809Y-101418382D02*
X107335571Y-101370763D01*
X107335571Y-101370763D02*
X107287952Y-101275525D01*
X107287952Y-101275525D02*
X107287952Y-101085049D01*
X107287952Y-101085049D02*
X107335571Y-100989811D01*
X107335571Y-100989811D02*
X107430809Y-100942192D01*
X107430809Y-100942192D02*
X107526047Y-100942192D01*
X107526047Y-100942192D02*
X107621285Y-101418382D01*
X107954619Y-100513620D02*
X107287952Y-100513620D01*
X107478428Y-100513620D02*
X107383190Y-100466001D01*
X107383190Y-100466001D02*
X107335571Y-100418382D01*
X107335571Y-100418382D02*
X107287952Y-100323144D01*
X107287952Y-100323144D02*
X107287952Y-100227906D01*
X107954619Y-99894572D02*
X107287952Y-99894572D01*
X107383190Y-99894572D02*
X107335571Y-99846953D01*
X107335571Y-99846953D02*
X107287952Y-99751715D01*
X107287952Y-99751715D02*
X107287952Y-99608858D01*
X107287952Y-99608858D02*
X107335571Y-99513620D01*
X107335571Y-99513620D02*
X107430809Y-99466001D01*
X107430809Y-99466001D02*
X107954619Y-99466001D01*
X107430809Y-99466001D02*
X107335571Y-99418382D01*
X107335571Y-99418382D02*
X107287952Y-99323144D01*
X107287952Y-99323144D02*
X107287952Y-99180287D01*
X107287952Y-99180287D02*
X107335571Y-99085048D01*
X107335571Y-99085048D02*
X107430809Y-99037429D01*
X107430809Y-99037429D02*
X107954619Y-99037429D01*
X107954619Y-98561239D02*
X107287952Y-98561239D01*
X106954619Y-98561239D02*
X107002238Y-98608858D01*
X107002238Y-98608858D02*
X107049857Y-98561239D01*
X107049857Y-98561239D02*
X107002238Y-98513620D01*
X107002238Y-98513620D02*
X106954619Y-98561239D01*
X106954619Y-98561239D02*
X107049857Y-98561239D01*
X107287952Y-98085049D02*
X107954619Y-98085049D01*
X107383190Y-98085049D02*
X107335571Y-98037430D01*
X107335571Y-98037430D02*
X107287952Y-97942192D01*
X107287952Y-97942192D02*
X107287952Y-97799335D01*
X107287952Y-97799335D02*
X107335571Y-97704097D01*
X107335571Y-97704097D02*
X107430809Y-97656478D01*
X107430809Y-97656478D02*
X107954619Y-97656478D01*
X107954619Y-96751716D02*
X107430809Y-96751716D01*
X107430809Y-96751716D02*
X107335571Y-96799335D01*
X107335571Y-96799335D02*
X107287952Y-96894573D01*
X107287952Y-96894573D02*
X107287952Y-97085049D01*
X107287952Y-97085049D02*
X107335571Y-97180287D01*
X107907000Y-96751716D02*
X107954619Y-96846954D01*
X107954619Y-96846954D02*
X107954619Y-97085049D01*
X107954619Y-97085049D02*
X107907000Y-97180287D01*
X107907000Y-97180287D02*
X107811761Y-97227906D01*
X107811761Y-97227906D02*
X107716523Y-97227906D01*
X107716523Y-97227906D02*
X107621285Y-97180287D01*
X107621285Y-97180287D02*
X107573666Y-97085049D01*
X107573666Y-97085049D02*
X107573666Y-96846954D01*
X107573666Y-96846954D02*
X107526047Y-96751716D01*
X107954619Y-96132668D02*
X107907000Y-96227906D01*
X107907000Y-96227906D02*
X107811761Y-96275525D01*
X107811761Y-96275525D02*
X106954619Y-96275525D01*
X107907000Y-95799334D02*
X107954619Y-95704096D01*
X107954619Y-95704096D02*
X107954619Y-95513620D01*
X107954619Y-95513620D02*
X107907000Y-95418382D01*
X107907000Y-95418382D02*
X107811761Y-95370763D01*
X107811761Y-95370763D02*
X107764142Y-95370763D01*
X107764142Y-95370763D02*
X107668904Y-95418382D01*
X107668904Y-95418382D02*
X107621285Y-95513620D01*
X107621285Y-95513620D02*
X107621285Y-95656477D01*
X107621285Y-95656477D02*
X107573666Y-95751715D01*
X107573666Y-95751715D02*
X107478428Y-95799334D01*
X107478428Y-95799334D02*
X107430809Y-95799334D01*
X107430809Y-95799334D02*
X107335571Y-95751715D01*
X107335571Y-95751715D02*
X107287952Y-95656477D01*
X107287952Y-95656477D02*
X107287952Y-95513620D01*
X107287952Y-95513620D02*
X107335571Y-95418382D01*
X178042568Y-132750809D02*
X178375901Y-132750809D01*
X178518758Y-133274619D02*
X178042568Y-133274619D01*
X178042568Y-133274619D02*
X178042568Y-132274619D01*
X178042568Y-132274619D02*
X178518758Y-132274619D01*
X178947330Y-132607952D02*
X178947330Y-133274619D01*
X178947330Y-132703190D02*
X178994949Y-132655571D01*
X178994949Y-132655571D02*
X179090187Y-132607952D01*
X179090187Y-132607952D02*
X179233044Y-132607952D01*
X179233044Y-132607952D02*
X179328282Y-132655571D01*
X179328282Y-132655571D02*
X179375901Y-132750809D01*
X179375901Y-132750809D02*
X179375901Y-133274619D01*
X180280663Y-133227000D02*
X180185425Y-133274619D01*
X180185425Y-133274619D02*
X179994949Y-133274619D01*
X179994949Y-133274619D02*
X179899711Y-133227000D01*
X179899711Y-133227000D02*
X179852092Y-133179380D01*
X179852092Y-133179380D02*
X179804473Y-133084142D01*
X179804473Y-133084142D02*
X179804473Y-132798428D01*
X179804473Y-132798428D02*
X179852092Y-132703190D01*
X179852092Y-132703190D02*
X179899711Y-132655571D01*
X179899711Y-132655571D02*
X179994949Y-132607952D01*
X179994949Y-132607952D02*
X180185425Y-132607952D01*
X180185425Y-132607952D02*
X180280663Y-132655571D01*
X180852092Y-133274619D02*
X180756854Y-133227000D01*
X180756854Y-133227000D02*
X180709235Y-133179380D01*
X180709235Y-133179380D02*
X180661616Y-133084142D01*
X180661616Y-133084142D02*
X180661616Y-132798428D01*
X180661616Y-132798428D02*
X180709235Y-132703190D01*
X180709235Y-132703190D02*
X180756854Y-132655571D01*
X180756854Y-132655571D02*
X180852092Y-132607952D01*
X180852092Y-132607952D02*
X180994949Y-132607952D01*
X180994949Y-132607952D02*
X181090187Y-132655571D01*
X181090187Y-132655571D02*
X181137806Y-132703190D01*
X181137806Y-132703190D02*
X181185425Y-132798428D01*
X181185425Y-132798428D02*
X181185425Y-133084142D01*
X181185425Y-133084142D02*
X181137806Y-133179380D01*
X181137806Y-133179380D02*
X181090187Y-133227000D01*
X181090187Y-133227000D02*
X180994949Y-133274619D01*
X180994949Y-133274619D02*
X180852092Y-133274619D01*
X182042568Y-133274619D02*
X182042568Y-132274619D01*
X182042568Y-133227000D02*
X181947330Y-133274619D01*
X181947330Y-133274619D02*
X181756854Y-133274619D01*
X181756854Y-133274619D02*
X181661616Y-133227000D01*
X181661616Y-133227000D02*
X181613997Y-133179380D01*
X181613997Y-133179380D02*
X181566378Y-133084142D01*
X181566378Y-133084142D02*
X181566378Y-132798428D01*
X181566378Y-132798428D02*
X181613997Y-132703190D01*
X181613997Y-132703190D02*
X181661616Y-132655571D01*
X181661616Y-132655571D02*
X181756854Y-132607952D01*
X181756854Y-132607952D02*
X181947330Y-132607952D01*
X181947330Y-132607952D02*
X182042568Y-132655571D01*
X182899711Y-133227000D02*
X182804473Y-133274619D01*
X182804473Y-133274619D02*
X182613997Y-133274619D01*
X182613997Y-133274619D02*
X182518759Y-133227000D01*
X182518759Y-133227000D02*
X182471140Y-133131761D01*
X182471140Y-133131761D02*
X182471140Y-132750809D01*
X182471140Y-132750809D02*
X182518759Y-132655571D01*
X182518759Y-132655571D02*
X182613997Y-132607952D01*
X182613997Y-132607952D02*
X182804473Y-132607952D01*
X182804473Y-132607952D02*
X182899711Y-132655571D01*
X182899711Y-132655571D02*
X182947330Y-132750809D01*
X182947330Y-132750809D02*
X182947330Y-132846047D01*
X182947330Y-132846047D02*
X182471140Y-132941285D01*
X183375902Y-133274619D02*
X183375902Y-132607952D01*
X183375902Y-132798428D02*
X183423521Y-132703190D01*
X183423521Y-132703190D02*
X183471140Y-132655571D01*
X183471140Y-132655571D02*
X183566378Y-132607952D01*
X183566378Y-132607952D02*
X183661616Y-132607952D01*
D10*
X171280000Y-103600000D02*
X190360000Y-103600000D01*
X190360000Y-133960000D01*
X171280000Y-133960000D01*
X171280000Y-103600000D01*
X128818884Y-100761466D02*
X129580789Y-100761466D01*
X130818884Y-100761466D02*
X131580789Y-100761466D01*
X131199836Y-101142419D02*
X131199836Y-100380514D01*
X126232419Y-121196115D02*
X125232419Y-121196115D01*
X125232419Y-121196115D02*
X125946704Y-120862782D01*
X125946704Y-120862782D02*
X125232419Y-120529449D01*
X125232419Y-120529449D02*
X126232419Y-120529449D01*
X125565752Y-119624687D02*
X126232419Y-119624687D01*
X125184800Y-119862782D02*
X125899085Y-120100877D01*
X125899085Y-120100877D02*
X125899085Y-119481830D01*
D13*
X127532568Y-63044619D02*
X127532568Y-62044619D01*
X127532568Y-62044619D02*
X127913520Y-62044619D01*
X127913520Y-62044619D02*
X128008758Y-62092238D01*
X128008758Y-62092238D02*
X128056377Y-62139857D01*
X128056377Y-62139857D02*
X128103996Y-62235095D01*
X128103996Y-62235095D02*
X128103996Y-62377952D01*
X128103996Y-62377952D02*
X128056377Y-62473190D01*
X128056377Y-62473190D02*
X128008758Y-62520809D01*
X128008758Y-62520809D02*
X127913520Y-62568428D01*
X127913520Y-62568428D02*
X127532568Y-62568428D01*
X128723044Y-62044619D02*
X128913520Y-62044619D01*
X128913520Y-62044619D02*
X129008758Y-62092238D01*
X129008758Y-62092238D02*
X129103996Y-62187476D01*
X129103996Y-62187476D02*
X129151615Y-62377952D01*
X129151615Y-62377952D02*
X129151615Y-62711285D01*
X129151615Y-62711285D02*
X129103996Y-62901761D01*
X129103996Y-62901761D02*
X129008758Y-62997000D01*
X129008758Y-62997000D02*
X128913520Y-63044619D01*
X128913520Y-63044619D02*
X128723044Y-63044619D01*
X128723044Y-63044619D02*
X128627806Y-62997000D01*
X128627806Y-62997000D02*
X128532568Y-62901761D01*
X128532568Y-62901761D02*
X128484949Y-62711285D01*
X128484949Y-62711285D02*
X128484949Y-62377952D01*
X128484949Y-62377952D02*
X128532568Y-62187476D01*
X128532568Y-62187476D02*
X128627806Y-62092238D01*
X128627806Y-62092238D02*
X128723044Y-62044619D01*
X129484949Y-62044619D02*
X129723044Y-63044619D01*
X129723044Y-63044619D02*
X129913520Y-62330333D01*
X129913520Y-62330333D02*
X130103996Y-63044619D01*
X130103996Y-63044619D02*
X130342092Y-62044619D01*
X130723044Y-62520809D02*
X131056377Y-62520809D01*
X131199234Y-63044619D02*
X130723044Y-63044619D01*
X130723044Y-63044619D02*
X130723044Y-62044619D01*
X130723044Y-62044619D02*
X131199234Y-62044619D01*
X132199234Y-63044619D02*
X131865901Y-62568428D01*
X131627806Y-63044619D02*
X131627806Y-62044619D01*
X131627806Y-62044619D02*
X132008758Y-62044619D01*
X132008758Y-62044619D02*
X132103996Y-62092238D01*
X132103996Y-62092238D02*
X132151615Y-62139857D01*
X132151615Y-62139857D02*
X132199234Y-62235095D01*
X132199234Y-62235095D02*
X132199234Y-62377952D01*
X132199234Y-62377952D02*
X132151615Y-62473190D01*
X132151615Y-62473190D02*
X132103996Y-62520809D01*
X132103996Y-62520809D02*
X132008758Y-62568428D01*
X132008758Y-62568428D02*
X131627806Y-62568428D01*
D10*
X142348609Y-96362782D02*
X142396228Y-96219925D01*
X142396228Y-96219925D02*
X142443847Y-96172306D01*
X142443847Y-96172306D02*
X142539085Y-96124687D01*
X142539085Y-96124687D02*
X142681942Y-96124687D01*
X142681942Y-96124687D02*
X142777180Y-96172306D01*
X142777180Y-96172306D02*
X142824800Y-96219925D01*
X142824800Y-96219925D02*
X142872419Y-96315163D01*
X142872419Y-96315163D02*
X142872419Y-96696115D01*
X142872419Y-96696115D02*
X141872419Y-96696115D01*
X141872419Y-96696115D02*
X141872419Y-96362782D01*
X141872419Y-96362782D02*
X141920038Y-96267544D01*
X141920038Y-96267544D02*
X141967657Y-96219925D01*
X141967657Y-96219925D02*
X142062895Y-96172306D01*
X142062895Y-96172306D02*
X142158133Y-96172306D01*
X142158133Y-96172306D02*
X142253371Y-96219925D01*
X142253371Y-96219925D02*
X142300990Y-96267544D01*
X142300990Y-96267544D02*
X142348609Y-96362782D01*
X142348609Y-96362782D02*
X142348609Y-96696115D01*
X142872419Y-95124687D02*
X142396228Y-95458020D01*
X142872419Y-95696115D02*
X141872419Y-95696115D01*
X141872419Y-95696115D02*
X141872419Y-95315163D01*
X141872419Y-95315163D02*
X141920038Y-95219925D01*
X141920038Y-95219925D02*
X141967657Y-95172306D01*
X141967657Y-95172306D02*
X142062895Y-95124687D01*
X142062895Y-95124687D02*
X142205752Y-95124687D01*
X142205752Y-95124687D02*
X142300990Y-95172306D01*
X142300990Y-95172306D02*
X142348609Y-95219925D01*
X142348609Y-95219925D02*
X142396228Y-95315163D01*
X142396228Y-95315163D02*
X142396228Y-95696115D01*
X142872419Y-94696115D02*
X141872419Y-94696115D01*
X142872419Y-94124687D02*
X142300990Y-94553258D01*
X141872419Y-94124687D02*
X142443847Y-94696115D01*
X142967657Y-93934211D02*
X142967657Y-93172306D01*
X142824800Y-92981829D02*
X142872419Y-92838972D01*
X142872419Y-92838972D02*
X142872419Y-92600877D01*
X142872419Y-92600877D02*
X142824800Y-92505639D01*
X142824800Y-92505639D02*
X142777180Y-92458020D01*
X142777180Y-92458020D02*
X142681942Y-92410401D01*
X142681942Y-92410401D02*
X142586704Y-92410401D01*
X142586704Y-92410401D02*
X142491466Y-92458020D01*
X142491466Y-92458020D02*
X142443847Y-92505639D01*
X142443847Y-92505639D02*
X142396228Y-92600877D01*
X142396228Y-92600877D02*
X142348609Y-92791353D01*
X142348609Y-92791353D02*
X142300990Y-92886591D01*
X142300990Y-92886591D02*
X142253371Y-92934210D01*
X142253371Y-92934210D02*
X142158133Y-92981829D01*
X142158133Y-92981829D02*
X142062895Y-92981829D01*
X142062895Y-92981829D02*
X141967657Y-92934210D01*
X141967657Y-92934210D02*
X141920038Y-92886591D01*
X141920038Y-92886591D02*
X141872419Y-92791353D01*
X141872419Y-92791353D02*
X141872419Y-92553258D01*
X141872419Y-92553258D02*
X141920038Y-92410401D01*
X141872419Y-92077067D02*
X142872419Y-91838972D01*
X142872419Y-91838972D02*
X142158133Y-91648496D01*
X142158133Y-91648496D02*
X142872419Y-91458020D01*
X142872419Y-91458020D02*
X141872419Y-91219925D01*
D13*
X117782568Y-77584619D02*
X117782568Y-76584619D01*
X117782568Y-76584619D02*
X118115901Y-77298904D01*
X118115901Y-77298904D02*
X118449234Y-76584619D01*
X118449234Y-76584619D02*
X118449234Y-77584619D01*
X118687330Y-77679857D02*
X119449234Y-77679857D01*
X119687330Y-77584619D02*
X119687330Y-76584619D01*
X119687330Y-76584619D02*
X119925425Y-76584619D01*
X119925425Y-76584619D02*
X120068282Y-76632238D01*
X120068282Y-76632238D02*
X120163520Y-76727476D01*
X120163520Y-76727476D02*
X120211139Y-76822714D01*
X120211139Y-76822714D02*
X120258758Y-77013190D01*
X120258758Y-77013190D02*
X120258758Y-77156047D01*
X120258758Y-77156047D02*
X120211139Y-77346523D01*
X120211139Y-77346523D02*
X120163520Y-77441761D01*
X120163520Y-77441761D02*
X120068282Y-77537000D01*
X120068282Y-77537000D02*
X119925425Y-77584619D01*
X119925425Y-77584619D02*
X119687330Y-77584619D01*
X121258758Y-77584619D02*
X120925425Y-77108428D01*
X120687330Y-77584619D02*
X120687330Y-76584619D01*
X120687330Y-76584619D02*
X121068282Y-76584619D01*
X121068282Y-76584619D02*
X121163520Y-76632238D01*
X121163520Y-76632238D02*
X121211139Y-76679857D01*
X121211139Y-76679857D02*
X121258758Y-76775095D01*
X121258758Y-76775095D02*
X121258758Y-76917952D01*
X121258758Y-76917952D02*
X121211139Y-77013190D01*
X121211139Y-77013190D02*
X121163520Y-77060809D01*
X121163520Y-77060809D02*
X121068282Y-77108428D01*
X121068282Y-77108428D02*
X120687330Y-77108428D01*
X121687330Y-77584619D02*
X121687330Y-76584619D01*
X122020663Y-76584619D02*
X122353996Y-77584619D01*
X122353996Y-77584619D02*
X122687329Y-76584619D01*
X123020663Y-77060809D02*
X123353996Y-77060809D01*
X123496853Y-77584619D02*
X123020663Y-77584619D01*
X123020663Y-77584619D02*
X123020663Y-76584619D01*
X123020663Y-76584619D02*
X123496853Y-76584619D01*
X124496853Y-77584619D02*
X124163520Y-77108428D01*
X123925425Y-77584619D02*
X123925425Y-76584619D01*
X123925425Y-76584619D02*
X124306377Y-76584619D01*
X124306377Y-76584619D02*
X124401615Y-76632238D01*
X124401615Y-76632238D02*
X124449234Y-76679857D01*
X124449234Y-76679857D02*
X124496853Y-76775095D01*
X124496853Y-76775095D02*
X124496853Y-76917952D01*
X124496853Y-76917952D02*
X124449234Y-77013190D01*
X124449234Y-77013190D02*
X124401615Y-77060809D01*
X124401615Y-77060809D02*
X124306377Y-77108428D01*
X124306377Y-77108428D02*
X123925425Y-77108428D01*
X125449234Y-77584619D02*
X124877806Y-77584619D01*
X125163520Y-77584619D02*
X125163520Y-76584619D01*
X125163520Y-76584619D02*
X125068282Y-76727476D01*
X125068282Y-76727476D02*
X124973044Y-76822714D01*
X124973044Y-76822714D02*
X124877806Y-76870333D01*
D10*
X116140000Y-61040000D02*
X143440000Y-61040000D01*
X143440000Y-75410000D01*
X116140000Y-75410000D01*
X116140000Y-61040000D01*
X128167693Y-67192419D02*
X127596265Y-67192419D01*
X127881979Y-67192419D02*
X127881979Y-66192419D01*
X127881979Y-66192419D02*
X127786741Y-66335276D01*
X127786741Y-66335276D02*
X127691503Y-66430514D01*
X127691503Y-66430514D02*
X127596265Y-66478133D01*
X128548646Y-66287657D02*
X128596265Y-66240038D01*
X128596265Y-66240038D02*
X128691503Y-66192419D01*
X128691503Y-66192419D02*
X128929598Y-66192419D01*
X128929598Y-66192419D02*
X129024836Y-66240038D01*
X129024836Y-66240038D02*
X129072455Y-66287657D01*
X129072455Y-66287657D02*
X129120074Y-66382895D01*
X129120074Y-66382895D02*
X129120074Y-66478133D01*
X129120074Y-66478133D02*
X129072455Y-66620990D01*
X129072455Y-66620990D02*
X128501027Y-67192419D01*
X128501027Y-67192419D02*
X129120074Y-67192419D01*
X129405789Y-66192419D02*
X129739122Y-67192419D01*
X129739122Y-67192419D02*
X130072455Y-66192419D01*
X130167694Y-67287657D02*
X130929598Y-67287657D01*
X131167694Y-67192419D02*
X131167694Y-66192419D01*
X131643884Y-67192419D02*
X131643884Y-66192419D01*
X131643884Y-66192419D02*
X132215312Y-67192419D01*
X132215312Y-67192419D02*
X132215312Y-66192419D01*
X109622419Y-113636115D02*
X108622419Y-113636115D01*
X108622419Y-113636115D02*
X109336704Y-113302782D01*
X109336704Y-113302782D02*
X108622419Y-112969449D01*
X108622419Y-112969449D02*
X109622419Y-112969449D01*
X108955752Y-112064687D02*
X109622419Y-112064687D01*
X108574800Y-112302782D02*
X109289085Y-112540877D01*
X109289085Y-112540877D02*
X109289085Y-111921830D01*
X109622419Y-105136115D02*
X108622419Y-105136115D01*
X108622419Y-105136115D02*
X109336704Y-104802782D01*
X109336704Y-104802782D02*
X108622419Y-104469449D01*
X108622419Y-104469449D02*
X109622419Y-104469449D01*
X108622419Y-104088496D02*
X108622419Y-103469449D01*
X108622419Y-103469449D02*
X109003371Y-103802782D01*
X109003371Y-103802782D02*
X109003371Y-103659925D01*
X109003371Y-103659925D02*
X109050990Y-103564687D01*
X109050990Y-103564687D02*
X109098609Y-103517068D01*
X109098609Y-103517068D02*
X109193847Y-103469449D01*
X109193847Y-103469449D02*
X109431942Y-103469449D01*
X109431942Y-103469449D02*
X109527180Y-103517068D01*
X109527180Y-103517068D02*
X109574800Y-103564687D01*
X109574800Y-103564687D02*
X109622419Y-103659925D01*
X109622419Y-103659925D02*
X109622419Y-103945639D01*
X109622419Y-103945639D02*
X109574800Y-104040877D01*
X109574800Y-104040877D02*
X109527180Y-104088496D01*
X109622419Y-96636115D02*
X108622419Y-96636115D01*
X108622419Y-96636115D02*
X109336704Y-96302782D01*
X109336704Y-96302782D02*
X108622419Y-95969449D01*
X108622419Y-95969449D02*
X109622419Y-95969449D01*
X108717657Y-95540877D02*
X108670038Y-95493258D01*
X108670038Y-95493258D02*
X108622419Y-95398020D01*
X108622419Y-95398020D02*
X108622419Y-95159925D01*
X108622419Y-95159925D02*
X108670038Y-95064687D01*
X108670038Y-95064687D02*
X108717657Y-95017068D01*
X108717657Y-95017068D02*
X108812895Y-94969449D01*
X108812895Y-94969449D02*
X108908133Y-94969449D01*
X108908133Y-94969449D02*
X109050990Y-95017068D01*
X109050990Y-95017068D02*
X109622419Y-95588496D01*
X109622419Y-95588496D02*
X109622419Y-94969449D01*
D13*
X149185901Y-140740809D02*
X149328758Y-140788428D01*
X149328758Y-140788428D02*
X149376377Y-140836047D01*
X149376377Y-140836047D02*
X149423996Y-140931285D01*
X149423996Y-140931285D02*
X149423996Y-141074142D01*
X149423996Y-141074142D02*
X149376377Y-141169380D01*
X149376377Y-141169380D02*
X149328758Y-141217000D01*
X149328758Y-141217000D02*
X149233520Y-141264619D01*
X149233520Y-141264619D02*
X148852568Y-141264619D01*
X148852568Y-141264619D02*
X148852568Y-140264619D01*
X148852568Y-140264619D02*
X149185901Y-140264619D01*
X149185901Y-140264619D02*
X149281139Y-140312238D01*
X149281139Y-140312238D02*
X149328758Y-140359857D01*
X149328758Y-140359857D02*
X149376377Y-140455095D01*
X149376377Y-140455095D02*
X149376377Y-140550333D01*
X149376377Y-140550333D02*
X149328758Y-140645571D01*
X149328758Y-140645571D02*
X149281139Y-140693190D01*
X149281139Y-140693190D02*
X149185901Y-140740809D01*
X149185901Y-140740809D02*
X148852568Y-140740809D01*
X149852568Y-140264619D02*
X149852568Y-141074142D01*
X149852568Y-141074142D02*
X149900187Y-141169380D01*
X149900187Y-141169380D02*
X149947806Y-141217000D01*
X149947806Y-141217000D02*
X150043044Y-141264619D01*
X150043044Y-141264619D02*
X150233520Y-141264619D01*
X150233520Y-141264619D02*
X150328758Y-141217000D01*
X150328758Y-141217000D02*
X150376377Y-141169380D01*
X150376377Y-141169380D02*
X150423996Y-141074142D01*
X150423996Y-141074142D02*
X150423996Y-140264619D01*
X150804949Y-140264619D02*
X151471615Y-140264619D01*
X151471615Y-140264619D02*
X150804949Y-141264619D01*
X150804949Y-141264619D02*
X151471615Y-141264619D01*
X151757330Y-140264619D02*
X152423996Y-140264619D01*
X152423996Y-140264619D02*
X151757330Y-141264619D01*
X151757330Y-141264619D02*
X152423996Y-141264619D01*
X152804949Y-140740809D02*
X153138282Y-140740809D01*
X153281139Y-141264619D02*
X152804949Y-141264619D01*
X152804949Y-141264619D02*
X152804949Y-140264619D01*
X152804949Y-140264619D02*
X153281139Y-140264619D01*
X154281139Y-141264619D02*
X153947806Y-140788428D01*
X153709711Y-141264619D02*
X153709711Y-140264619D01*
X153709711Y-140264619D02*
X154090663Y-140264619D01*
X154090663Y-140264619D02*
X154185901Y-140312238D01*
X154185901Y-140312238D02*
X154233520Y-140359857D01*
X154233520Y-140359857D02*
X154281139Y-140455095D01*
X154281139Y-140455095D02*
X154281139Y-140597952D01*
X154281139Y-140597952D02*
X154233520Y-140693190D01*
X154233520Y-140693190D02*
X154185901Y-140740809D01*
X154185901Y-140740809D02*
X154090663Y-140788428D01*
X154090663Y-140788428D02*
X153709711Y-140788428D01*
X154471616Y-141359857D02*
X155233520Y-141359857D01*
X155471616Y-141264619D02*
X155471616Y-140264619D01*
X155471616Y-140264619D02*
X155709711Y-140264619D01*
X155709711Y-140264619D02*
X155852568Y-140312238D01*
X155852568Y-140312238D02*
X155947806Y-140407476D01*
X155947806Y-140407476D02*
X155995425Y-140502714D01*
X155995425Y-140502714D02*
X156043044Y-140693190D01*
X156043044Y-140693190D02*
X156043044Y-140836047D01*
X156043044Y-140836047D02*
X155995425Y-141026523D01*
X155995425Y-141026523D02*
X155947806Y-141121761D01*
X155947806Y-141121761D02*
X155852568Y-141217000D01*
X155852568Y-141217000D02*
X155709711Y-141264619D01*
X155709711Y-141264619D02*
X155471616Y-141264619D01*
X156804949Y-140740809D02*
X156947806Y-140788428D01*
X156947806Y-140788428D02*
X156995425Y-140836047D01*
X156995425Y-140836047D02*
X157043044Y-140931285D01*
X157043044Y-140931285D02*
X157043044Y-141074142D01*
X157043044Y-141074142D02*
X156995425Y-141169380D01*
X156995425Y-141169380D02*
X156947806Y-141217000D01*
X156947806Y-141217000D02*
X156852568Y-141264619D01*
X156852568Y-141264619D02*
X156471616Y-141264619D01*
X156471616Y-141264619D02*
X156471616Y-140264619D01*
X156471616Y-140264619D02*
X156804949Y-140264619D01*
X156804949Y-140264619D02*
X156900187Y-140312238D01*
X156900187Y-140312238D02*
X156947806Y-140359857D01*
X156947806Y-140359857D02*
X156995425Y-140455095D01*
X156995425Y-140455095D02*
X156995425Y-140550333D01*
X156995425Y-140550333D02*
X156947806Y-140645571D01*
X156947806Y-140645571D02*
X156900187Y-140693190D01*
X156900187Y-140693190D02*
X156804949Y-140740809D01*
X156804949Y-140740809D02*
X156471616Y-140740809D01*
X157995425Y-140312238D02*
X157900187Y-140264619D01*
X157900187Y-140264619D02*
X157757330Y-140264619D01*
X157757330Y-140264619D02*
X157614473Y-140312238D01*
X157614473Y-140312238D02*
X157519235Y-140407476D01*
X157519235Y-140407476D02*
X157471616Y-140502714D01*
X157471616Y-140502714D02*
X157423997Y-140693190D01*
X157423997Y-140693190D02*
X157423997Y-140836047D01*
X157423997Y-140836047D02*
X157471616Y-141026523D01*
X157471616Y-141026523D02*
X157519235Y-141121761D01*
X157519235Y-141121761D02*
X157614473Y-141217000D01*
X157614473Y-141217000D02*
X157757330Y-141264619D01*
X157757330Y-141264619D02*
X157852568Y-141264619D01*
X157852568Y-141264619D02*
X157995425Y-141217000D01*
X157995425Y-141217000D02*
X158043044Y-141169380D01*
X158043044Y-141169380D02*
X158043044Y-140836047D01*
X158043044Y-140836047D02*
X157852568Y-140836047D01*
D10*
X134723884Y-67162419D02*
X134723884Y-66162419D01*
X134723884Y-66162419D02*
X135104836Y-66162419D01*
X135104836Y-66162419D02*
X135200074Y-66210038D01*
X135200074Y-66210038D02*
X135247693Y-66257657D01*
X135247693Y-66257657D02*
X135295312Y-66352895D01*
X135295312Y-66352895D02*
X135295312Y-66495752D01*
X135295312Y-66495752D02*
X135247693Y-66590990D01*
X135247693Y-66590990D02*
X135200074Y-66638609D01*
X135200074Y-66638609D02*
X135104836Y-66686228D01*
X135104836Y-66686228D02*
X134723884Y-66686228D01*
X135914360Y-66162419D02*
X136104836Y-66162419D01*
X136104836Y-66162419D02*
X136200074Y-66210038D01*
X136200074Y-66210038D02*
X136295312Y-66305276D01*
X136295312Y-66305276D02*
X136342931Y-66495752D01*
X136342931Y-66495752D02*
X136342931Y-66829085D01*
X136342931Y-66829085D02*
X136295312Y-67019561D01*
X136295312Y-67019561D02*
X136200074Y-67114800D01*
X136200074Y-67114800D02*
X136104836Y-67162419D01*
X136104836Y-67162419D02*
X135914360Y-67162419D01*
X135914360Y-67162419D02*
X135819122Y-67114800D01*
X135819122Y-67114800D02*
X135723884Y-67019561D01*
X135723884Y-67019561D02*
X135676265Y-66829085D01*
X135676265Y-66829085D02*
X135676265Y-66495752D01*
X135676265Y-66495752D02*
X135723884Y-66305276D01*
X135723884Y-66305276D02*
X135819122Y-66210038D01*
X135819122Y-66210038D02*
X135914360Y-66162419D01*
X136676265Y-66162419D02*
X136914360Y-67162419D01*
X136914360Y-67162419D02*
X137104836Y-66448133D01*
X137104836Y-66448133D02*
X137295312Y-67162419D01*
X137295312Y-67162419D02*
X137533408Y-66162419D01*
X137914360Y-66638609D02*
X138247693Y-66638609D01*
X138390550Y-67162419D02*
X137914360Y-67162419D01*
X137914360Y-67162419D02*
X137914360Y-66162419D01*
X137914360Y-66162419D02*
X138390550Y-66162419D01*
X139390550Y-67162419D02*
X139057217Y-66686228D01*
X138819122Y-67162419D02*
X138819122Y-66162419D01*
X138819122Y-66162419D02*
X139200074Y-66162419D01*
X139200074Y-66162419D02*
X139295312Y-66210038D01*
X139295312Y-66210038D02*
X139342931Y-66257657D01*
X139342931Y-66257657D02*
X139390550Y-66352895D01*
X139390550Y-66352895D02*
X139390550Y-66495752D01*
X139390550Y-66495752D02*
X139342931Y-66590990D01*
X139342931Y-66590990D02*
X139295312Y-66638609D01*
X139295312Y-66638609D02*
X139200074Y-66686228D01*
X139200074Y-66686228D02*
X138819122Y-66686228D01*
X139581027Y-67257657D02*
X140342931Y-67257657D01*
X140533408Y-67114800D02*
X140676265Y-67162419D01*
X140676265Y-67162419D02*
X140914360Y-67162419D01*
X140914360Y-67162419D02*
X141009598Y-67114800D01*
X141009598Y-67114800D02*
X141057217Y-67067180D01*
X141057217Y-67067180D02*
X141104836Y-66971942D01*
X141104836Y-66971942D02*
X141104836Y-66876704D01*
X141104836Y-66876704D02*
X141057217Y-66781466D01*
X141057217Y-66781466D02*
X141009598Y-66733847D01*
X141009598Y-66733847D02*
X140914360Y-66686228D01*
X140914360Y-66686228D02*
X140723884Y-66638609D01*
X140723884Y-66638609D02*
X140628646Y-66590990D01*
X140628646Y-66590990D02*
X140581027Y-66543371D01*
X140581027Y-66543371D02*
X140533408Y-66448133D01*
X140533408Y-66448133D02*
X140533408Y-66352895D01*
X140533408Y-66352895D02*
X140581027Y-66257657D01*
X140581027Y-66257657D02*
X140628646Y-66210038D01*
X140628646Y-66210038D02*
X140723884Y-66162419D01*
X140723884Y-66162419D02*
X140961979Y-66162419D01*
X140961979Y-66162419D02*
X141104836Y-66210038D01*
X141438170Y-66162419D02*
X141676265Y-67162419D01*
X141676265Y-67162419D02*
X141866741Y-66448133D01*
X141866741Y-66448133D02*
X142057217Y-67162419D01*
X142057217Y-67162419D02*
X142295313Y-66162419D01*
D15*
X117732311Y-101325919D02*
X117732311Y-100325919D01*
X117732311Y-100325919D02*
X118032311Y-101040204D01*
X118032311Y-101040204D02*
X118332311Y-100325919D01*
X118332311Y-100325919D02*
X118332311Y-101325919D01*
X118546597Y-101421157D02*
X119232311Y-101421157D01*
X119446596Y-101325919D02*
X119446596Y-100325919D01*
X119446596Y-100325919D02*
X119660882Y-100325919D01*
X119660882Y-100325919D02*
X119789453Y-100373538D01*
X119789453Y-100373538D02*
X119875168Y-100468776D01*
X119875168Y-100468776D02*
X119918025Y-100564014D01*
X119918025Y-100564014D02*
X119960882Y-100754490D01*
X119960882Y-100754490D02*
X119960882Y-100897347D01*
X119960882Y-100897347D02*
X119918025Y-101087823D01*
X119918025Y-101087823D02*
X119875168Y-101183061D01*
X119875168Y-101183061D02*
X119789453Y-101278300D01*
X119789453Y-101278300D02*
X119660882Y-101325919D01*
X119660882Y-101325919D02*
X119446596Y-101325919D01*
X120860882Y-101325919D02*
X120560882Y-100849728D01*
X120346596Y-101325919D02*
X120346596Y-100325919D01*
X120346596Y-100325919D02*
X120689453Y-100325919D01*
X120689453Y-100325919D02*
X120775168Y-100373538D01*
X120775168Y-100373538D02*
X120818025Y-100421157D01*
X120818025Y-100421157D02*
X120860882Y-100516395D01*
X120860882Y-100516395D02*
X120860882Y-100659252D01*
X120860882Y-100659252D02*
X120818025Y-100754490D01*
X120818025Y-100754490D02*
X120775168Y-100802109D01*
X120775168Y-100802109D02*
X120689453Y-100849728D01*
X120689453Y-100849728D02*
X120346596Y-100849728D01*
X121246596Y-101325919D02*
X121246596Y-100325919D01*
X121546596Y-100325919D02*
X121846596Y-101325919D01*
X121846596Y-101325919D02*
X122146596Y-100325919D01*
X122446596Y-100802109D02*
X122746596Y-100802109D01*
X122875168Y-101325919D02*
X122446596Y-101325919D01*
X122446596Y-101325919D02*
X122446596Y-100325919D01*
X122446596Y-100325919D02*
X122875168Y-100325919D01*
X123775168Y-101325919D02*
X123475168Y-100849728D01*
X123260882Y-101325919D02*
X123260882Y-100325919D01*
X123260882Y-100325919D02*
X123603739Y-100325919D01*
X123603739Y-100325919D02*
X123689454Y-100373538D01*
X123689454Y-100373538D02*
X123732311Y-100421157D01*
X123732311Y-100421157D02*
X123775168Y-100516395D01*
X123775168Y-100516395D02*
X123775168Y-100659252D01*
X123775168Y-100659252D02*
X123732311Y-100754490D01*
X123732311Y-100754490D02*
X123689454Y-100802109D01*
X123689454Y-100802109D02*
X123603739Y-100849728D01*
X123603739Y-100849728D02*
X123260882Y-100849728D01*
X124803739Y-100421157D02*
X124846596Y-100373538D01*
X124846596Y-100373538D02*
X124932311Y-100325919D01*
X124932311Y-100325919D02*
X125146596Y-100325919D01*
X125146596Y-100325919D02*
X125232311Y-100373538D01*
X125232311Y-100373538D02*
X125275168Y-100421157D01*
X125275168Y-100421157D02*
X125318025Y-100516395D01*
X125318025Y-100516395D02*
X125318025Y-100611633D01*
X125318025Y-100611633D02*
X125275168Y-100754490D01*
X125275168Y-100754490D02*
X124760882Y-101325919D01*
X124760882Y-101325919D02*
X125318025Y-101325919D01*
D10*
X164780000Y-63340000D02*
X189980000Y-63340000D01*
X189980000Y-78180000D01*
X164780000Y-78180000D01*
X164780000Y-63340000D01*
D16*
X143024819Y-64959523D02*
X143739104Y-64959523D01*
X143739104Y-64959523D02*
X143881961Y-65007142D01*
X143881961Y-65007142D02*
X143977200Y-65102380D01*
X143977200Y-65102380D02*
X144024819Y-65245237D01*
X144024819Y-65245237D02*
X144024819Y-65340475D01*
X144024819Y-63959523D02*
X144024819Y-64530951D01*
X144024819Y-64245237D02*
X143024819Y-64245237D01*
X143024819Y-64245237D02*
X143167676Y-64340475D01*
X143167676Y-64340475D02*
X143262914Y-64435713D01*
X143262914Y-64435713D02*
X143310533Y-64530951D01*
X144024819Y-63007142D02*
X144024819Y-63578570D01*
X144024819Y-63292856D02*
X143024819Y-63292856D01*
X143024819Y-63292856D02*
X143167676Y-63388094D01*
X143167676Y-63388094D02*
X143262914Y-63483332D01*
X143262914Y-63483332D02*
X143310533Y-63578570D01*
X139370476Y-88064819D02*
X139370476Y-88779104D01*
X139370476Y-88779104D02*
X139322857Y-88921961D01*
X139322857Y-88921961D02*
X139227619Y-89017200D01*
X139227619Y-89017200D02*
X139084762Y-89064819D01*
X139084762Y-89064819D02*
X138989524Y-89064819D01*
X140370476Y-89064819D02*
X139799048Y-89064819D01*
X140084762Y-89064819D02*
X140084762Y-88064819D01*
X140084762Y-88064819D02*
X139989524Y-88207676D01*
X139989524Y-88207676D02*
X139894286Y-88302914D01*
X139894286Y-88302914D02*
X139799048Y-88350533D01*
X140703810Y-88064819D02*
X141322857Y-88064819D01*
X141322857Y-88064819D02*
X140989524Y-88445771D01*
X140989524Y-88445771D02*
X141132381Y-88445771D01*
X141132381Y-88445771D02*
X141227619Y-88493390D01*
X141227619Y-88493390D02*
X141275238Y-88541009D01*
X141275238Y-88541009D02*
X141322857Y-88636247D01*
X141322857Y-88636247D02*
X141322857Y-88874342D01*
X141322857Y-88874342D02*
X141275238Y-88969580D01*
X141275238Y-88969580D02*
X141227619Y-89017200D01*
X141227619Y-89017200D02*
X141132381Y-89064819D01*
X141132381Y-89064819D02*
X140846667Y-89064819D01*
X140846667Y-89064819D02*
X140751429Y-89017200D01*
X140751429Y-89017200D02*
X140703810Y-88969580D01*
D10*
X117798095Y-79037419D02*
X117798095Y-79846942D01*
X117798095Y-79846942D02*
X117845714Y-79942180D01*
X117845714Y-79942180D02*
X117893333Y-79989800D01*
X117893333Y-79989800D02*
X117988571Y-80037419D01*
X117988571Y-80037419D02*
X118179047Y-80037419D01*
X118179047Y-80037419D02*
X118274285Y-79989800D01*
X118274285Y-79989800D02*
X118321904Y-79942180D01*
X118321904Y-79942180D02*
X118369523Y-79846942D01*
X118369523Y-79846942D02*
X118369523Y-79037419D01*
X119369523Y-80037419D02*
X118798095Y-80037419D01*
X119083809Y-80037419D02*
X119083809Y-79037419D01*
X119083809Y-79037419D02*
X118988571Y-79180276D01*
X118988571Y-79180276D02*
X118893333Y-79275514D01*
X118893333Y-79275514D02*
X118798095Y-79323133D01*
X134707580Y-85663884D02*
X135707580Y-85663884D01*
X135707580Y-85663884D02*
X134993295Y-85997217D01*
X134993295Y-85997217D02*
X135707580Y-86330550D01*
X135707580Y-86330550D02*
X134707580Y-86330550D01*
X135707580Y-86663884D02*
X135707580Y-87235312D01*
X134707580Y-86949598D02*
X135707580Y-86949598D01*
X134707580Y-88140074D02*
X135183771Y-87806741D01*
X134707580Y-87568646D02*
X135707580Y-87568646D01*
X135707580Y-87568646D02*
X135707580Y-87949598D01*
X135707580Y-87949598D02*
X135659961Y-88044836D01*
X135659961Y-88044836D02*
X135612342Y-88092455D01*
X135612342Y-88092455D02*
X135517104Y-88140074D01*
X135517104Y-88140074D02*
X135374247Y-88140074D01*
X135374247Y-88140074D02*
X135279009Y-88092455D01*
X135279009Y-88092455D02*
X135231390Y-88044836D01*
X135231390Y-88044836D02*
X135183771Y-87949598D01*
X135183771Y-87949598D02*
X135183771Y-87568646D01*
X134802819Y-89901979D02*
X134755200Y-89854360D01*
X134755200Y-89854360D02*
X134707580Y-89711503D01*
X134707580Y-89711503D02*
X134707580Y-89616265D01*
X134707580Y-89616265D02*
X134755200Y-89473408D01*
X134755200Y-89473408D02*
X134850438Y-89378170D01*
X134850438Y-89378170D02*
X134945676Y-89330551D01*
X134945676Y-89330551D02*
X135136152Y-89282932D01*
X135136152Y-89282932D02*
X135279009Y-89282932D01*
X135279009Y-89282932D02*
X135469485Y-89330551D01*
X135469485Y-89330551D02*
X135564723Y-89378170D01*
X135564723Y-89378170D02*
X135659961Y-89473408D01*
X135659961Y-89473408D02*
X135707580Y-89616265D01*
X135707580Y-89616265D02*
X135707580Y-89711503D01*
X135707580Y-89711503D02*
X135659961Y-89854360D01*
X135659961Y-89854360D02*
X135612342Y-89901979D01*
X135374247Y-90187694D02*
X135374247Y-90568646D01*
X135707580Y-90330551D02*
X134850438Y-90330551D01*
X134850438Y-90330551D02*
X134755200Y-90378170D01*
X134755200Y-90378170D02*
X134707580Y-90473408D01*
X134707580Y-90473408D02*
X134707580Y-90568646D01*
X134707580Y-90901980D02*
X135374247Y-90901980D01*
X135183771Y-90901980D02*
X135279009Y-90949599D01*
X135279009Y-90949599D02*
X135326628Y-90997218D01*
X135326628Y-90997218D02*
X135374247Y-91092456D01*
X135374247Y-91092456D02*
X135374247Y-91187694D01*
X134707580Y-91663885D02*
X134755200Y-91568647D01*
X134755200Y-91568647D02*
X134850438Y-91521028D01*
X134850438Y-91521028D02*
X135707580Y-91521028D01*
X134707580Y-92806743D02*
X135707580Y-92806743D01*
X135707580Y-92806743D02*
X134993295Y-93140076D01*
X134993295Y-93140076D02*
X135707580Y-93473409D01*
X135707580Y-93473409D02*
X134707580Y-93473409D01*
X134707580Y-94473409D02*
X134707580Y-93901981D01*
X134707580Y-94187695D02*
X135707580Y-94187695D01*
X135707580Y-94187695D02*
X135564723Y-94092457D01*
X135564723Y-94092457D02*
X135469485Y-93997219D01*
X135469485Y-93997219D02*
X135421866Y-93901981D01*
X134755200Y-94949600D02*
X134707580Y-94949600D01*
X134707580Y-94949600D02*
X134612342Y-94901981D01*
X134612342Y-94901981D02*
X134564723Y-94854362D01*
X134707580Y-96140076D02*
X135707580Y-96140076D01*
X135707580Y-96140076D02*
X134993295Y-96473409D01*
X134993295Y-96473409D02*
X135707580Y-96806742D01*
X135707580Y-96806742D02*
X134707580Y-96806742D01*
X135612342Y-97235314D02*
X135659961Y-97282933D01*
X135659961Y-97282933D02*
X135707580Y-97378171D01*
X135707580Y-97378171D02*
X135707580Y-97616266D01*
X135707580Y-97616266D02*
X135659961Y-97711504D01*
X135659961Y-97711504D02*
X135612342Y-97759123D01*
X135612342Y-97759123D02*
X135517104Y-97806742D01*
X135517104Y-97806742D02*
X135421866Y-97806742D01*
X135421866Y-97806742D02*
X135279009Y-97759123D01*
X135279009Y-97759123D02*
X134707580Y-97187695D01*
X134707580Y-97187695D02*
X134707580Y-97806742D01*
X126242419Y-97546115D02*
X125242419Y-97546115D01*
X125242419Y-97546115D02*
X125956704Y-97212782D01*
X125956704Y-97212782D02*
X125242419Y-96879449D01*
X125242419Y-96879449D02*
X126242419Y-96879449D01*
X125337657Y-96450877D02*
X125290038Y-96403258D01*
X125290038Y-96403258D02*
X125242419Y-96308020D01*
X125242419Y-96308020D02*
X125242419Y-96069925D01*
X125242419Y-96069925D02*
X125290038Y-95974687D01*
X125290038Y-95974687D02*
X125337657Y-95927068D01*
X125337657Y-95927068D02*
X125432895Y-95879449D01*
X125432895Y-95879449D02*
X125528133Y-95879449D01*
X125528133Y-95879449D02*
X125670990Y-95927068D01*
X125670990Y-95927068D02*
X126242419Y-96498496D01*
X126242419Y-96498496D02*
X126242419Y-95879449D01*
X130043884Y-84092419D02*
X130043884Y-83092419D01*
X130043884Y-83092419D02*
X130424836Y-83092419D01*
X130424836Y-83092419D02*
X130520074Y-83140038D01*
X130520074Y-83140038D02*
X130567693Y-83187657D01*
X130567693Y-83187657D02*
X130615312Y-83282895D01*
X130615312Y-83282895D02*
X130615312Y-83425752D01*
X130615312Y-83425752D02*
X130567693Y-83520990D01*
X130567693Y-83520990D02*
X130520074Y-83568609D01*
X130520074Y-83568609D02*
X130424836Y-83616228D01*
X130424836Y-83616228D02*
X130043884Y-83616228D01*
X130948646Y-83092419D02*
X131186741Y-84092419D01*
X131186741Y-84092419D02*
X131377217Y-83378133D01*
X131377217Y-83378133D02*
X131567693Y-84092419D01*
X131567693Y-84092419D02*
X131805789Y-83092419D01*
X132758169Y-84092419D02*
X132424836Y-83616228D01*
X132186741Y-84092419D02*
X132186741Y-83092419D01*
X132186741Y-83092419D02*
X132567693Y-83092419D01*
X132567693Y-83092419D02*
X132662931Y-83140038D01*
X132662931Y-83140038D02*
X132710550Y-83187657D01*
X132710550Y-83187657D02*
X132758169Y-83282895D01*
X132758169Y-83282895D02*
X132758169Y-83425752D01*
X132758169Y-83425752D02*
X132710550Y-83520990D01*
X132710550Y-83520990D02*
X132662931Y-83568609D01*
X132662931Y-83568609D02*
X132567693Y-83616228D01*
X132567693Y-83616228D02*
X132186741Y-83616228D01*
X126332419Y-88266115D02*
X125332419Y-88266115D01*
X125332419Y-88266115D02*
X126046704Y-87932782D01*
X126046704Y-87932782D02*
X125332419Y-87599449D01*
X125332419Y-87599449D02*
X126332419Y-87599449D01*
X126332419Y-86599449D02*
X126332419Y-87170877D01*
X126332419Y-86885163D02*
X125332419Y-86885163D01*
X125332419Y-86885163D02*
X125475276Y-86980401D01*
X125475276Y-86980401D02*
X125570514Y-87075639D01*
X125570514Y-87075639D02*
X125618133Y-87170877D01*
X119858095Y-103157419D02*
X119858095Y-103966942D01*
X119858095Y-103966942D02*
X119905714Y-104062180D01*
X119905714Y-104062180D02*
X119953333Y-104109800D01*
X119953333Y-104109800D02*
X120048571Y-104157419D01*
X120048571Y-104157419D02*
X120239047Y-104157419D01*
X120239047Y-104157419D02*
X120334285Y-104109800D01*
X120334285Y-104109800D02*
X120381904Y-104062180D01*
X120381904Y-104062180D02*
X120429523Y-103966942D01*
X120429523Y-103966942D02*
X120429523Y-103157419D01*
X120858095Y-103252657D02*
X120905714Y-103205038D01*
X120905714Y-103205038D02*
X121000952Y-103157419D01*
X121000952Y-103157419D02*
X121239047Y-103157419D01*
X121239047Y-103157419D02*
X121334285Y-103205038D01*
X121334285Y-103205038D02*
X121381904Y-103252657D01*
X121381904Y-103252657D02*
X121429523Y-103347895D01*
X121429523Y-103347895D02*
X121429523Y-103443133D01*
X121429523Y-103443133D02*
X121381904Y-103585990D01*
X121381904Y-103585990D02*
X120810476Y-104157419D01*
X120810476Y-104157419D02*
X121429523Y-104157419D01*
X126292419Y-112366115D02*
X125292419Y-112366115D01*
X125292419Y-112366115D02*
X126006704Y-112032782D01*
X126006704Y-112032782D02*
X125292419Y-111699449D01*
X125292419Y-111699449D02*
X126292419Y-111699449D01*
X125292419Y-111318496D02*
X125292419Y-110699449D01*
X125292419Y-110699449D02*
X125673371Y-111032782D01*
X125673371Y-111032782D02*
X125673371Y-110889925D01*
X125673371Y-110889925D02*
X125720990Y-110794687D01*
X125720990Y-110794687D02*
X125768609Y-110747068D01*
X125768609Y-110747068D02*
X125863847Y-110699449D01*
X125863847Y-110699449D02*
X126101942Y-110699449D01*
X126101942Y-110699449D02*
X126197180Y-110747068D01*
X126197180Y-110747068D02*
X126244800Y-110794687D01*
X126244800Y-110794687D02*
X126292419Y-110889925D01*
X126292419Y-110889925D02*
X126292419Y-111175639D01*
X126292419Y-111175639D02*
X126244800Y-111270877D01*
X126244800Y-111270877D02*
X126197180Y-111318496D01*
X129573884Y-108082419D02*
X129573884Y-107082419D01*
X129573884Y-107082419D02*
X129954836Y-107082419D01*
X129954836Y-107082419D02*
X130050074Y-107130038D01*
X130050074Y-107130038D02*
X130097693Y-107177657D01*
X130097693Y-107177657D02*
X130145312Y-107272895D01*
X130145312Y-107272895D02*
X130145312Y-107415752D01*
X130145312Y-107415752D02*
X130097693Y-107510990D01*
X130097693Y-107510990D02*
X130050074Y-107558609D01*
X130050074Y-107558609D02*
X129954836Y-107606228D01*
X129954836Y-107606228D02*
X129573884Y-107606228D01*
X130478646Y-107082419D02*
X130716741Y-108082419D01*
X130716741Y-108082419D02*
X130907217Y-107368133D01*
X130907217Y-107368133D02*
X131097693Y-108082419D01*
X131097693Y-108082419D02*
X131335789Y-107082419D01*
X132288169Y-108082419D02*
X131954836Y-107606228D01*
X131716741Y-108082419D02*
X131716741Y-107082419D01*
X131716741Y-107082419D02*
X132097693Y-107082419D01*
X132097693Y-107082419D02*
X132192931Y-107130038D01*
X132192931Y-107130038D02*
X132240550Y-107177657D01*
X132240550Y-107177657D02*
X132288169Y-107272895D01*
X132288169Y-107272895D02*
X132288169Y-107415752D01*
X132288169Y-107415752D02*
X132240550Y-107510990D01*
X132240550Y-107510990D02*
X132192931Y-107558609D01*
X132192931Y-107558609D02*
X132097693Y-107606228D01*
X132097693Y-107606228D02*
X131716741Y-107606228D01*
X134587580Y-109218884D02*
X135587580Y-109218884D01*
X135587580Y-109218884D02*
X134873295Y-109552217D01*
X134873295Y-109552217D02*
X135587580Y-109885550D01*
X135587580Y-109885550D02*
X134587580Y-109885550D01*
X135587580Y-110218884D02*
X135587580Y-110790312D01*
X134587580Y-110504598D02*
X135587580Y-110504598D01*
X134587580Y-111695074D02*
X135063771Y-111361741D01*
X134587580Y-111123646D02*
X135587580Y-111123646D01*
X135587580Y-111123646D02*
X135587580Y-111504598D01*
X135587580Y-111504598D02*
X135539961Y-111599836D01*
X135539961Y-111599836D02*
X135492342Y-111647455D01*
X135492342Y-111647455D02*
X135397104Y-111695074D01*
X135397104Y-111695074D02*
X135254247Y-111695074D01*
X135254247Y-111695074D02*
X135159009Y-111647455D01*
X135159009Y-111647455D02*
X135111390Y-111599836D01*
X135111390Y-111599836D02*
X135063771Y-111504598D01*
X135063771Y-111504598D02*
X135063771Y-111123646D01*
X134682819Y-113456979D02*
X134635200Y-113409360D01*
X134635200Y-113409360D02*
X134587580Y-113266503D01*
X134587580Y-113266503D02*
X134587580Y-113171265D01*
X134587580Y-113171265D02*
X134635200Y-113028408D01*
X134635200Y-113028408D02*
X134730438Y-112933170D01*
X134730438Y-112933170D02*
X134825676Y-112885551D01*
X134825676Y-112885551D02*
X135016152Y-112837932D01*
X135016152Y-112837932D02*
X135159009Y-112837932D01*
X135159009Y-112837932D02*
X135349485Y-112885551D01*
X135349485Y-112885551D02*
X135444723Y-112933170D01*
X135444723Y-112933170D02*
X135539961Y-113028408D01*
X135539961Y-113028408D02*
X135587580Y-113171265D01*
X135587580Y-113171265D02*
X135587580Y-113266503D01*
X135587580Y-113266503D02*
X135539961Y-113409360D01*
X135539961Y-113409360D02*
X135492342Y-113456979D01*
X135254247Y-113742694D02*
X135254247Y-114123646D01*
X135587580Y-113885551D02*
X134730438Y-113885551D01*
X134730438Y-113885551D02*
X134635200Y-113933170D01*
X134635200Y-113933170D02*
X134587580Y-114028408D01*
X134587580Y-114028408D02*
X134587580Y-114123646D01*
X134587580Y-114456980D02*
X135254247Y-114456980D01*
X135063771Y-114456980D02*
X135159009Y-114504599D01*
X135159009Y-114504599D02*
X135206628Y-114552218D01*
X135206628Y-114552218D02*
X135254247Y-114647456D01*
X135254247Y-114647456D02*
X135254247Y-114742694D01*
X134587580Y-115218885D02*
X134635200Y-115123647D01*
X134635200Y-115123647D02*
X134730438Y-115076028D01*
X134730438Y-115076028D02*
X135587580Y-115076028D01*
X134587580Y-116361743D02*
X135587580Y-116361743D01*
X135587580Y-116361743D02*
X134873295Y-116695076D01*
X134873295Y-116695076D02*
X135587580Y-117028409D01*
X135587580Y-117028409D02*
X134587580Y-117028409D01*
X134587580Y-118028409D02*
X134587580Y-117456981D01*
X134587580Y-117742695D02*
X135587580Y-117742695D01*
X135587580Y-117742695D02*
X135444723Y-117647457D01*
X135444723Y-117647457D02*
X135349485Y-117552219D01*
X135349485Y-117552219D02*
X135301866Y-117456981D01*
X134635200Y-118504600D02*
X134587580Y-118504600D01*
X134587580Y-118504600D02*
X134492342Y-118456981D01*
X134492342Y-118456981D02*
X134444723Y-118409362D01*
X134587580Y-119695076D02*
X135587580Y-119695076D01*
X135587580Y-119695076D02*
X134873295Y-120028409D01*
X134873295Y-120028409D02*
X135587580Y-120361742D01*
X135587580Y-120361742D02*
X134587580Y-120361742D01*
X135492342Y-120790314D02*
X135539961Y-120837933D01*
X135539961Y-120837933D02*
X135587580Y-120933171D01*
X135587580Y-120933171D02*
X135587580Y-121171266D01*
X135587580Y-121171266D02*
X135539961Y-121266504D01*
X135539961Y-121266504D02*
X135492342Y-121314123D01*
X135492342Y-121314123D02*
X135397104Y-121361742D01*
X135397104Y-121361742D02*
X135301866Y-121361742D01*
X135301866Y-121361742D02*
X135159009Y-121314123D01*
X135159009Y-121314123D02*
X134587580Y-120742695D01*
X134587580Y-120742695D02*
X134587580Y-121361742D01*
D16*
X178019819Y-87298094D02*
X177019819Y-87298094D01*
X177019819Y-87298094D02*
X177019819Y-87059999D01*
X177019819Y-87059999D02*
X177067438Y-86917142D01*
X177067438Y-86917142D02*
X177162676Y-86821904D01*
X177162676Y-86821904D02*
X177257914Y-86774285D01*
X177257914Y-86774285D02*
X177448390Y-86726666D01*
X177448390Y-86726666D02*
X177591247Y-86726666D01*
X177591247Y-86726666D02*
X177781723Y-86774285D01*
X177781723Y-86774285D02*
X177876961Y-86821904D01*
X177876961Y-86821904D02*
X177972200Y-86917142D01*
X177972200Y-86917142D02*
X178019819Y-87059999D01*
X178019819Y-87059999D02*
X178019819Y-87298094D01*
X177353152Y-85869523D02*
X178019819Y-85869523D01*
X176972200Y-86107618D02*
X177686485Y-86345713D01*
X177686485Y-86345713D02*
X177686485Y-85726666D01*
X174873333Y-66244819D02*
X174540000Y-65768628D01*
X174301905Y-66244819D02*
X174301905Y-65244819D01*
X174301905Y-65244819D02*
X174682857Y-65244819D01*
X174682857Y-65244819D02*
X174778095Y-65292438D01*
X174778095Y-65292438D02*
X174825714Y-65340057D01*
X174825714Y-65340057D02*
X174873333Y-65435295D01*
X174873333Y-65435295D02*
X174873333Y-65578152D01*
X174873333Y-65578152D02*
X174825714Y-65673390D01*
X174825714Y-65673390D02*
X174778095Y-65721009D01*
X174778095Y-65721009D02*
X174682857Y-65768628D01*
X174682857Y-65768628D02*
X174301905Y-65768628D01*
X175778095Y-65244819D02*
X175301905Y-65244819D01*
X175301905Y-65244819D02*
X175254286Y-65721009D01*
X175254286Y-65721009D02*
X175301905Y-65673390D01*
X175301905Y-65673390D02*
X175397143Y-65625771D01*
X175397143Y-65625771D02*
X175635238Y-65625771D01*
X175635238Y-65625771D02*
X175730476Y-65673390D01*
X175730476Y-65673390D02*
X175778095Y-65721009D01*
X175778095Y-65721009D02*
X175825714Y-65816247D01*
X175825714Y-65816247D02*
X175825714Y-66054342D01*
X175825714Y-66054342D02*
X175778095Y-66149580D01*
X175778095Y-66149580D02*
X175730476Y-66197200D01*
X175730476Y-66197200D02*
X175635238Y-66244819D01*
X175635238Y-66244819D02*
X175397143Y-66244819D01*
X175397143Y-66244819D02*
X175301905Y-66197200D01*
X175301905Y-66197200D02*
X175254286Y-66149580D01*
X174873333Y-70244819D02*
X174540000Y-69768628D01*
X174301905Y-70244819D02*
X174301905Y-69244819D01*
X174301905Y-69244819D02*
X174682857Y-69244819D01*
X174682857Y-69244819D02*
X174778095Y-69292438D01*
X174778095Y-69292438D02*
X174825714Y-69340057D01*
X174825714Y-69340057D02*
X174873333Y-69435295D01*
X174873333Y-69435295D02*
X174873333Y-69578152D01*
X174873333Y-69578152D02*
X174825714Y-69673390D01*
X174825714Y-69673390D02*
X174778095Y-69721009D01*
X174778095Y-69721009D02*
X174682857Y-69768628D01*
X174682857Y-69768628D02*
X174301905Y-69768628D01*
X175730476Y-69244819D02*
X175540000Y-69244819D01*
X175540000Y-69244819D02*
X175444762Y-69292438D01*
X175444762Y-69292438D02*
X175397143Y-69340057D01*
X175397143Y-69340057D02*
X175301905Y-69482914D01*
X175301905Y-69482914D02*
X175254286Y-69673390D01*
X175254286Y-69673390D02*
X175254286Y-70054342D01*
X175254286Y-70054342D02*
X175301905Y-70149580D01*
X175301905Y-70149580D02*
X175349524Y-70197200D01*
X175349524Y-70197200D02*
X175444762Y-70244819D01*
X175444762Y-70244819D02*
X175635238Y-70244819D01*
X175635238Y-70244819D02*
X175730476Y-70197200D01*
X175730476Y-70197200D02*
X175778095Y-70149580D01*
X175778095Y-70149580D02*
X175825714Y-70054342D01*
X175825714Y-70054342D02*
X175825714Y-69816247D01*
X175825714Y-69816247D02*
X175778095Y-69721009D01*
X175778095Y-69721009D02*
X175730476Y-69673390D01*
X175730476Y-69673390D02*
X175635238Y-69625771D01*
X175635238Y-69625771D02*
X175444762Y-69625771D01*
X175444762Y-69625771D02*
X175349524Y-69673390D01*
X175349524Y-69673390D02*
X175301905Y-69721009D01*
X175301905Y-69721009D02*
X175254286Y-69816247D01*
X165189819Y-87356666D02*
X164713628Y-87689999D01*
X165189819Y-87928094D02*
X164189819Y-87928094D01*
X164189819Y-87928094D02*
X164189819Y-87547142D01*
X164189819Y-87547142D02*
X164237438Y-87451904D01*
X164237438Y-87451904D02*
X164285057Y-87404285D01*
X164285057Y-87404285D02*
X164380295Y-87356666D01*
X164380295Y-87356666D02*
X164523152Y-87356666D01*
X164523152Y-87356666D02*
X164618390Y-87404285D01*
X164618390Y-87404285D02*
X164666009Y-87451904D01*
X164666009Y-87451904D02*
X164713628Y-87547142D01*
X164713628Y-87547142D02*
X164713628Y-87928094D01*
X164189819Y-87023332D02*
X164189819Y-86404285D01*
X164189819Y-86404285D02*
X164570771Y-86737618D01*
X164570771Y-86737618D02*
X164570771Y-86594761D01*
X164570771Y-86594761D02*
X164618390Y-86499523D01*
X164618390Y-86499523D02*
X164666009Y-86451904D01*
X164666009Y-86451904D02*
X164761247Y-86404285D01*
X164761247Y-86404285D02*
X164999342Y-86404285D01*
X164999342Y-86404285D02*
X165094580Y-86451904D01*
X165094580Y-86451904D02*
X165142200Y-86499523D01*
X165142200Y-86499523D02*
X165189819Y-86594761D01*
X165189819Y-86594761D02*
X165189819Y-86880475D01*
X165189819Y-86880475D02*
X165142200Y-86975713D01*
X165142200Y-86975713D02*
X165094580Y-87023332D01*
X184011905Y-66534819D02*
X184011905Y-65534819D01*
X184011905Y-65534819D02*
X184250000Y-65534819D01*
X184250000Y-65534819D02*
X184392857Y-65582438D01*
X184392857Y-65582438D02*
X184488095Y-65677676D01*
X184488095Y-65677676D02*
X184535714Y-65772914D01*
X184535714Y-65772914D02*
X184583333Y-65963390D01*
X184583333Y-65963390D02*
X184583333Y-66106247D01*
X184583333Y-66106247D02*
X184535714Y-66296723D01*
X184535714Y-66296723D02*
X184488095Y-66391961D01*
X184488095Y-66391961D02*
X184392857Y-66487200D01*
X184392857Y-66487200D02*
X184250000Y-66534819D01*
X184250000Y-66534819D02*
X184011905Y-66534819D01*
X184916667Y-65534819D02*
X185583333Y-65534819D01*
X185583333Y-65534819D02*
X185154762Y-66534819D01*
X165259819Y-85006666D02*
X164783628Y-85339999D01*
X165259819Y-85578094D02*
X164259819Y-85578094D01*
X164259819Y-85578094D02*
X164259819Y-85197142D01*
X164259819Y-85197142D02*
X164307438Y-85101904D01*
X164307438Y-85101904D02*
X164355057Y-85054285D01*
X164355057Y-85054285D02*
X164450295Y-85006666D01*
X164450295Y-85006666D02*
X164593152Y-85006666D01*
X164593152Y-85006666D02*
X164688390Y-85054285D01*
X164688390Y-85054285D02*
X164736009Y-85101904D01*
X164736009Y-85101904D02*
X164783628Y-85197142D01*
X164783628Y-85197142D02*
X164783628Y-85578094D01*
X164355057Y-84625713D02*
X164307438Y-84578094D01*
X164307438Y-84578094D02*
X164259819Y-84482856D01*
X164259819Y-84482856D02*
X164259819Y-84244761D01*
X164259819Y-84244761D02*
X164307438Y-84149523D01*
X164307438Y-84149523D02*
X164355057Y-84101904D01*
X164355057Y-84101904D02*
X164450295Y-84054285D01*
X164450295Y-84054285D02*
X164545533Y-84054285D01*
X164545533Y-84054285D02*
X164688390Y-84101904D01*
X164688390Y-84101904D02*
X165259819Y-84673332D01*
X165259819Y-84673332D02*
X165259819Y-84054285D01*
X178039819Y-91028094D02*
X177039819Y-91028094D01*
X177039819Y-91028094D02*
X177039819Y-90789999D01*
X177039819Y-90789999D02*
X177087438Y-90647142D01*
X177087438Y-90647142D02*
X177182676Y-90551904D01*
X177182676Y-90551904D02*
X177277914Y-90504285D01*
X177277914Y-90504285D02*
X177468390Y-90456666D01*
X177468390Y-90456666D02*
X177611247Y-90456666D01*
X177611247Y-90456666D02*
X177801723Y-90504285D01*
X177801723Y-90504285D02*
X177896961Y-90551904D01*
X177896961Y-90551904D02*
X177992200Y-90647142D01*
X177992200Y-90647142D02*
X178039819Y-90789999D01*
X178039819Y-90789999D02*
X178039819Y-91028094D01*
X177039819Y-89551904D02*
X177039819Y-90028094D01*
X177039819Y-90028094D02*
X177516009Y-90075713D01*
X177516009Y-90075713D02*
X177468390Y-90028094D01*
X177468390Y-90028094D02*
X177420771Y-89932856D01*
X177420771Y-89932856D02*
X177420771Y-89694761D01*
X177420771Y-89694761D02*
X177468390Y-89599523D01*
X177468390Y-89599523D02*
X177516009Y-89551904D01*
X177516009Y-89551904D02*
X177611247Y-89504285D01*
X177611247Y-89504285D02*
X177849342Y-89504285D01*
X177849342Y-89504285D02*
X177944580Y-89551904D01*
X177944580Y-89551904D02*
X177992200Y-89599523D01*
X177992200Y-89599523D02*
X178039819Y-89694761D01*
X178039819Y-89694761D02*
X178039819Y-89932856D01*
X178039819Y-89932856D02*
X177992200Y-90028094D01*
X177992200Y-90028094D02*
X177944580Y-90075713D01*
X169043333Y-67834819D02*
X168710000Y-67358628D01*
X168471905Y-67834819D02*
X168471905Y-66834819D01*
X168471905Y-66834819D02*
X168852857Y-66834819D01*
X168852857Y-66834819D02*
X168948095Y-66882438D01*
X168948095Y-66882438D02*
X168995714Y-66930057D01*
X168995714Y-66930057D02*
X169043333Y-67025295D01*
X169043333Y-67025295D02*
X169043333Y-67168152D01*
X169043333Y-67168152D02*
X168995714Y-67263390D01*
X168995714Y-67263390D02*
X168948095Y-67311009D01*
X168948095Y-67311009D02*
X168852857Y-67358628D01*
X168852857Y-67358628D02*
X168471905Y-67358628D01*
X169900476Y-67168152D02*
X169900476Y-67834819D01*
X169662381Y-66787200D02*
X169424286Y-67501485D01*
X169424286Y-67501485D02*
X170043333Y-67501485D01*
X144799047Y-154751009D02*
X144941904Y-154798628D01*
X144941904Y-154798628D02*
X144989523Y-154846247D01*
X144989523Y-154846247D02*
X145037142Y-154941485D01*
X145037142Y-154941485D02*
X145037142Y-155084342D01*
X145037142Y-155084342D02*
X144989523Y-155179580D01*
X144989523Y-155179580D02*
X144941904Y-155227200D01*
X144941904Y-155227200D02*
X144846666Y-155274819D01*
X144846666Y-155274819D02*
X144465714Y-155274819D01*
X144465714Y-155274819D02*
X144465714Y-154274819D01*
X144465714Y-154274819D02*
X144799047Y-154274819D01*
X144799047Y-154274819D02*
X144894285Y-154322438D01*
X144894285Y-154322438D02*
X144941904Y-154370057D01*
X144941904Y-154370057D02*
X144989523Y-154465295D01*
X144989523Y-154465295D02*
X144989523Y-154560533D01*
X144989523Y-154560533D02*
X144941904Y-154655771D01*
X144941904Y-154655771D02*
X144894285Y-154703390D01*
X144894285Y-154703390D02*
X144799047Y-154751009D01*
X144799047Y-154751009D02*
X144465714Y-154751009D01*
X145370476Y-154274819D02*
X146037142Y-154274819D01*
X146037142Y-154274819D02*
X145370476Y-155274819D01*
X145370476Y-155274819D02*
X146037142Y-155274819D01*
X146941904Y-155274819D02*
X146370476Y-155274819D01*
X146656190Y-155274819D02*
X146656190Y-154274819D01*
X146656190Y-154274819D02*
X146560952Y-154417676D01*
X146560952Y-154417676D02*
X146465714Y-154512914D01*
X146465714Y-154512914D02*
X146370476Y-154560533D01*
X165700057Y-72095238D02*
X165652438Y-72190476D01*
X165652438Y-72190476D02*
X165557200Y-72285714D01*
X165557200Y-72285714D02*
X165414342Y-72428571D01*
X165414342Y-72428571D02*
X165366723Y-72523809D01*
X165366723Y-72523809D02*
X165366723Y-72619047D01*
X165604819Y-72571428D02*
X165557200Y-72666666D01*
X165557200Y-72666666D02*
X165461961Y-72761904D01*
X165461961Y-72761904D02*
X165271485Y-72809523D01*
X165271485Y-72809523D02*
X164938152Y-72809523D01*
X164938152Y-72809523D02*
X164747676Y-72761904D01*
X164747676Y-72761904D02*
X164652438Y-72666666D01*
X164652438Y-72666666D02*
X164604819Y-72571428D01*
X164604819Y-72571428D02*
X164604819Y-72380952D01*
X164604819Y-72380952D02*
X164652438Y-72285714D01*
X164652438Y-72285714D02*
X164747676Y-72190476D01*
X164747676Y-72190476D02*
X164938152Y-72142857D01*
X164938152Y-72142857D02*
X165271485Y-72142857D01*
X165271485Y-72142857D02*
X165461961Y-72190476D01*
X165461961Y-72190476D02*
X165557200Y-72285714D01*
X165557200Y-72285714D02*
X165604819Y-72380952D01*
X165604819Y-72380952D02*
X165604819Y-72571428D01*
X164700057Y-71761904D02*
X164652438Y-71714285D01*
X164652438Y-71714285D02*
X164604819Y-71619047D01*
X164604819Y-71619047D02*
X164604819Y-71380952D01*
X164604819Y-71380952D02*
X164652438Y-71285714D01*
X164652438Y-71285714D02*
X164700057Y-71238095D01*
X164700057Y-71238095D02*
X164795295Y-71190476D01*
X164795295Y-71190476D02*
X164890533Y-71190476D01*
X164890533Y-71190476D02*
X165033390Y-71238095D01*
X165033390Y-71238095D02*
X165604819Y-71809523D01*
X165604819Y-71809523D02*
X165604819Y-71190476D01*
X163254819Y-102391904D02*
X164064342Y-102391904D01*
X164064342Y-102391904D02*
X164159580Y-102344285D01*
X164159580Y-102344285D02*
X164207200Y-102296666D01*
X164207200Y-102296666D02*
X164254819Y-102201428D01*
X164254819Y-102201428D02*
X164254819Y-102010952D01*
X164254819Y-102010952D02*
X164207200Y-101915714D01*
X164207200Y-101915714D02*
X164159580Y-101868095D01*
X164159580Y-101868095D02*
X164064342Y-101820476D01*
X164064342Y-101820476D02*
X163254819Y-101820476D01*
X163254819Y-101439523D02*
X163254819Y-100820476D01*
X163254819Y-100820476D02*
X163635771Y-101153809D01*
X163635771Y-101153809D02*
X163635771Y-101010952D01*
X163635771Y-101010952D02*
X163683390Y-100915714D01*
X163683390Y-100915714D02*
X163731009Y-100868095D01*
X163731009Y-100868095D02*
X163826247Y-100820476D01*
X163826247Y-100820476D02*
X164064342Y-100820476D01*
X164064342Y-100820476D02*
X164159580Y-100868095D01*
X164159580Y-100868095D02*
X164207200Y-100915714D01*
X164207200Y-100915714D02*
X164254819Y-101010952D01*
X164254819Y-101010952D02*
X164254819Y-101296666D01*
X164254819Y-101296666D02*
X164207200Y-101391904D01*
X164207200Y-101391904D02*
X164159580Y-101439523D01*
X152406666Y-98572295D02*
X152406666Y-97772295D01*
X152406666Y-97772295D02*
X152573333Y-97772295D01*
X152573333Y-97772295D02*
X152673333Y-97810390D01*
X152673333Y-97810390D02*
X152740000Y-97886580D01*
X152740000Y-97886580D02*
X152773333Y-97962771D01*
X152773333Y-97962771D02*
X152806666Y-98115152D01*
X152806666Y-98115152D02*
X152806666Y-98229438D01*
X152806666Y-98229438D02*
X152773333Y-98381819D01*
X152773333Y-98381819D02*
X152740000Y-98458009D01*
X152740000Y-98458009D02*
X152673333Y-98534200D01*
X152673333Y-98534200D02*
X152573333Y-98572295D01*
X152573333Y-98572295D02*
X152406666Y-98572295D01*
X153006666Y-97772295D02*
X153240000Y-98572295D01*
X153240000Y-98572295D02*
X153473333Y-97772295D01*
X153906666Y-97772295D02*
X153906666Y-98343723D01*
X153906666Y-98343723D02*
X153873333Y-98458009D01*
X153873333Y-98458009D02*
X153806666Y-98534200D01*
X153806666Y-98534200D02*
X153706666Y-98572295D01*
X153706666Y-98572295D02*
X153640000Y-98572295D01*
X154539999Y-97772295D02*
X154406666Y-97772295D01*
X154406666Y-97772295D02*
X154339999Y-97810390D01*
X154339999Y-97810390D02*
X154306666Y-97848485D01*
X154306666Y-97848485D02*
X154239999Y-97962771D01*
X154239999Y-97962771D02*
X154206666Y-98115152D01*
X154206666Y-98115152D02*
X154206666Y-98419914D01*
X154206666Y-98419914D02*
X154239999Y-98496104D01*
X154239999Y-98496104D02*
X154273333Y-98534200D01*
X154273333Y-98534200D02*
X154339999Y-98572295D01*
X154339999Y-98572295D02*
X154473333Y-98572295D01*
X154473333Y-98572295D02*
X154539999Y-98534200D01*
X154539999Y-98534200D02*
X154573333Y-98496104D01*
X154573333Y-98496104D02*
X154606666Y-98419914D01*
X154606666Y-98419914D02*
X154606666Y-98229438D01*
X154606666Y-98229438D02*
X154573333Y-98153247D01*
X154573333Y-98153247D02*
X154539999Y-98115152D01*
X154539999Y-98115152D02*
X154473333Y-98077057D01*
X154473333Y-98077057D02*
X154339999Y-98077057D01*
X154339999Y-98077057D02*
X154273333Y-98115152D01*
X154273333Y-98115152D02*
X154239999Y-98153247D01*
X154239999Y-98153247D02*
X154206666Y-98229438D01*
X154873333Y-98343723D02*
X155206666Y-98343723D01*
X154806666Y-98572295D02*
X155040000Y-97772295D01*
X155040000Y-97772295D02*
X155273333Y-98572295D01*
X154059456Y-89496009D02*
X154392789Y-89496009D01*
X154535646Y-90019819D02*
X154059456Y-90019819D01*
X154059456Y-90019819D02*
X154059456Y-89019819D01*
X154059456Y-89019819D02*
X154535646Y-89019819D01*
X154821361Y-89353152D02*
X155202313Y-89353152D01*
X154964218Y-89019819D02*
X154964218Y-89876961D01*
X154964218Y-89876961D02*
X155011837Y-89972200D01*
X155011837Y-89972200D02*
X155107075Y-90019819D01*
X155107075Y-90019819D02*
X155202313Y-90019819D01*
X155535647Y-90019819D02*
X155535647Y-89019819D01*
X155964218Y-90019819D02*
X155964218Y-89496009D01*
X155964218Y-89496009D02*
X155916599Y-89400771D01*
X155916599Y-89400771D02*
X155821361Y-89353152D01*
X155821361Y-89353152D02*
X155678504Y-89353152D01*
X155678504Y-89353152D02*
X155583266Y-89400771D01*
X155583266Y-89400771D02*
X155535647Y-89448390D01*
X156821361Y-89972200D02*
X156726123Y-90019819D01*
X156726123Y-90019819D02*
X156535647Y-90019819D01*
X156535647Y-90019819D02*
X156440409Y-89972200D01*
X156440409Y-89972200D02*
X156392790Y-89876961D01*
X156392790Y-89876961D02*
X156392790Y-89496009D01*
X156392790Y-89496009D02*
X156440409Y-89400771D01*
X156440409Y-89400771D02*
X156535647Y-89353152D01*
X156535647Y-89353152D02*
X156726123Y-89353152D01*
X156726123Y-89353152D02*
X156821361Y-89400771D01*
X156821361Y-89400771D02*
X156868980Y-89496009D01*
X156868980Y-89496009D02*
X156868980Y-89591247D01*
X156868980Y-89591247D02*
X156392790Y-89686485D01*
X157297552Y-90019819D02*
X157297552Y-89353152D01*
X157297552Y-89543628D02*
X157345171Y-89448390D01*
X157345171Y-89448390D02*
X157392790Y-89400771D01*
X157392790Y-89400771D02*
X157488028Y-89353152D01*
X157488028Y-89353152D02*
X157583266Y-89353152D01*
X157916600Y-89353152D02*
X157916600Y-90019819D01*
X157916600Y-89448390D02*
X157964219Y-89400771D01*
X157964219Y-89400771D02*
X158059457Y-89353152D01*
X158059457Y-89353152D02*
X158202314Y-89353152D01*
X158202314Y-89353152D02*
X158297552Y-89400771D01*
X158297552Y-89400771D02*
X158345171Y-89496009D01*
X158345171Y-89496009D02*
X158345171Y-90019819D01*
X159202314Y-89972200D02*
X159107076Y-90019819D01*
X159107076Y-90019819D02*
X158916600Y-90019819D01*
X158916600Y-90019819D02*
X158821362Y-89972200D01*
X158821362Y-89972200D02*
X158773743Y-89876961D01*
X158773743Y-89876961D02*
X158773743Y-89496009D01*
X158773743Y-89496009D02*
X158821362Y-89400771D01*
X158821362Y-89400771D02*
X158916600Y-89353152D01*
X158916600Y-89353152D02*
X159107076Y-89353152D01*
X159107076Y-89353152D02*
X159202314Y-89400771D01*
X159202314Y-89400771D02*
X159249933Y-89496009D01*
X159249933Y-89496009D02*
X159249933Y-89591247D01*
X159249933Y-89591247D02*
X158773743Y-89686485D01*
X159535648Y-89353152D02*
X159916600Y-89353152D01*
X159678505Y-89019819D02*
X159678505Y-89876961D01*
X159678505Y-89876961D02*
X159726124Y-89972200D01*
X159726124Y-89972200D02*
X159821362Y-90019819D01*
X159821362Y-90019819D02*
X159916600Y-90019819D01*
X154094819Y-128879047D02*
X153094819Y-128879047D01*
X153094819Y-128879047D02*
X153809104Y-128545714D01*
X153809104Y-128545714D02*
X153094819Y-128212381D01*
X153094819Y-128212381D02*
X154094819Y-128212381D01*
X154094819Y-127736190D02*
X153428152Y-127736190D01*
X153094819Y-127736190D02*
X153142438Y-127783809D01*
X153142438Y-127783809D02*
X153190057Y-127736190D01*
X153190057Y-127736190D02*
X153142438Y-127688571D01*
X153142438Y-127688571D02*
X153094819Y-127736190D01*
X153094819Y-127736190D02*
X153190057Y-127736190D01*
X154047200Y-126831429D02*
X154094819Y-126926667D01*
X154094819Y-126926667D02*
X154094819Y-127117143D01*
X154094819Y-127117143D02*
X154047200Y-127212381D01*
X154047200Y-127212381D02*
X153999580Y-127260000D01*
X153999580Y-127260000D02*
X153904342Y-127307619D01*
X153904342Y-127307619D02*
X153618628Y-127307619D01*
X153618628Y-127307619D02*
X153523390Y-127260000D01*
X153523390Y-127260000D02*
X153475771Y-127212381D01*
X153475771Y-127212381D02*
X153428152Y-127117143D01*
X153428152Y-127117143D02*
X153428152Y-126926667D01*
X153428152Y-126926667D02*
X153475771Y-126831429D01*
X154094819Y-126402857D02*
X153428152Y-126402857D01*
X153618628Y-126402857D02*
X153523390Y-126355238D01*
X153523390Y-126355238D02*
X153475771Y-126307619D01*
X153475771Y-126307619D02*
X153428152Y-126212381D01*
X153428152Y-126212381D02*
X153428152Y-126117143D01*
X154094819Y-125640952D02*
X154047200Y-125736190D01*
X154047200Y-125736190D02*
X153999580Y-125783809D01*
X153999580Y-125783809D02*
X153904342Y-125831428D01*
X153904342Y-125831428D02*
X153618628Y-125831428D01*
X153618628Y-125831428D02*
X153523390Y-125783809D01*
X153523390Y-125783809D02*
X153475771Y-125736190D01*
X153475771Y-125736190D02*
X153428152Y-125640952D01*
X153428152Y-125640952D02*
X153428152Y-125498095D01*
X153428152Y-125498095D02*
X153475771Y-125402857D01*
X153475771Y-125402857D02*
X153523390Y-125355238D01*
X153523390Y-125355238D02*
X153618628Y-125307619D01*
X153618628Y-125307619D02*
X153904342Y-125307619D01*
X153904342Y-125307619D02*
X153999580Y-125355238D01*
X153999580Y-125355238D02*
X154047200Y-125402857D01*
X154047200Y-125402857D02*
X154094819Y-125498095D01*
X154094819Y-125498095D02*
X154094819Y-125640952D01*
X154047200Y-124164761D02*
X154094819Y-124021904D01*
X154094819Y-124021904D02*
X154094819Y-123783809D01*
X154094819Y-123783809D02*
X154047200Y-123688571D01*
X154047200Y-123688571D02*
X153999580Y-123640952D01*
X153999580Y-123640952D02*
X153904342Y-123593333D01*
X153904342Y-123593333D02*
X153809104Y-123593333D01*
X153809104Y-123593333D02*
X153713866Y-123640952D01*
X153713866Y-123640952D02*
X153666247Y-123688571D01*
X153666247Y-123688571D02*
X153618628Y-123783809D01*
X153618628Y-123783809D02*
X153571009Y-123974285D01*
X153571009Y-123974285D02*
X153523390Y-124069523D01*
X153523390Y-124069523D02*
X153475771Y-124117142D01*
X153475771Y-124117142D02*
X153380533Y-124164761D01*
X153380533Y-124164761D02*
X153285295Y-124164761D01*
X153285295Y-124164761D02*
X153190057Y-124117142D01*
X153190057Y-124117142D02*
X153142438Y-124069523D01*
X153142438Y-124069523D02*
X153094819Y-123974285D01*
X153094819Y-123974285D02*
X153094819Y-123736190D01*
X153094819Y-123736190D02*
X153142438Y-123593333D01*
X154094819Y-123164761D02*
X153094819Y-123164761D01*
X153094819Y-123164761D02*
X153094819Y-122926666D01*
X153094819Y-122926666D02*
X153142438Y-122783809D01*
X153142438Y-122783809D02*
X153237676Y-122688571D01*
X153237676Y-122688571D02*
X153332914Y-122640952D01*
X153332914Y-122640952D02*
X153523390Y-122593333D01*
X153523390Y-122593333D02*
X153666247Y-122593333D01*
X153666247Y-122593333D02*
X153856723Y-122640952D01*
X153856723Y-122640952D02*
X153951961Y-122688571D01*
X153951961Y-122688571D02*
X154047200Y-122783809D01*
X154047200Y-122783809D02*
X154094819Y-122926666D01*
X154094819Y-122926666D02*
X154094819Y-123164761D01*
X150605619Y-86473723D02*
X151415142Y-86473723D01*
X151415142Y-86473723D02*
X151510380Y-86426104D01*
X151510380Y-86426104D02*
X151558000Y-86378485D01*
X151558000Y-86378485D02*
X151605619Y-86283247D01*
X151605619Y-86283247D02*
X151605619Y-86092771D01*
X151605619Y-86092771D02*
X151558000Y-85997533D01*
X151558000Y-85997533D02*
X151510380Y-85949914D01*
X151510380Y-85949914D02*
X151415142Y-85902295D01*
X151415142Y-85902295D02*
X150605619Y-85902295D01*
X151558000Y-85473723D02*
X151605619Y-85330866D01*
X151605619Y-85330866D02*
X151605619Y-85092771D01*
X151605619Y-85092771D02*
X151558000Y-84997533D01*
X151558000Y-84997533D02*
X151510380Y-84949914D01*
X151510380Y-84949914D02*
X151415142Y-84902295D01*
X151415142Y-84902295D02*
X151319904Y-84902295D01*
X151319904Y-84902295D02*
X151224666Y-84949914D01*
X151224666Y-84949914D02*
X151177047Y-84997533D01*
X151177047Y-84997533D02*
X151129428Y-85092771D01*
X151129428Y-85092771D02*
X151081809Y-85283247D01*
X151081809Y-85283247D02*
X151034190Y-85378485D01*
X151034190Y-85378485D02*
X150986571Y-85426104D01*
X150986571Y-85426104D02*
X150891333Y-85473723D01*
X150891333Y-85473723D02*
X150796095Y-85473723D01*
X150796095Y-85473723D02*
X150700857Y-85426104D01*
X150700857Y-85426104D02*
X150653238Y-85378485D01*
X150653238Y-85378485D02*
X150605619Y-85283247D01*
X150605619Y-85283247D02*
X150605619Y-85045152D01*
X150605619Y-85045152D02*
X150653238Y-84902295D01*
X151081809Y-84140390D02*
X151129428Y-83997533D01*
X151129428Y-83997533D02*
X151177047Y-83949914D01*
X151177047Y-83949914D02*
X151272285Y-83902295D01*
X151272285Y-83902295D02*
X151415142Y-83902295D01*
X151415142Y-83902295D02*
X151510380Y-83949914D01*
X151510380Y-83949914D02*
X151558000Y-83997533D01*
X151558000Y-83997533D02*
X151605619Y-84092771D01*
X151605619Y-84092771D02*
X151605619Y-84473723D01*
X151605619Y-84473723D02*
X150605619Y-84473723D01*
X150605619Y-84473723D02*
X150605619Y-84140390D01*
X150605619Y-84140390D02*
X150653238Y-84045152D01*
X150653238Y-84045152D02*
X150700857Y-83997533D01*
X150700857Y-83997533D02*
X150796095Y-83949914D01*
X150796095Y-83949914D02*
X150891333Y-83949914D01*
X150891333Y-83949914D02*
X150986571Y-83997533D01*
X150986571Y-83997533D02*
X151034190Y-84045152D01*
X151034190Y-84045152D02*
X151081809Y-84140390D01*
X151081809Y-84140390D02*
X151081809Y-84473723D01*
X151605619Y-82711818D02*
X150605619Y-82711818D01*
X151081809Y-82711818D02*
X151081809Y-82140390D01*
X151605619Y-82140390D02*
X150605619Y-82140390D01*
X151605619Y-81521342D02*
X151558000Y-81616580D01*
X151558000Y-81616580D02*
X151510380Y-81664199D01*
X151510380Y-81664199D02*
X151415142Y-81711818D01*
X151415142Y-81711818D02*
X151129428Y-81711818D01*
X151129428Y-81711818D02*
X151034190Y-81664199D01*
X151034190Y-81664199D02*
X150986571Y-81616580D01*
X150986571Y-81616580D02*
X150938952Y-81521342D01*
X150938952Y-81521342D02*
X150938952Y-81378485D01*
X150938952Y-81378485D02*
X150986571Y-81283247D01*
X150986571Y-81283247D02*
X151034190Y-81235628D01*
X151034190Y-81235628D02*
X151129428Y-81188009D01*
X151129428Y-81188009D02*
X151415142Y-81188009D01*
X151415142Y-81188009D02*
X151510380Y-81235628D01*
X151510380Y-81235628D02*
X151558000Y-81283247D01*
X151558000Y-81283247D02*
X151605619Y-81378485D01*
X151605619Y-81378485D02*
X151605619Y-81521342D01*
X151558000Y-80807056D02*
X151605619Y-80711818D01*
X151605619Y-80711818D02*
X151605619Y-80521342D01*
X151605619Y-80521342D02*
X151558000Y-80426104D01*
X151558000Y-80426104D02*
X151462761Y-80378485D01*
X151462761Y-80378485D02*
X151415142Y-80378485D01*
X151415142Y-80378485D02*
X151319904Y-80426104D01*
X151319904Y-80426104D02*
X151272285Y-80521342D01*
X151272285Y-80521342D02*
X151272285Y-80664199D01*
X151272285Y-80664199D02*
X151224666Y-80759437D01*
X151224666Y-80759437D02*
X151129428Y-80807056D01*
X151129428Y-80807056D02*
X151081809Y-80807056D01*
X151081809Y-80807056D02*
X150986571Y-80759437D01*
X150986571Y-80759437D02*
X150938952Y-80664199D01*
X150938952Y-80664199D02*
X150938952Y-80521342D01*
X150938952Y-80521342D02*
X150986571Y-80426104D01*
X150938952Y-80092770D02*
X150938952Y-79711818D01*
X150605619Y-79949913D02*
X151462761Y-79949913D01*
X151462761Y-79949913D02*
X151558000Y-79902294D01*
X151558000Y-79902294D02*
X151605619Y-79807056D01*
X151605619Y-79807056D02*
X151605619Y-79711818D01*
X152378095Y-74414819D02*
X152378095Y-75224342D01*
X152378095Y-75224342D02*
X152425714Y-75319580D01*
X152425714Y-75319580D02*
X152473333Y-75367200D01*
X152473333Y-75367200D02*
X152568571Y-75414819D01*
X152568571Y-75414819D02*
X152759047Y-75414819D01*
X152759047Y-75414819D02*
X152854285Y-75367200D01*
X152854285Y-75367200D02*
X152901904Y-75319580D01*
X152901904Y-75319580D02*
X152949523Y-75224342D01*
X152949523Y-75224342D02*
X152949523Y-74414819D01*
X153378095Y-75367200D02*
X153520952Y-75414819D01*
X153520952Y-75414819D02*
X153759047Y-75414819D01*
X153759047Y-75414819D02*
X153854285Y-75367200D01*
X153854285Y-75367200D02*
X153901904Y-75319580D01*
X153901904Y-75319580D02*
X153949523Y-75224342D01*
X153949523Y-75224342D02*
X153949523Y-75129104D01*
X153949523Y-75129104D02*
X153901904Y-75033866D01*
X153901904Y-75033866D02*
X153854285Y-74986247D01*
X153854285Y-74986247D02*
X153759047Y-74938628D01*
X153759047Y-74938628D02*
X153568571Y-74891009D01*
X153568571Y-74891009D02*
X153473333Y-74843390D01*
X153473333Y-74843390D02*
X153425714Y-74795771D01*
X153425714Y-74795771D02*
X153378095Y-74700533D01*
X153378095Y-74700533D02*
X153378095Y-74605295D01*
X153378095Y-74605295D02*
X153425714Y-74510057D01*
X153425714Y-74510057D02*
X153473333Y-74462438D01*
X153473333Y-74462438D02*
X153568571Y-74414819D01*
X153568571Y-74414819D02*
X153806666Y-74414819D01*
X153806666Y-74414819D02*
X153949523Y-74462438D01*
X154711428Y-74891009D02*
X154854285Y-74938628D01*
X154854285Y-74938628D02*
X154901904Y-74986247D01*
X154901904Y-74986247D02*
X154949523Y-75081485D01*
X154949523Y-75081485D02*
X154949523Y-75224342D01*
X154949523Y-75224342D02*
X154901904Y-75319580D01*
X154901904Y-75319580D02*
X154854285Y-75367200D01*
X154854285Y-75367200D02*
X154759047Y-75414819D01*
X154759047Y-75414819D02*
X154378095Y-75414819D01*
X154378095Y-75414819D02*
X154378095Y-74414819D01*
X154378095Y-74414819D02*
X154711428Y-74414819D01*
X154711428Y-74414819D02*
X154806666Y-74462438D01*
X154806666Y-74462438D02*
X154854285Y-74510057D01*
X154854285Y-74510057D02*
X154901904Y-74605295D01*
X154901904Y-74605295D02*
X154901904Y-74700533D01*
X154901904Y-74700533D02*
X154854285Y-74795771D01*
X154854285Y-74795771D02*
X154806666Y-74843390D01*
X154806666Y-74843390D02*
X154711428Y-74891009D01*
X154711428Y-74891009D02*
X154378095Y-74891009D01*
X150556666Y-100722295D02*
X150556666Y-99922295D01*
X150556666Y-99922295D02*
X150790000Y-100493723D01*
X150790000Y-100493723D02*
X151023333Y-99922295D01*
X151023333Y-99922295D02*
X151023333Y-100722295D01*
X151356666Y-100722295D02*
X151356666Y-99922295D01*
X151689999Y-100722295D02*
X151689999Y-99922295D01*
X151689999Y-99922295D02*
X151923333Y-100493723D01*
X151923333Y-100493723D02*
X152156666Y-99922295D01*
X152156666Y-99922295D02*
X152156666Y-100722295D01*
X152423333Y-99922295D02*
X152889999Y-100722295D01*
X152889999Y-99922295D02*
X152423333Y-100722295D01*
X153556666Y-100722295D02*
X153323333Y-100341342D01*
X153156666Y-100722295D02*
X153156666Y-99922295D01*
X153156666Y-99922295D02*
X153423333Y-99922295D01*
X153423333Y-99922295D02*
X153490000Y-99960390D01*
X153490000Y-99960390D02*
X153523333Y-99998485D01*
X153523333Y-99998485D02*
X153556666Y-100074676D01*
X153556666Y-100074676D02*
X153556666Y-100188961D01*
X153556666Y-100188961D02*
X153523333Y-100265152D01*
X153523333Y-100265152D02*
X153490000Y-100303247D01*
X153490000Y-100303247D02*
X153423333Y-100341342D01*
X153423333Y-100341342D02*
X153156666Y-100341342D01*
X153756666Y-99922295D02*
X154156666Y-99922295D01*
X153956666Y-100722295D02*
X153956666Y-99922295D01*
X154756666Y-100722295D02*
X154356666Y-100722295D01*
X154556666Y-100722295D02*
X154556666Y-99922295D01*
X154556666Y-99922295D02*
X154489999Y-100036580D01*
X154489999Y-100036580D02*
X154423333Y-100112771D01*
X154423333Y-100112771D02*
X154356666Y-100150866D01*
X155190000Y-99922295D02*
X155256666Y-99922295D01*
X155256666Y-99922295D02*
X155323333Y-99960390D01*
X155323333Y-99960390D02*
X155356666Y-99998485D01*
X155356666Y-99998485D02*
X155390000Y-100074676D01*
X155390000Y-100074676D02*
X155423333Y-100227057D01*
X155423333Y-100227057D02*
X155423333Y-100417533D01*
X155423333Y-100417533D02*
X155390000Y-100569914D01*
X155390000Y-100569914D02*
X155356666Y-100646104D01*
X155356666Y-100646104D02*
X155323333Y-100684200D01*
X155323333Y-100684200D02*
X155256666Y-100722295D01*
X155256666Y-100722295D02*
X155190000Y-100722295D01*
X155190000Y-100722295D02*
X155123333Y-100684200D01*
X155123333Y-100684200D02*
X155090000Y-100646104D01*
X155090000Y-100646104D02*
X155056666Y-100569914D01*
X155056666Y-100569914D02*
X155023333Y-100417533D01*
X155023333Y-100417533D02*
X155023333Y-100227057D01*
X155023333Y-100227057D02*
X155056666Y-100074676D01*
X155056666Y-100074676D02*
X155090000Y-99998485D01*
X155090000Y-99998485D02*
X155123333Y-99960390D01*
X155123333Y-99960390D02*
X155190000Y-99922295D01*
X156023333Y-99922295D02*
X155890000Y-99922295D01*
X155890000Y-99922295D02*
X155823333Y-99960390D01*
X155823333Y-99960390D02*
X155790000Y-99998485D01*
X155790000Y-99998485D02*
X155723333Y-100112771D01*
X155723333Y-100112771D02*
X155690000Y-100265152D01*
X155690000Y-100265152D02*
X155690000Y-100569914D01*
X155690000Y-100569914D02*
X155723333Y-100646104D01*
X155723333Y-100646104D02*
X155756667Y-100684200D01*
X155756667Y-100684200D02*
X155823333Y-100722295D01*
X155823333Y-100722295D02*
X155956667Y-100722295D01*
X155956667Y-100722295D02*
X156023333Y-100684200D01*
X156023333Y-100684200D02*
X156056667Y-100646104D01*
X156056667Y-100646104D02*
X156090000Y-100569914D01*
X156090000Y-100569914D02*
X156090000Y-100379438D01*
X156090000Y-100379438D02*
X156056667Y-100303247D01*
X156056667Y-100303247D02*
X156023333Y-100265152D01*
X156023333Y-100265152D02*
X155956667Y-100227057D01*
X155956667Y-100227057D02*
X155823333Y-100227057D01*
X155823333Y-100227057D02*
X155756667Y-100265152D01*
X155756667Y-100265152D02*
X155723333Y-100303247D01*
X155723333Y-100303247D02*
X155690000Y-100379438D01*
X156356667Y-99998485D02*
X156390000Y-99960390D01*
X156390000Y-99960390D02*
X156456667Y-99922295D01*
X156456667Y-99922295D02*
X156623334Y-99922295D01*
X156623334Y-99922295D02*
X156690000Y-99960390D01*
X156690000Y-99960390D02*
X156723334Y-99998485D01*
X156723334Y-99998485D02*
X156756667Y-100074676D01*
X156756667Y-100074676D02*
X156756667Y-100150866D01*
X156756667Y-100150866D02*
X156723334Y-100265152D01*
X156723334Y-100265152D02*
X156323334Y-100722295D01*
X156323334Y-100722295D02*
X156756667Y-100722295D01*
X161049047Y-154751009D02*
X161191904Y-154798628D01*
X161191904Y-154798628D02*
X161239523Y-154846247D01*
X161239523Y-154846247D02*
X161287142Y-154941485D01*
X161287142Y-154941485D02*
X161287142Y-155084342D01*
X161287142Y-155084342D02*
X161239523Y-155179580D01*
X161239523Y-155179580D02*
X161191904Y-155227200D01*
X161191904Y-155227200D02*
X161096666Y-155274819D01*
X161096666Y-155274819D02*
X160715714Y-155274819D01*
X160715714Y-155274819D02*
X160715714Y-154274819D01*
X160715714Y-154274819D02*
X161049047Y-154274819D01*
X161049047Y-154274819D02*
X161144285Y-154322438D01*
X161144285Y-154322438D02*
X161191904Y-154370057D01*
X161191904Y-154370057D02*
X161239523Y-154465295D01*
X161239523Y-154465295D02*
X161239523Y-154560533D01*
X161239523Y-154560533D02*
X161191904Y-154655771D01*
X161191904Y-154655771D02*
X161144285Y-154703390D01*
X161144285Y-154703390D02*
X161049047Y-154751009D01*
X161049047Y-154751009D02*
X160715714Y-154751009D01*
X161620476Y-154274819D02*
X162287142Y-154274819D01*
X162287142Y-154274819D02*
X161620476Y-155274819D01*
X161620476Y-155274819D02*
X162287142Y-155274819D01*
X162572857Y-154274819D02*
X163191904Y-154274819D01*
X163191904Y-154274819D02*
X162858571Y-154655771D01*
X162858571Y-154655771D02*
X163001428Y-154655771D01*
X163001428Y-154655771D02*
X163096666Y-154703390D01*
X163096666Y-154703390D02*
X163144285Y-154751009D01*
X163144285Y-154751009D02*
X163191904Y-154846247D01*
X163191904Y-154846247D02*
X163191904Y-155084342D01*
X163191904Y-155084342D02*
X163144285Y-155179580D01*
X163144285Y-155179580D02*
X163096666Y-155227200D01*
X163096666Y-155227200D02*
X163001428Y-155274819D01*
X163001428Y-155274819D02*
X162715714Y-155274819D01*
X162715714Y-155274819D02*
X162620476Y-155227200D01*
X162620476Y-155227200D02*
X162572857Y-155179580D01*
X180261905Y-66534819D02*
X180261905Y-65534819D01*
X180261905Y-65534819D02*
X180500000Y-65534819D01*
X180500000Y-65534819D02*
X180642857Y-65582438D01*
X180642857Y-65582438D02*
X180738095Y-65677676D01*
X180738095Y-65677676D02*
X180785714Y-65772914D01*
X180785714Y-65772914D02*
X180833333Y-65963390D01*
X180833333Y-65963390D02*
X180833333Y-66106247D01*
X180833333Y-66106247D02*
X180785714Y-66296723D01*
X180785714Y-66296723D02*
X180738095Y-66391961D01*
X180738095Y-66391961D02*
X180642857Y-66487200D01*
X180642857Y-66487200D02*
X180500000Y-66534819D01*
X180500000Y-66534819D02*
X180261905Y-66534819D01*
X181690476Y-65534819D02*
X181500000Y-65534819D01*
X181500000Y-65534819D02*
X181404762Y-65582438D01*
X181404762Y-65582438D02*
X181357143Y-65630057D01*
X181357143Y-65630057D02*
X181261905Y-65772914D01*
X181261905Y-65772914D02*
X181214286Y-65963390D01*
X181214286Y-65963390D02*
X181214286Y-66344342D01*
X181214286Y-66344342D02*
X181261905Y-66439580D01*
X181261905Y-66439580D02*
X181309524Y-66487200D01*
X181309524Y-66487200D02*
X181404762Y-66534819D01*
X181404762Y-66534819D02*
X181595238Y-66534819D01*
X181595238Y-66534819D02*
X181690476Y-66487200D01*
X181690476Y-66487200D02*
X181738095Y-66439580D01*
X181738095Y-66439580D02*
X181785714Y-66344342D01*
X181785714Y-66344342D02*
X181785714Y-66106247D01*
X181785714Y-66106247D02*
X181738095Y-66011009D01*
X181738095Y-66011009D02*
X181690476Y-65963390D01*
X181690476Y-65963390D02*
X181595238Y-65915771D01*
X181595238Y-65915771D02*
X181404762Y-65915771D01*
X181404762Y-65915771D02*
X181309524Y-65963390D01*
X181309524Y-65963390D02*
X181261905Y-66011009D01*
X181261905Y-66011009D02*
X181214286Y-66106247D01*
X178099819Y-83298094D02*
X177099819Y-83298094D01*
X177099819Y-83298094D02*
X177099819Y-83059999D01*
X177099819Y-83059999D02*
X177147438Y-82917142D01*
X177147438Y-82917142D02*
X177242676Y-82821904D01*
X177242676Y-82821904D02*
X177337914Y-82774285D01*
X177337914Y-82774285D02*
X177528390Y-82726666D01*
X177528390Y-82726666D02*
X177671247Y-82726666D01*
X177671247Y-82726666D02*
X177861723Y-82774285D01*
X177861723Y-82774285D02*
X177956961Y-82821904D01*
X177956961Y-82821904D02*
X178052200Y-82917142D01*
X178052200Y-82917142D02*
X178099819Y-83059999D01*
X178099819Y-83059999D02*
X178099819Y-83298094D01*
X177099819Y-82393332D02*
X177099819Y-81774285D01*
X177099819Y-81774285D02*
X177480771Y-82107618D01*
X177480771Y-82107618D02*
X177480771Y-81964761D01*
X177480771Y-81964761D02*
X177528390Y-81869523D01*
X177528390Y-81869523D02*
X177576009Y-81821904D01*
X177576009Y-81821904D02*
X177671247Y-81774285D01*
X177671247Y-81774285D02*
X177909342Y-81774285D01*
X177909342Y-81774285D02*
X178004580Y-81821904D01*
X178004580Y-81821904D02*
X178052200Y-81869523D01*
X178052200Y-81869523D02*
X178099819Y-81964761D01*
X178099819Y-81964761D02*
X178099819Y-82250475D01*
X178099819Y-82250475D02*
X178052200Y-82345713D01*
X178052200Y-82345713D02*
X178004580Y-82393332D01*
X165099819Y-82726666D02*
X164623628Y-83059999D01*
X165099819Y-83298094D02*
X164099819Y-83298094D01*
X164099819Y-83298094D02*
X164099819Y-82917142D01*
X164099819Y-82917142D02*
X164147438Y-82821904D01*
X164147438Y-82821904D02*
X164195057Y-82774285D01*
X164195057Y-82774285D02*
X164290295Y-82726666D01*
X164290295Y-82726666D02*
X164433152Y-82726666D01*
X164433152Y-82726666D02*
X164528390Y-82774285D01*
X164528390Y-82774285D02*
X164576009Y-82821904D01*
X164576009Y-82821904D02*
X164623628Y-82917142D01*
X164623628Y-82917142D02*
X164623628Y-83298094D01*
X165099819Y-81774285D02*
X165099819Y-82345713D01*
X165099819Y-82059999D02*
X164099819Y-82059999D01*
X164099819Y-82059999D02*
X164242676Y-82155237D01*
X164242676Y-82155237D02*
X164337914Y-82250475D01*
X164337914Y-82250475D02*
X164385533Y-82345713D01*
X129200476Y-74104819D02*
X129200476Y-74819104D01*
X129200476Y-74819104D02*
X129152857Y-74961961D01*
X129152857Y-74961961D02*
X129057619Y-75057200D01*
X129057619Y-75057200D02*
X128914762Y-75104819D01*
X128914762Y-75104819D02*
X128819524Y-75104819D01*
X130200476Y-75104819D02*
X129629048Y-75104819D01*
X129914762Y-75104819D02*
X129914762Y-74104819D01*
X129914762Y-74104819D02*
X129819524Y-74247676D01*
X129819524Y-74247676D02*
X129724286Y-74342914D01*
X129724286Y-74342914D02*
X129629048Y-74390533D01*
X130819524Y-74104819D02*
X130914762Y-74104819D01*
X130914762Y-74104819D02*
X131010000Y-74152438D01*
X131010000Y-74152438D02*
X131057619Y-74200057D01*
X131057619Y-74200057D02*
X131105238Y-74295295D01*
X131105238Y-74295295D02*
X131152857Y-74485771D01*
X131152857Y-74485771D02*
X131152857Y-74723866D01*
X131152857Y-74723866D02*
X131105238Y-74914342D01*
X131105238Y-74914342D02*
X131057619Y-75009580D01*
X131057619Y-75009580D02*
X131010000Y-75057200D01*
X131010000Y-75057200D02*
X130914762Y-75104819D01*
X130914762Y-75104819D02*
X130819524Y-75104819D01*
X130819524Y-75104819D02*
X130724286Y-75057200D01*
X130724286Y-75057200D02*
X130676667Y-75009580D01*
X130676667Y-75009580D02*
X130629048Y-74914342D01*
X130629048Y-74914342D02*
X130581429Y-74723866D01*
X130581429Y-74723866D02*
X130581429Y-74485771D01*
X130581429Y-74485771D02*
X130629048Y-74295295D01*
X130629048Y-74295295D02*
X130676667Y-74200057D01*
X130676667Y-74200057D02*
X130724286Y-74152438D01*
X130724286Y-74152438D02*
X130819524Y-74104819D01*
X137620476Y-74164819D02*
X137620476Y-74879104D01*
X137620476Y-74879104D02*
X137572857Y-75021961D01*
X137572857Y-75021961D02*
X137477619Y-75117200D01*
X137477619Y-75117200D02*
X137334762Y-75164819D01*
X137334762Y-75164819D02*
X137239524Y-75164819D01*
X138620476Y-75164819D02*
X138049048Y-75164819D01*
X138334762Y-75164819D02*
X138334762Y-74164819D01*
X138334762Y-74164819D02*
X138239524Y-74307676D01*
X138239524Y-74307676D02*
X138144286Y-74402914D01*
X138144286Y-74402914D02*
X138049048Y-74450533D01*
X139001429Y-74260057D02*
X139049048Y-74212438D01*
X139049048Y-74212438D02*
X139144286Y-74164819D01*
X139144286Y-74164819D02*
X139382381Y-74164819D01*
X139382381Y-74164819D02*
X139477619Y-74212438D01*
X139477619Y-74212438D02*
X139525238Y-74260057D01*
X139525238Y-74260057D02*
X139572857Y-74355295D01*
X139572857Y-74355295D02*
X139572857Y-74450533D01*
X139572857Y-74450533D02*
X139525238Y-74593390D01*
X139525238Y-74593390D02*
X138953810Y-75164819D01*
X138953810Y-75164819D02*
X139572857Y-75164819D01*
X121036666Y-74184819D02*
X121036666Y-74899104D01*
X121036666Y-74899104D02*
X120989047Y-75041961D01*
X120989047Y-75041961D02*
X120893809Y-75137200D01*
X120893809Y-75137200D02*
X120750952Y-75184819D01*
X120750952Y-75184819D02*
X120655714Y-75184819D01*
X121560476Y-75184819D02*
X121750952Y-75184819D01*
X121750952Y-75184819D02*
X121846190Y-75137200D01*
X121846190Y-75137200D02*
X121893809Y-75089580D01*
X121893809Y-75089580D02*
X121989047Y-74946723D01*
X121989047Y-74946723D02*
X122036666Y-74756247D01*
X122036666Y-74756247D02*
X122036666Y-74375295D01*
X122036666Y-74375295D02*
X121989047Y-74280057D01*
X121989047Y-74280057D02*
X121941428Y-74232438D01*
X121941428Y-74232438D02*
X121846190Y-74184819D01*
X121846190Y-74184819D02*
X121655714Y-74184819D01*
X121655714Y-74184819D02*
X121560476Y-74232438D01*
X121560476Y-74232438D02*
X121512857Y-74280057D01*
X121512857Y-74280057D02*
X121465238Y-74375295D01*
X121465238Y-74375295D02*
X121465238Y-74613390D01*
X121465238Y-74613390D02*
X121512857Y-74708628D01*
X121512857Y-74708628D02*
X121560476Y-74756247D01*
X121560476Y-74756247D02*
X121655714Y-74803866D01*
X121655714Y-74803866D02*
X121846190Y-74803866D01*
X121846190Y-74803866D02*
X121941428Y-74756247D01*
X121941428Y-74756247D02*
X121989047Y-74708628D01*
X121989047Y-74708628D02*
X122036666Y-74613390D01*
X108366666Y-110264819D02*
X108366666Y-110979104D01*
X108366666Y-110979104D02*
X108319047Y-111121961D01*
X108319047Y-111121961D02*
X108223809Y-111217200D01*
X108223809Y-111217200D02*
X108080952Y-111264819D01*
X108080952Y-111264819D02*
X107985714Y-111264819D01*
X108747619Y-110264819D02*
X109414285Y-110264819D01*
X109414285Y-110264819D02*
X108985714Y-111264819D01*
X108466666Y-101874819D02*
X108466666Y-102589104D01*
X108466666Y-102589104D02*
X108419047Y-102731961D01*
X108419047Y-102731961D02*
X108323809Y-102827200D01*
X108323809Y-102827200D02*
X108180952Y-102874819D01*
X108180952Y-102874819D02*
X108085714Y-102874819D01*
X109419047Y-101874819D02*
X108942857Y-101874819D01*
X108942857Y-101874819D02*
X108895238Y-102351009D01*
X108895238Y-102351009D02*
X108942857Y-102303390D01*
X108942857Y-102303390D02*
X109038095Y-102255771D01*
X109038095Y-102255771D02*
X109276190Y-102255771D01*
X109276190Y-102255771D02*
X109371428Y-102303390D01*
X109371428Y-102303390D02*
X109419047Y-102351009D01*
X109419047Y-102351009D02*
X109466666Y-102446247D01*
X109466666Y-102446247D02*
X109466666Y-102684342D01*
X109466666Y-102684342D02*
X109419047Y-102779580D01*
X109419047Y-102779580D02*
X109371428Y-102827200D01*
X109371428Y-102827200D02*
X109276190Y-102874819D01*
X109276190Y-102874819D02*
X109038095Y-102874819D01*
X109038095Y-102874819D02*
X108942857Y-102827200D01*
X108942857Y-102827200D02*
X108895238Y-102779580D01*
X107726666Y-93444819D02*
X107726666Y-94159104D01*
X107726666Y-94159104D02*
X107679047Y-94301961D01*
X107679047Y-94301961D02*
X107583809Y-94397200D01*
X107583809Y-94397200D02*
X107440952Y-94444819D01*
X107440952Y-94444819D02*
X107345714Y-94444819D01*
X108107619Y-93444819D02*
X108726666Y-93444819D01*
X108726666Y-93444819D02*
X108393333Y-93825771D01*
X108393333Y-93825771D02*
X108536190Y-93825771D01*
X108536190Y-93825771D02*
X108631428Y-93873390D01*
X108631428Y-93873390D02*
X108679047Y-93921009D01*
X108679047Y-93921009D02*
X108726666Y-94016247D01*
X108726666Y-94016247D02*
X108726666Y-94254342D01*
X108726666Y-94254342D02*
X108679047Y-94349580D01*
X108679047Y-94349580D02*
X108631428Y-94397200D01*
X108631428Y-94397200D02*
X108536190Y-94444819D01*
X108536190Y-94444819D02*
X108250476Y-94444819D01*
X108250476Y-94444819D02*
X108155238Y-94397200D01*
X108155238Y-94397200D02*
X108107619Y-94349580D01*
X108206666Y-84224819D02*
X108206666Y-84939104D01*
X108206666Y-84939104D02*
X108159047Y-85081961D01*
X108159047Y-85081961D02*
X108063809Y-85177200D01*
X108063809Y-85177200D02*
X107920952Y-85224819D01*
X107920952Y-85224819D02*
X107825714Y-85224819D01*
X109206666Y-85224819D02*
X108635238Y-85224819D01*
X108920952Y-85224819D02*
X108920952Y-84224819D01*
X108920952Y-84224819D02*
X108825714Y-84367676D01*
X108825714Y-84367676D02*
X108730476Y-84462914D01*
X108730476Y-84462914D02*
X108635238Y-84510533D01*
X179132819Y-111422333D02*
X179847104Y-111422333D01*
X179847104Y-111422333D02*
X179989961Y-111469952D01*
X179989961Y-111469952D02*
X180085200Y-111565190D01*
X180085200Y-111565190D02*
X180132819Y-111708047D01*
X180132819Y-111708047D02*
X180132819Y-111803285D01*
X179228057Y-110993761D02*
X179180438Y-110946142D01*
X179180438Y-110946142D02*
X179132819Y-110850904D01*
X179132819Y-110850904D02*
X179132819Y-110612809D01*
X179132819Y-110612809D02*
X179180438Y-110517571D01*
X179180438Y-110517571D02*
X179228057Y-110469952D01*
X179228057Y-110469952D02*
X179323295Y-110422333D01*
X179323295Y-110422333D02*
X179418533Y-110422333D01*
X179418533Y-110422333D02*
X179561390Y-110469952D01*
X179561390Y-110469952D02*
X180132819Y-111041380D01*
X180132819Y-111041380D02*
X180132819Y-110422333D01*
X189038819Y-111422333D02*
X189753104Y-111422333D01*
X189753104Y-111422333D02*
X189895961Y-111469952D01*
X189895961Y-111469952D02*
X189991200Y-111565190D01*
X189991200Y-111565190D02*
X190038819Y-111708047D01*
X190038819Y-111708047D02*
X190038819Y-111803285D01*
X189372152Y-110517571D02*
X190038819Y-110517571D01*
X188991200Y-110755666D02*
X189705485Y-110993761D01*
X189705485Y-110993761D02*
X189705485Y-110374714D01*
X179124819Y-124933333D02*
X179839104Y-124933333D01*
X179839104Y-124933333D02*
X179981961Y-124980952D01*
X179981961Y-124980952D02*
X180077200Y-125076190D01*
X180077200Y-125076190D02*
X180124819Y-125219047D01*
X180124819Y-125219047D02*
X180124819Y-125314285D01*
X179124819Y-124028571D02*
X179124819Y-124219047D01*
X179124819Y-124219047D02*
X179172438Y-124314285D01*
X179172438Y-124314285D02*
X179220057Y-124361904D01*
X179220057Y-124361904D02*
X179362914Y-124457142D01*
X179362914Y-124457142D02*
X179553390Y-124504761D01*
X179553390Y-124504761D02*
X179934342Y-124504761D01*
X179934342Y-124504761D02*
X180029580Y-124457142D01*
X180029580Y-124457142D02*
X180077200Y-124409523D01*
X180077200Y-124409523D02*
X180124819Y-124314285D01*
X180124819Y-124314285D02*
X180124819Y-124123809D01*
X180124819Y-124123809D02*
X180077200Y-124028571D01*
X180077200Y-124028571D02*
X180029580Y-123980952D01*
X180029580Y-123980952D02*
X179934342Y-123933333D01*
X179934342Y-123933333D02*
X179696247Y-123933333D01*
X179696247Y-123933333D02*
X179601009Y-123980952D01*
X179601009Y-123980952D02*
X179553390Y-124028571D01*
X179553390Y-124028571D02*
X179505771Y-124123809D01*
X179505771Y-124123809D02*
X179505771Y-124314285D01*
X179505771Y-124314285D02*
X179553390Y-124409523D01*
X179553390Y-124409523D02*
X179601009Y-124457142D01*
X179601009Y-124457142D02*
X179696247Y-124504761D01*
X188994819Y-124943333D02*
X189709104Y-124943333D01*
X189709104Y-124943333D02*
X189851961Y-124990952D01*
X189851961Y-124990952D02*
X189947200Y-125086190D01*
X189947200Y-125086190D02*
X189994819Y-125229047D01*
X189994819Y-125229047D02*
X189994819Y-125324285D01*
X189423390Y-124324285D02*
X189375771Y-124419523D01*
X189375771Y-124419523D02*
X189328152Y-124467142D01*
X189328152Y-124467142D02*
X189232914Y-124514761D01*
X189232914Y-124514761D02*
X189185295Y-124514761D01*
X189185295Y-124514761D02*
X189090057Y-124467142D01*
X189090057Y-124467142D02*
X189042438Y-124419523D01*
X189042438Y-124419523D02*
X188994819Y-124324285D01*
X188994819Y-124324285D02*
X188994819Y-124133809D01*
X188994819Y-124133809D02*
X189042438Y-124038571D01*
X189042438Y-124038571D02*
X189090057Y-123990952D01*
X189090057Y-123990952D02*
X189185295Y-123943333D01*
X189185295Y-123943333D02*
X189232914Y-123943333D01*
X189232914Y-123943333D02*
X189328152Y-123990952D01*
X189328152Y-123990952D02*
X189375771Y-124038571D01*
X189375771Y-124038571D02*
X189423390Y-124133809D01*
X189423390Y-124133809D02*
X189423390Y-124324285D01*
X189423390Y-124324285D02*
X189471009Y-124419523D01*
X189471009Y-124419523D02*
X189518628Y-124467142D01*
X189518628Y-124467142D02*
X189613866Y-124514761D01*
X189613866Y-124514761D02*
X189804342Y-124514761D01*
X189804342Y-124514761D02*
X189899580Y-124467142D01*
X189899580Y-124467142D02*
X189947200Y-124419523D01*
X189947200Y-124419523D02*
X189994819Y-124324285D01*
X189994819Y-124324285D02*
X189994819Y-124133809D01*
X189994819Y-124133809D02*
X189947200Y-124038571D01*
X189947200Y-124038571D02*
X189899580Y-123990952D01*
X189899580Y-123990952D02*
X189804342Y-123943333D01*
X189804342Y-123943333D02*
X189613866Y-123943333D01*
X189613866Y-123943333D02*
X189518628Y-123990952D01*
X189518628Y-123990952D02*
X189471009Y-124038571D01*
X189471009Y-124038571D02*
X189423390Y-124133809D01*
X110454819Y-129761904D02*
X111264342Y-129761904D01*
X111264342Y-129761904D02*
X111359580Y-129714285D01*
X111359580Y-129714285D02*
X111407200Y-129666666D01*
X111407200Y-129666666D02*
X111454819Y-129571428D01*
X111454819Y-129571428D02*
X111454819Y-129380952D01*
X111454819Y-129380952D02*
X111407200Y-129285714D01*
X111407200Y-129285714D02*
X111359580Y-129238095D01*
X111359580Y-129238095D02*
X111264342Y-129190476D01*
X111264342Y-129190476D02*
X110454819Y-129190476D01*
X110788152Y-128285714D02*
X111454819Y-128285714D01*
X110407200Y-128523809D02*
X111121485Y-128761904D01*
X111121485Y-128761904D02*
X111121485Y-128142857D01*
X110454819Y-143761904D02*
X111264342Y-143761904D01*
X111264342Y-143761904D02*
X111359580Y-143714285D01*
X111359580Y-143714285D02*
X111407200Y-143666666D01*
X111407200Y-143666666D02*
X111454819Y-143571428D01*
X111454819Y-143571428D02*
X111454819Y-143380952D01*
X111454819Y-143380952D02*
X111407200Y-143285714D01*
X111407200Y-143285714D02*
X111359580Y-143238095D01*
X111359580Y-143238095D02*
X111264342Y-143190476D01*
X111264342Y-143190476D02*
X110454819Y-143190476D01*
X110454819Y-142238095D02*
X110454819Y-142714285D01*
X110454819Y-142714285D02*
X110931009Y-142761904D01*
X110931009Y-142761904D02*
X110883390Y-142714285D01*
X110883390Y-142714285D02*
X110835771Y-142619047D01*
X110835771Y-142619047D02*
X110835771Y-142380952D01*
X110835771Y-142380952D02*
X110883390Y-142285714D01*
X110883390Y-142285714D02*
X110931009Y-142238095D01*
X110931009Y-142238095D02*
X111026247Y-142190476D01*
X111026247Y-142190476D02*
X111264342Y-142190476D01*
X111264342Y-142190476D02*
X111359580Y-142238095D01*
X111359580Y-142238095D02*
X111407200Y-142285714D01*
X111407200Y-142285714D02*
X111454819Y-142380952D01*
X111454819Y-142380952D02*
X111454819Y-142619047D01*
X111454819Y-142619047D02*
X111407200Y-142714285D01*
X111407200Y-142714285D02*
X111359580Y-142761904D01*
X110454819Y-136761904D02*
X111264342Y-136761904D01*
X111264342Y-136761904D02*
X111359580Y-136714285D01*
X111359580Y-136714285D02*
X111407200Y-136666666D01*
X111407200Y-136666666D02*
X111454819Y-136571428D01*
X111454819Y-136571428D02*
X111454819Y-136380952D01*
X111454819Y-136380952D02*
X111407200Y-136285714D01*
X111407200Y-136285714D02*
X111359580Y-136238095D01*
X111359580Y-136238095D02*
X111264342Y-136190476D01*
X111264342Y-136190476D02*
X110454819Y-136190476D01*
X110454819Y-135285714D02*
X110454819Y-135476190D01*
X110454819Y-135476190D02*
X110502438Y-135571428D01*
X110502438Y-135571428D02*
X110550057Y-135619047D01*
X110550057Y-135619047D02*
X110692914Y-135714285D01*
X110692914Y-135714285D02*
X110883390Y-135761904D01*
X110883390Y-135761904D02*
X111264342Y-135761904D01*
X111264342Y-135761904D02*
X111359580Y-135714285D01*
X111359580Y-135714285D02*
X111407200Y-135666666D01*
X111407200Y-135666666D02*
X111454819Y-135571428D01*
X111454819Y-135571428D02*
X111454819Y-135380952D01*
X111454819Y-135380952D02*
X111407200Y-135285714D01*
X111407200Y-135285714D02*
X111359580Y-135238095D01*
X111359580Y-135238095D02*
X111264342Y-135190476D01*
X111264342Y-135190476D02*
X111026247Y-135190476D01*
X111026247Y-135190476D02*
X110931009Y-135238095D01*
X110931009Y-135238095D02*
X110883390Y-135285714D01*
X110883390Y-135285714D02*
X110835771Y-135380952D01*
X110835771Y-135380952D02*
X110835771Y-135571428D01*
X110835771Y-135571428D02*
X110883390Y-135666666D01*
X110883390Y-135666666D02*
X110931009Y-135714285D01*
X110931009Y-135714285D02*
X111026247Y-135761904D01*
X110454819Y-150761904D02*
X111264342Y-150761904D01*
X111264342Y-150761904D02*
X111359580Y-150714285D01*
X111359580Y-150714285D02*
X111407200Y-150666666D01*
X111407200Y-150666666D02*
X111454819Y-150571428D01*
X111454819Y-150571428D02*
X111454819Y-150380952D01*
X111454819Y-150380952D02*
X111407200Y-150285714D01*
X111407200Y-150285714D02*
X111359580Y-150238095D01*
X111359580Y-150238095D02*
X111264342Y-150190476D01*
X111264342Y-150190476D02*
X110454819Y-150190476D01*
X110454819Y-149809523D02*
X110454819Y-149142857D01*
X110454819Y-149142857D02*
X111454819Y-149571428D01*
X182968095Y-102024819D02*
X182968095Y-102834342D01*
X182968095Y-102834342D02*
X183015714Y-102929580D01*
X183015714Y-102929580D02*
X183063333Y-102977200D01*
X183063333Y-102977200D02*
X183158571Y-103024819D01*
X183158571Y-103024819D02*
X183349047Y-103024819D01*
X183349047Y-103024819D02*
X183444285Y-102977200D01*
X183444285Y-102977200D02*
X183491904Y-102929580D01*
X183491904Y-102929580D02*
X183539523Y-102834342D01*
X183539523Y-102834342D02*
X183539523Y-102024819D01*
X184158571Y-102453390D02*
X184063333Y-102405771D01*
X184063333Y-102405771D02*
X184015714Y-102358152D01*
X184015714Y-102358152D02*
X183968095Y-102262914D01*
X183968095Y-102262914D02*
X183968095Y-102215295D01*
X183968095Y-102215295D02*
X184015714Y-102120057D01*
X184015714Y-102120057D02*
X184063333Y-102072438D01*
X184063333Y-102072438D02*
X184158571Y-102024819D01*
X184158571Y-102024819D02*
X184349047Y-102024819D01*
X184349047Y-102024819D02*
X184444285Y-102072438D01*
X184444285Y-102072438D02*
X184491904Y-102120057D01*
X184491904Y-102120057D02*
X184539523Y-102215295D01*
X184539523Y-102215295D02*
X184539523Y-102262914D01*
X184539523Y-102262914D02*
X184491904Y-102358152D01*
X184491904Y-102358152D02*
X184444285Y-102405771D01*
X184444285Y-102405771D02*
X184349047Y-102453390D01*
X184349047Y-102453390D02*
X184158571Y-102453390D01*
X184158571Y-102453390D02*
X184063333Y-102501009D01*
X184063333Y-102501009D02*
X184015714Y-102548628D01*
X184015714Y-102548628D02*
X183968095Y-102643866D01*
X183968095Y-102643866D02*
X183968095Y-102834342D01*
X183968095Y-102834342D02*
X184015714Y-102929580D01*
X184015714Y-102929580D02*
X184063333Y-102977200D01*
X184063333Y-102977200D02*
X184158571Y-103024819D01*
X184158571Y-103024819D02*
X184349047Y-103024819D01*
X184349047Y-103024819D02*
X184444285Y-102977200D01*
X184444285Y-102977200D02*
X184491904Y-102929580D01*
X184491904Y-102929580D02*
X184539523Y-102834342D01*
X184539523Y-102834342D02*
X184539523Y-102643866D01*
X184539523Y-102643866D02*
X184491904Y-102548628D01*
X184491904Y-102548628D02*
X184444285Y-102501009D01*
X184444285Y-102501009D02*
X184349047Y-102453390D01*
D17*
%TO.C,J11*%
X142570000Y-62770000D02*
X142570000Y-64150000D01*
X141190000Y-62770000D02*
X142570000Y-62770000D01*
X139920000Y-62770000D02*
X137270000Y-62770000D01*
X139920000Y-62770000D02*
X139920000Y-65530000D01*
X137270000Y-62770000D02*
X137270000Y-65530000D01*
X139920000Y-65530000D02*
X137270000Y-65530000D01*
%TO.C,J13*%
X138800000Y-89610000D02*
X140180000Y-89610000D01*
X138800000Y-90990000D02*
X138800000Y-89610000D01*
X138800000Y-92260000D02*
X138800000Y-94910000D01*
X138800000Y-92260000D02*
X141560000Y-92260000D01*
X138800000Y-94910000D02*
X141560000Y-94910000D01*
X141560000Y-92260000D02*
X141560000Y-94910000D01*
%TO.C,U1*%
X126540000Y-76190000D02*
X125290000Y-76190000D01*
X125290000Y-76190000D02*
X125290000Y-77440000D01*
X135690000Y-78740000D02*
X134940000Y-78740000D01*
X134940000Y-78740000D02*
X134940000Y-81690000D01*
X126340000Y-78740000D02*
X126340000Y-81690000D01*
X125590000Y-78740000D02*
X126340000Y-78740000D01*
X125030000Y-80940000D02*
X123780000Y-80940000D01*
X122480000Y-81240000D02*
X122480000Y-81990000D01*
X134940000Y-81690000D02*
X130640000Y-81690000D01*
X126340000Y-81690000D02*
X130640000Y-81690000D01*
X122480000Y-81990000D02*
X121140000Y-81990000D01*
X125030000Y-82190000D02*
X125030000Y-80940000D01*
X134020000Y-84930000D02*
X132770000Y-84930000D01*
X119530000Y-85040000D02*
X119530000Y-83050000D01*
X131470000Y-85230000D02*
X131470000Y-85980000D01*
X131470000Y-85980000D02*
X128520000Y-85980000D01*
X128520000Y-85980000D02*
X128520000Y-91530000D01*
X134020000Y-86180000D02*
X134020000Y-84930000D01*
X122480000Y-88090000D02*
X119530000Y-88090000D01*
X119530000Y-88090000D02*
X119530000Y-85040000D01*
X122480000Y-88840000D02*
X122480000Y-88090000D01*
X125030000Y-89930000D02*
X123780000Y-89930000D01*
X122480000Y-90230000D02*
X122480000Y-90980000D01*
X122480000Y-90980000D02*
X121140000Y-90980000D01*
X125030000Y-91180000D02*
X125030000Y-89930000D01*
X119530000Y-94030000D02*
X119530000Y-92040000D01*
X131470000Y-97080000D02*
X128520000Y-97080000D01*
X128520000Y-97080000D02*
X128520000Y-91530000D01*
X122480000Y-97080000D02*
X119530000Y-97080000D01*
X119530000Y-97080000D02*
X119530000Y-94030000D01*
X131470000Y-97830000D02*
X131470000Y-97080000D01*
X122480000Y-97830000D02*
X122480000Y-97080000D01*
D10*
X136220000Y-75810000D02*
X117200000Y-75810000D01*
X117200000Y-98860000D01*
X136220000Y-98860000D01*
X136220000Y-75810000D01*
D17*
X135700000Y-76480000D02*
X125580000Y-76480000D01*
X125580000Y-82450000D01*
X135700000Y-82450000D01*
X135700000Y-76480000D01*
X135690000Y-76490000D02*
X133890000Y-76490000D01*
X133890000Y-77240000D01*
X135690000Y-77240000D01*
X135690000Y-76490000D01*
X132390000Y-76490000D02*
X128890000Y-76490000D01*
X128890000Y-77240000D01*
X132390000Y-77240000D01*
X132390000Y-76490000D01*
X127390000Y-76490000D02*
X125590000Y-76490000D01*
X125590000Y-77240000D01*
X127390000Y-77240000D01*
X127390000Y-76490000D01*
X124740000Y-81230000D02*
X118770000Y-81230000D01*
X118770000Y-88850000D01*
X124740000Y-88850000D01*
X124740000Y-81230000D01*
X124730000Y-81240000D02*
X123980000Y-81240000D01*
X123980000Y-83040000D01*
X124730000Y-83040000D01*
X124730000Y-81240000D01*
X124730000Y-84540000D02*
X123980000Y-84540000D01*
X123980000Y-85540000D01*
X124730000Y-85540000D01*
X124730000Y-84540000D01*
X133730000Y-85220000D02*
X127760000Y-85220000D01*
X127760000Y-97840000D01*
X133730000Y-97840000D01*
X133730000Y-85220000D01*
X133720000Y-85230000D02*
X132970000Y-85230000D01*
X132970000Y-87030000D01*
X133720000Y-87030000D01*
X133720000Y-85230000D01*
X124730000Y-87040000D02*
X123980000Y-87040000D01*
X123980000Y-88840000D01*
X124730000Y-88840000D01*
X124730000Y-87040000D01*
X133720000Y-88530000D02*
X132970000Y-88530000D01*
X132970000Y-94530000D01*
X133720000Y-94530000D01*
X133720000Y-88530000D01*
X124740000Y-90220000D02*
X118770000Y-90220000D01*
X118770000Y-97840000D01*
X124740000Y-97840000D01*
X124740000Y-90220000D01*
X124730000Y-90230000D02*
X123980000Y-90230000D01*
X123980000Y-92030000D01*
X124730000Y-92030000D01*
X124730000Y-90230000D01*
X124730000Y-93530000D02*
X123980000Y-93530000D01*
X123980000Y-94530000D01*
X124730000Y-94530000D01*
X124730000Y-93530000D01*
X133720000Y-96030000D02*
X132970000Y-96030000D01*
X132970000Y-97830000D01*
X133720000Y-97830000D01*
X133720000Y-96030000D01*
X124730000Y-96030000D02*
X123980000Y-96030000D01*
X123980000Y-97830000D01*
X124730000Y-97830000D01*
X124730000Y-96030000D01*
%TO.C,U2*%
X126520000Y-100045000D02*
X125270000Y-100045000D01*
X125270000Y-100045000D02*
X125270000Y-101295000D01*
X135670000Y-102595000D02*
X134920000Y-102595000D01*
X134920000Y-102595000D02*
X134920000Y-105545000D01*
X126320000Y-102595000D02*
X126320000Y-105545000D01*
X125570000Y-102595000D02*
X126320000Y-102595000D01*
X125010000Y-104795000D02*
X123760000Y-104795000D01*
X122460000Y-105095000D02*
X122460000Y-105845000D01*
X134920000Y-105545000D02*
X130620000Y-105545000D01*
X126320000Y-105545000D02*
X130620000Y-105545000D01*
X122460000Y-105845000D02*
X121120000Y-105845000D01*
X125010000Y-106045000D02*
X125010000Y-104795000D01*
X134000000Y-108785000D02*
X132750000Y-108785000D01*
X119510000Y-108895000D02*
X119510000Y-106905000D01*
X131450000Y-109085000D02*
X131450000Y-109835000D01*
X131450000Y-109835000D02*
X128500000Y-109835000D01*
X128500000Y-109835000D02*
X128500000Y-115385000D01*
X134000000Y-110035000D02*
X134000000Y-108785000D01*
X122460000Y-111945000D02*
X119510000Y-111945000D01*
X119510000Y-111945000D02*
X119510000Y-108895000D01*
X122460000Y-112695000D02*
X122460000Y-111945000D01*
X125010000Y-113785000D02*
X123760000Y-113785000D01*
X122460000Y-114085000D02*
X122460000Y-114835000D01*
X122460000Y-114835000D02*
X121120000Y-114835000D01*
X125010000Y-115035000D02*
X125010000Y-113785000D01*
X119510000Y-117885000D02*
X119510000Y-115895000D01*
X131450000Y-120935000D02*
X128500000Y-120935000D01*
X128500000Y-120935000D02*
X128500000Y-115385000D01*
X122460000Y-120935000D02*
X119510000Y-120935000D01*
X119510000Y-120935000D02*
X119510000Y-117885000D01*
X131450000Y-121685000D02*
X131450000Y-120935000D01*
X122460000Y-121685000D02*
X122460000Y-120935000D01*
D10*
X136200000Y-99665000D02*
X117180000Y-99665000D01*
X117180000Y-122715000D01*
X136200000Y-122715000D01*
X136200000Y-99665000D01*
D17*
X135680000Y-100335000D02*
X125560000Y-100335000D01*
X125560000Y-106305000D01*
X135680000Y-106305000D01*
X135680000Y-100335000D01*
X135670000Y-100345000D02*
X133870000Y-100345000D01*
X133870000Y-101095000D01*
X135670000Y-101095000D01*
X135670000Y-100345000D01*
X132370000Y-100345000D02*
X128870000Y-100345000D01*
X128870000Y-101095000D01*
X132370000Y-101095000D01*
X132370000Y-100345000D01*
X127370000Y-100345000D02*
X125570000Y-100345000D01*
X125570000Y-101095000D01*
X127370000Y-101095000D01*
X127370000Y-100345000D01*
X124720000Y-105085000D02*
X118750000Y-105085000D01*
X118750000Y-112705000D01*
X124720000Y-112705000D01*
X124720000Y-105085000D01*
X124710000Y-105095000D02*
X123960000Y-105095000D01*
X123960000Y-106895000D01*
X124710000Y-106895000D01*
X124710000Y-105095000D01*
X124710000Y-108395000D02*
X123960000Y-108395000D01*
X123960000Y-109395000D01*
X124710000Y-109395000D01*
X124710000Y-108395000D01*
X133710000Y-109075000D02*
X127740000Y-109075000D01*
X127740000Y-121695000D01*
X133710000Y-121695000D01*
X133710000Y-109075000D01*
X133700000Y-109085000D02*
X132950000Y-109085000D01*
X132950000Y-110885000D01*
X133700000Y-110885000D01*
X133700000Y-109085000D01*
X124710000Y-110895000D02*
X123960000Y-110895000D01*
X123960000Y-112695000D01*
X124710000Y-112695000D01*
X124710000Y-110895000D01*
X133700000Y-112385000D02*
X132950000Y-112385000D01*
X132950000Y-118385000D01*
X133700000Y-118385000D01*
X133700000Y-112385000D01*
X124720000Y-114075000D02*
X118750000Y-114075000D01*
X118750000Y-121695000D01*
X124720000Y-121695000D01*
X124720000Y-114075000D01*
X124710000Y-114085000D02*
X123960000Y-114085000D01*
X123960000Y-115885000D01*
X124710000Y-115885000D01*
X124710000Y-114085000D01*
X124710000Y-117385000D02*
X123960000Y-117385000D01*
X123960000Y-118385000D01*
X124710000Y-118385000D01*
X124710000Y-117385000D01*
X133700000Y-119885000D02*
X132950000Y-119885000D01*
X132950000Y-121685000D01*
X133700000Y-121685000D01*
X133700000Y-119885000D01*
X124710000Y-119885000D02*
X123960000Y-119885000D01*
X123960000Y-121685000D01*
X124710000Y-121685000D01*
X124710000Y-119885000D01*
%TO.C,D4*%
X176565000Y-85180000D02*
X176565000Y-86560000D01*
X175185000Y-85180000D02*
X176565000Y-85180000D01*
X173915000Y-87940000D02*
X171265000Y-87940000D01*
X173915000Y-85180000D02*
X173915000Y-87940000D01*
X173915000Y-85180000D02*
X171265000Y-85180000D01*
X171265000Y-85180000D02*
X171265000Y-87940000D01*
%TO.C,R5*%
X173120000Y-66790000D02*
X176960000Y-66790000D01*
X173120000Y-68630000D02*
X176960000Y-68630000D01*
%TO.C,R6*%
X173120000Y-70790000D02*
X176960000Y-70790000D01*
X173120000Y-72630000D02*
X176960000Y-72630000D01*
%TO.C,R3*%
X167485000Y-87240000D02*
G75*
G02*
X165645000Y-87240000I-920000J0D01*
G01*
X165645000Y-87240000D02*
G75*
G02*
X167485000Y-87240000I920000J0D01*
G01*
X167485000Y-87240000D02*
X168105000Y-87240000D01*
%TO.C,D7*%
X183370000Y-67080000D02*
X184750000Y-67080000D01*
X183370000Y-68460000D02*
X183370000Y-67080000D01*
X186130000Y-69730000D02*
X186130000Y-72380000D01*
X183370000Y-69730000D02*
X186130000Y-69730000D01*
X183370000Y-69730000D02*
X183370000Y-72380000D01*
X183370000Y-72380000D02*
X186130000Y-72380000D01*
%TO.C,R2*%
X167505000Y-84840000D02*
G75*
G02*
X165665000Y-84840000I-920000J0D01*
G01*
X165665000Y-84840000D02*
G75*
G02*
X167505000Y-84840000I920000J0D01*
G01*
X167505000Y-84840000D02*
X168125000Y-84840000D01*
%TO.C,D5*%
X176585000Y-88910000D02*
X176585000Y-90290000D01*
X175205000Y-88910000D02*
X176585000Y-88910000D01*
X173935000Y-91670000D02*
X171285000Y-91670000D01*
X173935000Y-88910000D02*
X173935000Y-91670000D01*
X173935000Y-88910000D02*
X171285000Y-88910000D01*
X171285000Y-88910000D02*
X171285000Y-91670000D01*
%TO.C,R4*%
X171130000Y-64540000D02*
X167290000Y-64540000D01*
X171130000Y-66380000D02*
X167290000Y-66380000D01*
%TO.C,BZ1*%
X151910000Y-147820000D02*
G75*
G02*
X139450000Y-147820000I-6230000J0D01*
G01*
X139450000Y-147820000D02*
G75*
G02*
X151910000Y-147820000I6230000J0D01*
G01*
X144180001Y-141420000D02*
G75*
G02*
X147180000Y-141420000I1499999J-6400000D01*
G01*
%TO.C,Q2*%
X170610000Y-66890000D02*
X170610000Y-77110000D01*
X165990000Y-66890000D02*
X170610000Y-66890000D01*
X165990000Y-70150000D02*
X167370000Y-70150000D01*
X165990000Y-73850000D02*
X167370000Y-73850000D01*
X170610000Y-77110000D02*
X165990000Y-77110000D01*
X167370000Y-77110000D02*
X167370000Y-66890000D01*
X165990000Y-77110000D02*
X165990000Y-66890000D01*
D10*
%TO.C,U3*%
X154709000Y-102287000D02*
X154328000Y-102541000D01*
X154074000Y-102287000D01*
X154455000Y-102033000D01*
X154709000Y-102287000D01*
G36*
X154709000Y-102287000D02*
G01*
X154328000Y-102541000D01*
X154074000Y-102287000D01*
X154455000Y-102033000D01*
X154709000Y-102287000D01*
G37*
X154582000Y-103049000D02*
X154201000Y-103303000D01*
X153947000Y-103049000D01*
X154328000Y-102795000D01*
X154582000Y-103049000D01*
G36*
X154582000Y-103049000D02*
G01*
X154201000Y-103303000D01*
X153947000Y-103049000D01*
X154328000Y-102795000D01*
X154582000Y-103049000D01*
G37*
X154328000Y-104573000D02*
X153947000Y-104827000D01*
X153693000Y-104573000D01*
X154074000Y-104319000D01*
X154328000Y-104573000D01*
G36*
X154328000Y-104573000D02*
G01*
X153947000Y-104827000D01*
X153693000Y-104573000D01*
X154074000Y-104319000D01*
X154328000Y-104573000D01*
G37*
X154201000Y-102668000D02*
X153820000Y-102922000D01*
X153566000Y-102668000D01*
X153947000Y-102414000D01*
X154201000Y-102668000D01*
G36*
X154201000Y-102668000D02*
G01*
X153820000Y-102922000D01*
X153566000Y-102668000D01*
X153947000Y-102414000D01*
X154201000Y-102668000D01*
G37*
X154074000Y-103430000D02*
X153693000Y-103684000D01*
X153439000Y-103430000D01*
X153820000Y-103176000D01*
X154074000Y-103430000D01*
G36*
X154074000Y-103430000D02*
G01*
X153693000Y-103684000D01*
X153439000Y-103430000D01*
X153820000Y-103176000D01*
X154074000Y-103430000D01*
G37*
X153947000Y-104192000D02*
X153566000Y-104446000D01*
X153312000Y-104192000D01*
X153693000Y-103938000D01*
X153947000Y-104192000D01*
G36*
X153947000Y-104192000D02*
G01*
X153566000Y-104446000D01*
X153312000Y-104192000D01*
X153693000Y-103938000D01*
X153947000Y-104192000D01*
G37*
X153693000Y-103049000D02*
X153312000Y-103303000D01*
X153058000Y-103049000D01*
X153439000Y-102795000D01*
X153693000Y-103049000D01*
G36*
X153693000Y-103049000D02*
G01*
X153312000Y-103303000D01*
X153058000Y-103049000D01*
X153439000Y-102795000D01*
X153693000Y-103049000D01*
G37*
X153566000Y-103811000D02*
X153185000Y-104065000D01*
X152931000Y-103811000D01*
X153312000Y-103557000D01*
X153566000Y-103811000D01*
G36*
X153566000Y-103811000D02*
G01*
X153185000Y-104065000D01*
X152931000Y-103811000D01*
X153312000Y-103557000D01*
X153566000Y-103811000D01*
G37*
D16*
X154538026Y-113695000D02*
G75*
G02*
X152741974Y-113695000I-898026J0D01*
G01*
X152741974Y-113695000D02*
G75*
G02*
X154538026Y-113695000I898026J0D01*
G01*
X162530000Y-132110000D02*
X144750000Y-132110000D01*
X162530000Y-71150000D02*
X162530000Y-132110000D01*
X159991600Y-88380000D02*
X159991600Y-84380000D01*
X159991600Y-84380000D02*
X159741600Y-84380000D01*
X159990000Y-132110000D02*
X159990000Y-119410000D01*
X159990000Y-119410000D02*
X147290000Y-119410000D01*
X159990000Y-106710000D02*
X159990000Y-94010000D01*
X159990000Y-94010000D02*
X147290000Y-94010000D01*
X159741600Y-84380000D02*
X153741600Y-84380000D01*
X158720000Y-132110000D02*
X158720000Y-130840000D01*
X158720000Y-130840000D02*
X148560000Y-130840000D01*
X157450000Y-76230000D02*
X157450000Y-71150000D01*
X157450000Y-69880000D02*
X157450000Y-71150000D01*
X154910000Y-115600000D02*
X152370000Y-115600000D01*
X154910000Y-111790000D02*
X154910000Y-115600000D01*
X153741600Y-88380000D02*
X159991600Y-88380000D01*
X153741600Y-84380000D02*
X153741600Y-88380000D01*
X152370000Y-115600000D02*
X152370000Y-111790000D01*
X152370000Y-111790000D02*
X154910000Y-111790000D01*
X150340800Y-90149200D02*
X147800800Y-90149200D01*
X150340800Y-79989200D02*
X147800800Y-79989200D01*
X150340800Y-77449200D02*
X150340800Y-90149200D01*
X150340800Y-77449200D02*
X150340800Y-79989200D01*
X149830000Y-76230000D02*
X157450000Y-76230000D01*
X149830000Y-76230000D02*
X149830000Y-71150000D01*
X149830000Y-71150000D02*
X149830000Y-69880000D01*
X149830000Y-69880000D02*
X157450000Y-69880000D01*
X148560000Y-130840000D02*
X148560000Y-132110000D01*
X147800800Y-90149200D02*
X147800800Y-77449200D01*
X147800800Y-77449200D02*
X150340800Y-77449200D01*
X147290000Y-119410000D02*
X147290000Y-132110000D01*
X147290000Y-106710000D02*
X159990000Y-106710000D01*
X147290000Y-94010000D02*
X147290000Y-106710000D01*
X144750000Y-132110000D02*
X144750000Y-71150000D01*
X144750000Y-71150000D02*
X162530000Y-71150000D01*
D17*
%TO.C,BZ3*%
X168160000Y-147820000D02*
G75*
G02*
X155700000Y-147820000I-6230000J0D01*
G01*
X155700000Y-147820000D02*
G75*
G02*
X168160000Y-147820000I6230000J0D01*
G01*
X160430001Y-141420000D02*
G75*
G02*
X163430000Y-141420000I1499999J-6400000D01*
G01*
%TO.C,D6*%
X179620000Y-67080000D02*
X181000000Y-67080000D01*
X179620000Y-68460000D02*
X179620000Y-67080000D01*
X182380000Y-69730000D02*
X182380000Y-72380000D01*
X179620000Y-69730000D02*
X182380000Y-69730000D01*
X179620000Y-69730000D02*
X179620000Y-72380000D01*
X179620000Y-72380000D02*
X182380000Y-72380000D01*
%TO.C,D3*%
X176550000Y-81180000D02*
X176550000Y-82560000D01*
X175170000Y-81180000D02*
X176550000Y-81180000D01*
X173900000Y-83940000D02*
X171250000Y-83940000D01*
X173900000Y-81180000D02*
X173900000Y-83940000D01*
X173900000Y-81180000D02*
X171250000Y-81180000D01*
X171250000Y-81180000D02*
X171250000Y-83940000D01*
%TO.C,R1*%
X167525000Y-82560000D02*
G75*
G02*
X165685000Y-82560000I-920000J0D01*
G01*
X165685000Y-82560000D02*
G75*
G02*
X167525000Y-82560000I920000J0D01*
G01*
X167525000Y-82560000D02*
X168145000Y-82560000D01*
%TO.C,J10*%
X127950000Y-73815000D02*
X126150000Y-73815000D01*
X126150000Y-73065000D01*
X127950000Y-73065000D01*
X127950000Y-73815000D01*
X130450000Y-73815000D02*
X129450000Y-73815000D01*
X129450000Y-73065000D01*
X130450000Y-73065000D01*
X130450000Y-73815000D01*
X133750000Y-73815000D02*
X131950000Y-73815000D01*
X131950000Y-73065000D01*
X133750000Y-73065000D01*
X133750000Y-73815000D01*
X133760000Y-73825000D02*
X126140000Y-73825000D01*
X126140000Y-67855000D01*
X133760000Y-67855000D01*
X133760000Y-73825000D01*
X126150000Y-71565000D02*
X126900000Y-71565000D01*
X126900000Y-68615000D02*
X129950000Y-68615000D01*
X126900000Y-71565000D02*
X126900000Y-68615000D01*
X132800000Y-74115000D02*
X134050000Y-74115000D01*
X133000000Y-68615000D02*
X129950000Y-68615000D01*
X133000000Y-71565000D02*
X133000000Y-68615000D01*
X133750000Y-71565000D02*
X133000000Y-71565000D01*
X134050000Y-74115000D02*
X134050000Y-72865000D01*
%TO.C,J12*%
X136438000Y-73757000D02*
X134638000Y-73757000D01*
X134638000Y-73007000D01*
X136438000Y-73007000D01*
X136438000Y-73757000D01*
X138938000Y-73757000D02*
X137938000Y-73757000D01*
X137938000Y-73007000D01*
X138938000Y-73007000D01*
X138938000Y-73757000D01*
X142238000Y-73757000D02*
X140438000Y-73757000D01*
X140438000Y-73007000D01*
X142238000Y-73007000D01*
X142238000Y-73757000D01*
X142248000Y-73767000D02*
X134628000Y-73767000D01*
X134628000Y-67797000D01*
X142248000Y-67797000D01*
X142248000Y-73767000D01*
X134638000Y-71507000D02*
X135388000Y-71507000D01*
X135388000Y-68557000D02*
X138438000Y-68557000D01*
X135388000Y-71507000D02*
X135388000Y-68557000D01*
X141288000Y-74057000D02*
X142538000Y-74057000D01*
X141488000Y-68557000D02*
X138438000Y-68557000D01*
X141488000Y-71507000D02*
X141488000Y-68557000D01*
X142238000Y-71507000D02*
X141488000Y-71507000D01*
X142538000Y-74057000D02*
X142538000Y-72807000D01*
%TO.C,J9*%
X119378000Y-73817000D02*
X117578000Y-73817000D01*
X117578000Y-73067000D01*
X119378000Y-73067000D01*
X119378000Y-73817000D01*
X121878000Y-73817000D02*
X120878000Y-73817000D01*
X120878000Y-73067000D01*
X121878000Y-73067000D01*
X121878000Y-73817000D01*
X125178000Y-73817000D02*
X123378000Y-73817000D01*
X123378000Y-73067000D01*
X125178000Y-73067000D01*
X125178000Y-73817000D01*
X125188000Y-73827000D02*
X117568000Y-73827000D01*
X117568000Y-67857000D01*
X125188000Y-67857000D01*
X125188000Y-73827000D01*
X117578000Y-71567000D02*
X118328000Y-71567000D01*
X118328000Y-68617000D02*
X121378000Y-68617000D01*
X118328000Y-71567000D02*
X118328000Y-68617000D01*
X124228000Y-74117000D02*
X125478000Y-74117000D01*
X124428000Y-68617000D02*
X121378000Y-68617000D01*
X124428000Y-71567000D02*
X124428000Y-68617000D01*
X125178000Y-71567000D02*
X124428000Y-71567000D01*
X125478000Y-74117000D02*
X125478000Y-72867000D01*
%TO.C,J7*%
X115710000Y-115940000D02*
X114960000Y-115940000D01*
X114960000Y-117740000D01*
X115710000Y-117740000D01*
X115710000Y-115940000D01*
X115710000Y-113440000D02*
X114960000Y-113440000D01*
X114960000Y-114440000D01*
X115710000Y-114440000D01*
X115710000Y-113440000D01*
X115710000Y-110140000D02*
X114960000Y-110140000D01*
X114960000Y-111940000D01*
X115710000Y-111940000D01*
X115710000Y-110140000D01*
X115720000Y-110130000D02*
X109750000Y-110130000D01*
X109750000Y-117750000D01*
X115720000Y-117750000D01*
X115720000Y-110130000D01*
X113460000Y-117740000D02*
X113460000Y-116990000D01*
X110510000Y-116990000D02*
X110510000Y-113940000D01*
X113460000Y-116990000D02*
X110510000Y-116990000D01*
X116010000Y-111090000D02*
X116010000Y-109840000D01*
X110510000Y-110890000D02*
X110510000Y-113940000D01*
X113460000Y-110890000D02*
X110510000Y-110890000D01*
X113460000Y-110140000D02*
X113460000Y-110890000D01*
X116010000Y-109840000D02*
X114760000Y-109840000D01*
%TO.C,J5*%
X115710000Y-107440000D02*
X114960000Y-107440000D01*
X114960000Y-109240000D01*
X115710000Y-109240000D01*
X115710000Y-107440000D01*
X115710000Y-104940000D02*
X114960000Y-104940000D01*
X114960000Y-105940000D01*
X115710000Y-105940000D01*
X115710000Y-104940000D01*
X115710000Y-101640000D02*
X114960000Y-101640000D01*
X114960000Y-103440000D01*
X115710000Y-103440000D01*
X115710000Y-101640000D01*
X115720000Y-101630000D02*
X109750000Y-101630000D01*
X109750000Y-109250000D01*
X115720000Y-109250000D01*
X115720000Y-101630000D01*
X113460000Y-109240000D02*
X113460000Y-108490000D01*
X110510000Y-108490000D02*
X110510000Y-105440000D01*
X113460000Y-108490000D02*
X110510000Y-108490000D01*
X116010000Y-102590000D02*
X116010000Y-101340000D01*
X110510000Y-102390000D02*
X110510000Y-105440000D01*
X113460000Y-102390000D02*
X110510000Y-102390000D01*
X113460000Y-101640000D02*
X113460000Y-102390000D01*
X116010000Y-101340000D02*
X114760000Y-101340000D01*
%TO.C,J3*%
X115710000Y-98940000D02*
X114960000Y-98940000D01*
X114960000Y-100740000D01*
X115710000Y-100740000D01*
X115710000Y-98940000D01*
X115710000Y-96440000D02*
X114960000Y-96440000D01*
X114960000Y-97440000D01*
X115710000Y-97440000D01*
X115710000Y-96440000D01*
X115710000Y-93140000D02*
X114960000Y-93140000D01*
X114960000Y-94940000D01*
X115710000Y-94940000D01*
X115710000Y-93140000D01*
X115720000Y-93130000D02*
X109750000Y-93130000D01*
X109750000Y-100750000D01*
X115720000Y-100750000D01*
X115720000Y-93130000D01*
X113460000Y-100740000D02*
X113460000Y-99990000D01*
X110510000Y-99990000D02*
X110510000Y-96940000D01*
X113460000Y-99990000D02*
X110510000Y-99990000D01*
X116010000Y-94090000D02*
X116010000Y-92840000D01*
X110510000Y-93890000D02*
X110510000Y-96940000D01*
X113460000Y-93890000D02*
X110510000Y-93890000D01*
X113460000Y-93140000D02*
X113460000Y-93890000D01*
X116010000Y-92840000D02*
X114760000Y-92840000D01*
%TO.C,J1*%
X115710000Y-90440000D02*
X114960000Y-90440000D01*
X114960000Y-92240000D01*
X115710000Y-92240000D01*
X115710000Y-90440000D01*
X115710000Y-87940000D02*
X114960000Y-87940000D01*
X114960000Y-88940000D01*
X115710000Y-88940000D01*
X115710000Y-87940000D01*
X115710000Y-84640000D02*
X114960000Y-84640000D01*
X114960000Y-86440000D01*
X115710000Y-86440000D01*
X115710000Y-84640000D01*
X115720000Y-84630000D02*
X109750000Y-84630000D01*
X109750000Y-92250000D01*
X115720000Y-92250000D01*
X115720000Y-84630000D01*
X113460000Y-92240000D02*
X113460000Y-91490000D01*
X110510000Y-91490000D02*
X110510000Y-88440000D01*
X113460000Y-91490000D02*
X110510000Y-91490000D01*
X116010000Y-85590000D02*
X116010000Y-84340000D01*
X110510000Y-85390000D02*
X110510000Y-88440000D01*
X113460000Y-85390000D02*
X110510000Y-85390000D01*
X113460000Y-84640000D02*
X113460000Y-85390000D01*
X116010000Y-84340000D02*
X114760000Y-84340000D01*
%TO.C,J2*%
X178578000Y-115589000D02*
X177828000Y-115589000D01*
X177828000Y-117389000D01*
X178578000Y-117389000D01*
X178578000Y-115589000D01*
X178578000Y-108089000D02*
X177828000Y-108089000D01*
X177828000Y-114089000D01*
X178578000Y-114089000D01*
X178578000Y-108089000D01*
X178578000Y-104789000D02*
X177828000Y-104789000D01*
X177828000Y-106589000D01*
X178578000Y-106589000D01*
X178578000Y-104789000D01*
X178588000Y-104779000D02*
X172618000Y-104779000D01*
X172618000Y-117399000D01*
X178588000Y-117399000D01*
X178588000Y-104779000D01*
X176328000Y-117389000D02*
X176328000Y-116639000D01*
X173378000Y-116639000D02*
X173378000Y-111089000D01*
X176328000Y-116639000D02*
X173378000Y-116639000D01*
X178878000Y-105739000D02*
X178878000Y-104489000D01*
X173378000Y-105539000D02*
X173378000Y-111089000D01*
X176328000Y-105539000D02*
X173378000Y-105539000D01*
X176328000Y-104789000D02*
X176328000Y-105539000D01*
X178878000Y-104489000D02*
X177628000Y-104489000D01*
%TO.C,J4*%
X188484000Y-115589000D02*
X187734000Y-115589000D01*
X187734000Y-117389000D01*
X188484000Y-117389000D01*
X188484000Y-115589000D01*
X188484000Y-108089000D02*
X187734000Y-108089000D01*
X187734000Y-114089000D01*
X188484000Y-114089000D01*
X188484000Y-108089000D01*
X188484000Y-104789000D02*
X187734000Y-104789000D01*
X187734000Y-106589000D01*
X188484000Y-106589000D01*
X188484000Y-104789000D01*
X188494000Y-104779000D02*
X182524000Y-104779000D01*
X182524000Y-117399000D01*
X188494000Y-117399000D01*
X188494000Y-104779000D01*
X186234000Y-117389000D02*
X186234000Y-116639000D01*
X183284000Y-116639000D02*
X183284000Y-111089000D01*
X186234000Y-116639000D02*
X183284000Y-116639000D01*
X188784000Y-105739000D02*
X188784000Y-104489000D01*
X183284000Y-105539000D02*
X183284000Y-111089000D01*
X186234000Y-105539000D02*
X183284000Y-105539000D01*
X186234000Y-104789000D02*
X186234000Y-105539000D01*
X188784000Y-104489000D02*
X187534000Y-104489000D01*
%TO.C,J6*%
X178570000Y-129100000D02*
X177820000Y-129100000D01*
X177820000Y-130900000D01*
X178570000Y-130900000D01*
X178570000Y-129100000D01*
X178570000Y-121600000D02*
X177820000Y-121600000D01*
X177820000Y-127600000D01*
X178570000Y-127600000D01*
X178570000Y-121600000D01*
X178570000Y-118300000D02*
X177820000Y-118300000D01*
X177820000Y-120100000D01*
X178570000Y-120100000D01*
X178570000Y-118300000D01*
X178580000Y-118290000D02*
X172610000Y-118290000D01*
X172610000Y-130910000D01*
X178580000Y-130910000D01*
X178580000Y-118290000D01*
X176320000Y-130900000D02*
X176320000Y-130150000D01*
X173370000Y-130150000D02*
X173370000Y-124600000D01*
X176320000Y-130150000D02*
X173370000Y-130150000D01*
X178870000Y-119250000D02*
X178870000Y-118000000D01*
X173370000Y-119050000D02*
X173370000Y-124600000D01*
X176320000Y-119050000D02*
X173370000Y-119050000D01*
X176320000Y-118300000D02*
X176320000Y-119050000D01*
X178870000Y-118000000D02*
X177620000Y-118000000D01*
%TO.C,J8*%
X188440000Y-129110000D02*
X187690000Y-129110000D01*
X187690000Y-130910000D01*
X188440000Y-130910000D01*
X188440000Y-129110000D01*
X188440000Y-121610000D02*
X187690000Y-121610000D01*
X187690000Y-127610000D01*
X188440000Y-127610000D01*
X188440000Y-121610000D01*
X188440000Y-118310000D02*
X187690000Y-118310000D01*
X187690000Y-120110000D01*
X188440000Y-120110000D01*
X188440000Y-118310000D01*
X188450000Y-118300000D02*
X182480000Y-118300000D01*
X182480000Y-130920000D01*
X188450000Y-130920000D01*
X188450000Y-118300000D01*
X186190000Y-130910000D02*
X186190000Y-130160000D01*
X183240000Y-130160000D02*
X183240000Y-124610000D01*
X186190000Y-130160000D02*
X183240000Y-130160000D01*
X188740000Y-119260000D02*
X188740000Y-118010000D01*
X183240000Y-119060000D02*
X183240000Y-124610000D01*
X186190000Y-119060000D02*
X183240000Y-119060000D01*
X186190000Y-118310000D02*
X186190000Y-119060000D01*
X188740000Y-118010000D02*
X187490000Y-118010000D01*
%TO.C,U4*%
X128210000Y-126570000D02*
X130010000Y-126570000D01*
X130010000Y-127320000D01*
X128210000Y-127320000D01*
X128210000Y-126570000D01*
X115710000Y-126570000D02*
X126710000Y-126570000D01*
X126710000Y-127320000D01*
X115710000Y-127320000D01*
X115710000Y-126570000D01*
X112410000Y-126570000D02*
X114210000Y-126570000D01*
X114210000Y-127320000D01*
X112410000Y-127320000D01*
X112410000Y-126570000D01*
X112400000Y-126560000D02*
X130020000Y-126560000D01*
X130020000Y-132530000D01*
X112400000Y-132530000D01*
X112400000Y-126560000D01*
X130010000Y-128820000D02*
X129260000Y-128820000D01*
X129260000Y-131770000D02*
X121210000Y-131770000D01*
X129260000Y-128820000D02*
X129260000Y-131770000D01*
X113360000Y-126270000D02*
X112110000Y-126270000D01*
X113160000Y-131770000D02*
X121210000Y-131770000D01*
X113160000Y-128820000D02*
X113160000Y-131770000D01*
X112410000Y-128820000D02*
X113160000Y-128820000D01*
X112110000Y-126270000D02*
X112110000Y-127520000D01*
%TO.C,U5*%
X128210000Y-140350000D02*
X130010000Y-140350000D01*
X130010000Y-141100000D01*
X128210000Y-141100000D01*
X128210000Y-140350000D01*
X115710000Y-140350000D02*
X126710000Y-140350000D01*
X126710000Y-141100000D01*
X115710000Y-141100000D01*
X115710000Y-140350000D01*
X112410000Y-140350000D02*
X114210000Y-140350000D01*
X114210000Y-141100000D01*
X112410000Y-141100000D01*
X112410000Y-140350000D01*
X112400000Y-140340000D02*
X130020000Y-140340000D01*
X130020000Y-146310000D01*
X112400000Y-146310000D01*
X112400000Y-140340000D01*
X130010000Y-142600000D02*
X129260000Y-142600000D01*
X129260000Y-145550000D02*
X121210000Y-145550000D01*
X129260000Y-142600000D02*
X129260000Y-145550000D01*
X113360000Y-140050000D02*
X112110000Y-140050000D01*
X113160000Y-145550000D02*
X121210000Y-145550000D01*
X113160000Y-142600000D02*
X113160000Y-145550000D01*
X112410000Y-142600000D02*
X113160000Y-142600000D01*
X112110000Y-140050000D02*
X112110000Y-141300000D01*
%TO.C,U6*%
X128210000Y-133500000D02*
X130010000Y-133500000D01*
X130010000Y-134250000D01*
X128210000Y-134250000D01*
X128210000Y-133500000D01*
X115710000Y-133500000D02*
X126710000Y-133500000D01*
X126710000Y-134250000D01*
X115710000Y-134250000D01*
X115710000Y-133500000D01*
X112410000Y-133500000D02*
X114210000Y-133500000D01*
X114210000Y-134250000D01*
X112410000Y-134250000D01*
X112410000Y-133500000D01*
X112400000Y-133490000D02*
X130020000Y-133490000D01*
X130020000Y-139460000D01*
X112400000Y-139460000D01*
X112400000Y-133490000D01*
X130010000Y-135750000D02*
X129260000Y-135750000D01*
X129260000Y-138700000D02*
X121210000Y-138700000D01*
X129260000Y-135750000D02*
X129260000Y-138700000D01*
X113360000Y-133200000D02*
X112110000Y-133200000D01*
X113160000Y-138700000D02*
X121210000Y-138700000D01*
X113160000Y-135750000D02*
X113160000Y-138700000D01*
X112410000Y-135750000D02*
X113160000Y-135750000D01*
X112110000Y-133200000D02*
X112110000Y-134450000D01*
%TO.C,U7*%
X128140000Y-147210000D02*
X129940000Y-147210000D01*
X129940000Y-147960000D01*
X128140000Y-147960000D01*
X128140000Y-147210000D01*
X115640000Y-147210000D02*
X126640000Y-147210000D01*
X126640000Y-147960000D01*
X115640000Y-147960000D01*
X115640000Y-147210000D01*
X112340000Y-147210000D02*
X114140000Y-147210000D01*
X114140000Y-147960000D01*
X112340000Y-147960000D01*
X112340000Y-147210000D01*
X112330000Y-147200000D02*
X129950000Y-147200000D01*
X129950000Y-153170000D01*
X112330000Y-153170000D01*
X112330000Y-147200000D01*
X129940000Y-149460000D02*
X129190000Y-149460000D01*
X129190000Y-152410000D02*
X121140000Y-152410000D01*
X129190000Y-149460000D02*
X129190000Y-152410000D01*
X113290000Y-146910000D02*
X112040000Y-146910000D01*
X113090000Y-152410000D02*
X121140000Y-152410000D01*
X113090000Y-149460000D02*
X113090000Y-152410000D01*
X112340000Y-149460000D02*
X113090000Y-149460000D01*
X112040000Y-146910000D02*
X112040000Y-148160000D01*
%TO.C,U8*%
X185110000Y-101570000D02*
X183730000Y-101570000D01*
X185110000Y-100190000D02*
X185110000Y-101570000D01*
X185110000Y-98920000D02*
X185110000Y-75950000D01*
X185110000Y-98920000D02*
X182350000Y-98920000D01*
X185110000Y-75950000D02*
X182350000Y-75950000D01*
X182350000Y-98920000D02*
X182350000Y-75950000D01*
%TD*%
M02*
